<?xml version="1.0" standalone="no"?>
<!DOCTYPE svg PUBLIC "-//W3C//DTD SVG 1.1//EN" "http://www.w3.org/Graphics/SVG/1.1/DTD/svg11.dtd" >
<svg>
<metadata>
Created by FontForge 20090622 at Tue Aug 30 18:57:30 2016
 By deploy user
&#194;&#169; 2002 Adobe Systems Incorporated. All Rights Reserved.
</metadata>
<defs>
<font id="UtopiaStd-Disp" horiz-adv-x="322" >
  <font-face 
    font-family="Utopia Std Display"
    font-weight="400"
    font-stretch="normal"
    units-per-em="1000"
    panose-1="2 4 5 3 6 5 6 2 2 4"
    ascent="728"
    descent="-272"
    x-height="461"
    cap-height="660"
    bbox="-147 -251 1014 856"
    underline-thickness="50"
    underline-position="-50"
    unicode-range="U+0020-U+FB04"
  />
<missing-glyph horiz-adv-x="470" 
d="M0 0v700h500v-700h-500zM250 395l170 255h-340zM280 350l170 -255v510zM80 50h340l-170 255zM50 605v-510l170 255z" />
    <glyph glyph-name="T_h" unicode="Th" horiz-adv-x="1026" 
d="M24 660h536v52l82 15l4 -5v-324l17.5 12.5t18.5 12.5t17 11t18 11t17 9t19.5 8.5l19 5.5t21 4t21.5 1q65 0 99.5 -39t34.5 -111v-246q0 -35 10 -44.5t55 -13.5v-19h-220v19q46 3 57.5 13t11.5 45v243q0 111 -98 111q-36 0 -66 -16t-44 -43q-9 -16 -9 -50v-245
q0 -35 11.5 -44.5t58.5 -13.5v-19h-219v19q43 3 53 13t10 45v554q-80 8 -151 8h-62v-560q0 -32 10.5 -43.5t45.5 -13.5l47 -3v-19h-300v19l53 4q34 2 42 12.5t8 43.5v560h-67q-79 0 -105.5 -28.5t-35.5 -108.5h-21v158z" />
    <glyph glyph-name="f_f" unicode="ff" horiz-adv-x="544" 
d="M24 461h61v50q0 91 35.5 150.5t116.5 59.5q45 0 67.5 -19.5t22.5 -40.5q0 -17 -10 -26.5t-25 -9.5q-18 0 -23 19q-9 34 -22.5 45.5t-31.5 11.5q-45 0 -45 -96q0 -23 0.5 -71.5t0.5 -72.5h199v56q0 90 35.5 150t116.5 60q46 0 70 -20.5t24 -41.5q0 -16 -12.5 -26.5
t-27.5 -10.5q-16 0 -23 18q-10 36 -23 48.5t-31 12.5q-7 0 -13.5 -3.5t-14.5 -12.5t-12.5 -30t-4.5 -50q0 -24 0.5 -74t0.5 -76h85v-30h-85v-359q0 -19 1.5 -28t13 -14.5t21 -6.5t42.5 -4v-19h-233v19q50 3 60 10t10 43v359h-199v-360q0 -31 11.5 -39t53.5 -12q9 -1 13 -1
v-19h-229v19q47 5 56 12t9 42v358h-61v30z" />
    <glyph glyph-name="f_i" unicode="fi" horiz-adv-x="533" 
d="M19 461h66v59q0 89 36.5 148t118.5 59q45 0 67 -19t22 -39q0 -17 -12 -28t-27 -11q-16 0 -23 18q-10 35 -21.5 47t-28.5 12q-7 0 -14 -3.5t-15.5 -13.5t-13.5 -32.5t-5 -55.5q2 -90 2 -141h125q71 0 156 8l3 -5v-391q0 -36 8 -43t58 -11v-19h-221v19q50 3 60 10.5
t10 42.5v316q0 25 -6 34t-24 9h-169v-359q0 -35 10.5 -41.5t62.5 -11.5v-19h-223v19q45 3 54.5 11t9.5 43v358h-66v30zM412 650h1q21 0 34 -13.5t13 -34.5q0 -22 -13 -35t-35 -13t-35 13t-13 35q0 21 13.5 34.5t34.5 13.5z" />
    <glyph glyph-name="f_l" unicode="fl" horiz-adv-x="533" 
d="M19 461h66v59q0 89 37.5 148t119.5 59q52 0 74 -24l137 24l3 -3l-1 -651q0 -36 8 -43t58 -11v-19h-221v19q50 3 60 10.5t10 42.5v564q0 29 -5 37t-23 11l-13 2q9 -20 -1.5 -39t-32.5 -19q-17 0 -22 19q-18 60 -53 60q-11 0 -21 -6.5t-19.5 -30.5t-9.5 -65q1 -46 1 -144
h96v-30h-96v-359q0 -35 10.5 -41.5t62.5 -11.5v-19h-223v19q45 3 54.5 11t9.5 43v358h-66v30z" />
    <glyph glyph-name="f_f_i" unicode="ffi" horiz-adv-x="818" 
d="M24 461h61v51q0 42 7.5 77.5t24.5 66.5t48 48.5t73 17.5q45 0 67.5 -20.5t22.5 -41.5q0 -16 -12 -26.5t-27 -10.5q-18 0 -23 19q-16 60 -53 60q-44 0 -44 -94q2 -94 2 -147h199v56q0 90 36 150t117 60q46 0 68 -19.5t22 -40.5q0 -17 -12 -28t-27 -11q-18 0 -23 18
q-16 61 -53 61q-45 0 -44 -94q0 -24 0.5 -75t0.5 -77h126q71 0 156 8l4 -5v-391q0 -36 8 -43t57 -11v-19h-221v19q50 3 60 10.5t10 42.5v316q0 25 -6 34t-24 9h-170v-359q0 -19 1.5 -28t13 -14.5t21 -6.5t42.5 -4v-19h-233v19q50 3 60 10t10 43v359h-199v-360
q0 -31 11.5 -39t53.5 -12q9 -1 13 -1v-19h-229v19q47 5 56 12t9 42v358h-61v30zM697 649h1q21 0 34.5 -14t12.5 -34q0 -22 -13 -35t-35 -13q-21 0 -34.5 13t-13.5 35q0 20 13.5 34t34.5 14z" />
    <glyph glyph-name="f_f_l" unicode="ffl" horiz-adv-x="818" 
d="M24 461h61v46q0 42 7.5 78t23.5 68t47 50.5t73 18.5q45 0 66 -19.5t21 -40.5q0 -17 -12 -28t-26 -11q-18 0 -23 19q-16 60 -51 60q-42 0 -42 -94q2 -94 2 -147h199v59q0 57 13 101t49 75t92 31q49 0 73 -24l140 24l3 -3l1 -651q0 -36 8 -43t57 -11v-19h-221v19
q50 3 60 10.5t10 42.5v564q-1 29 -5.5 37.5t-22.5 10.5l-18 2q9 -20 -1.5 -39t-32.5 -19q-18 0 -23 19q-16 60 -51 60q-48 0 -47 -99q1 -47 1 -147h85v-30h-85v-359q0 -19 1.5 -28t13 -14.5t21 -6.5t42.5 -4v-19h-233v19q50 3 60 10t10 43v359h-199v-360q0 -31 11.5 -39
t53.5 -12q9 -1 13 -1v-19h-229v19q47 5 56 12t9 42v358h-61v30z" />
    <glyph glyph-name=".notdef" horiz-adv-x="470" 
d="M0 0v700h500v-700h-500zM250 395l170 255h-340zM280 350l170 -255v510zM80 50h340l-170 255zM50 605v-510l170 255z" />
    <glyph glyph-name=".null" horiz-adv-x="0" 
 />
    <glyph glyph-name="nonmarkingreturn" horiz-adv-x="333" 
 />
    <glyph glyph-name="space" unicode=" " horiz-adv-x="190" 
 />
    <glyph glyph-name="exclam" unicode="!" horiz-adv-x="230" 
d="M123 193h-19l-47 397q-3 35 8 54t49 19t49 -19t7 -54zM116 -12h-1q-22 0 -36 15t-14 38t14 38.5t37 15.5t37 -15.5t14 -38.5q-1 -23 -14.5 -38t-36.5 -15z" />
    <glyph glyph-name="quotedbl" unicode="&#x22;" horiz-adv-x="289" 
d="M74 491q-4 117 -33 205q7 7 33 18t37 10q12 -14 12 -47q0 -36 -13 -99t-22 -85zM205 491q-6 124 -33 205q7 7 33 18t38 10q11 -18 11 -47q0 -40 -13 -100.5t-22 -83.5z" />
    <glyph glyph-name="numbersign" unicode="#" horiz-adv-x="499" 
d="M317 376h-113l-26 -106h112zM433 376h-92l-26 -106h91l-10 -47h-91l-45 -178h-26l45 178h-113l-43 -178h-28l45 178h-93l11 47h93l27 106h-93l11 47h93l39 162h27l-40 -162h112l41 162h24l-39 -162h91z" />
    <glyph glyph-name="dollar" unicode="$" horiz-adv-x="499" 
d="M231 374v234q-44 0 -75.5 -26.5t-31.5 -86.5q0 -47 31 -77t76 -44zM255 609v-244q116 -42 154.5 -75.5t38.5 -107.5q0 -54 -24 -93t-59 -56.5t-62.5 -25t-47.5 -7.5v-87h-24v87q-52 0 -91.5 12t-59.5 30t-30 35t-10 30q0 20 15 33t31 13q23 0 27 -21q22 -109 118 -112
v259q-101 34 -141.5 74t-40.5 108q0 78 54 121t128 45v71h24v-70q78 -2 122 -31.5t44 -62.5q0 -19 -14 -30.5t-28 -11.5q-23 0 -25 19q-8 50 -36.5 72.5t-62.5 25.5zM255 271v-251q42 -1 77 29.5t35 95.5q0 53 -26 77.5t-86 48.5z" />
    <glyph glyph-name="percent" unicode="%" horiz-adv-x="704" 
d="M526 312h-1q-73 0 -73 -151q0 -71 18.5 -111.5t55.5 -40.5q74 0 74 152q0 151 -74 151zM526 -11h-1q-70 0 -105.5 44.5t-35.5 127.5t35.5 127.5t106.5 44.5q70 0 106 -45t36 -127q0 -83 -36 -127.5t-106 -44.5zM571 670l24 -20l-468 -693l-19 20l398 588h-199
q13 -39 13 -98q0 -83 -35.5 -127.5t-106.5 -44.5q-70 0 -105 44.5t-35 127.5q0 172 141 172q57 0 99 -32q17 -12 37 -12h162q43 0 63 29zM179 619h-1q-73 0 -73 -152q0 -151 74 -151q36 0 54.5 40.5t18.5 110.5q0 152 -73 152z" />
    <glyph glyph-name="ampersand" unicode="&#x26;" horiz-adv-x="676" 
d="M270 628h-1q-73 0 -73 -104q0 -63 70 -142q78 48 78 140q0 50 -19 78t-55 28zM277 648h1q60 0 101 -35.5t41 -96.5q0 -27 -10 -48.5t-35.5 -40.5t-41.5 -28.5t-56 -30.5q82 -102 214 -223q53 63 53 178q0 35 -5 73q39 21 69 17q25 -46 8 -100q-25 -79 -113 -180
q110 -110 166 -125l-4 -15l-21 2q-68 7 -104.5 21.5t-90.5 56.5q-96 -84 -191 -84q-92 0 -150 49t-58 133q0 18 3.5 34.5t7 28t14.5 24.5t15.5 19.5t22 18.5l22 15t27.5 16.5t27 16.5q-32 41 -47.5 74t-15.5 77q0 64 42 108.5t109 44.5zM199 331q-31 -27 -46 -58.5
t-15 -82.5q0 -68 41.5 -111t104.5 -43q95 0 152 50q-122 108 -237 245z" />
    <glyph glyph-name="quotesingle" unicode="'" horiz-adv-x="173" 
d="M74 491q-4 111 -35 205q6 7 34.5 18t39.5 10q12 -14 12 -47q0 -41 -13 -99t-24 -85z" />
    <glyph glyph-name="parenleft" unicode="(" horiz-adv-x="363" 
d="M141 279v-1q0 -405 182 -447v-19q-72 3 -124 46t-79 113.5t-39 146t-12 161.5q0 89 12.5 166t40 146.5t79 111t122.5 44.5v-18q-29 -6 -52.5 -18.5t-48.5 -44t-42 -78t-28 -126t-11 -183.5z" />
    <glyph glyph-name="parenright" unicode=")" horiz-adv-x="363" 
d="M220 280v1q0 406 -182 448v18q72 -3 124 -45.5t79 -113t39 -146.5t12 -162q0 -69 -7.5 -132t-25.5 -124.5t-46 -106.5t-73 -74t-102 -31v19q29 6 52 18.5t48.5 43.5t42.5 78t28 126t11 183z" />
    <glyph glyph-name="asterisk" unicode="*" horiz-adv-x="367" 
d="M212 673q17 -3 23.5 -12t1.5 -21l-38 -86q-4 -11 -1 -14t11 2l85 58q23 14 36 -20q12 -35 -17 -39l-98 -16q-13 -2 -13.5 -7.5t10.5 -10.5l86 -47q27 -14 -1 -46q-25 -28 -39 -6l-58 86q-7 10 -9.5 7t-3.5 -16l3 -94q1 -16 -8.5 -23t-26.5 -4q-39 7 -24 37l38 88
q5 11 2.5 15t-12.5 -3l-81 -57q-25 -18 -39 14q-15 36 16 42l101 18q5 1 7.5 3.5t1 6t-7.5 6.5l-85 44q-28 13 -5 43q24 33 44 5l58 -78q5 -8 9 -5.5t3 13.5l-6 94q-3 31 37 23z" />
    <glyph glyph-name="plus" unicode="+" horiz-adv-x="471" 
d="M43 207v42h170v174h48v-174h169v-42h-169v-182h-48v182h-170z" />
    <glyph glyph-name="comma" unicode="," horiz-adv-x="180" 
d="M14 -113q27 37 38.5 70.5t11.5 80.5q0 27 -18 56q10 9 32.5 19t37.5 8q24 -22 24 -55q0 -46 -29.5 -91t-83.5 -98z" />
    <glyph glyph-name="hyphen" unicode="-" horiz-adv-x="295" 
d="M38 256h220v-47h-220v47z" />
    <glyph glyph-name="period" unicode="." horiz-adv-x="180" 
d="M90 -11h-1q-24 0 -37.5 15t-13.5 39q0 25 14 40.5t38 15.5t38.5 -16t13.5 -40q0 -24 -14 -39t-38 -15z" />
    <glyph glyph-name="slash" unicode="/" horiz-adv-x="364" 
d="M83 -82l-36 12l234 767l37 -12z" />
    <glyph glyph-name="zero" unicode="0" horiz-adv-x="499" 
d="M247 620h-1q-111 0 -111 -306q0 -64 4.5 -113t15.5 -95.5t34.5 -72t57.5 -25.5q113 0 113 306t-113 306zM247 639h1q208 0 208 -325t-209 -325q-208 0 -208 325t208 325z" />
    <glyph glyph-name="one" unicode="1" horiz-adv-x="499" 
d="M412 0h-310v19l78 6q19 2 25 13.5t6 32.5v480q0 20 -5 27.5t-18 9.5l-86 7v15l199 29l2 -2v-567q0 -25 7.5 -34t23.5 -11l78 -6v-19z" />
    <glyph glyph-name="two" unicode="2" horiz-adv-x="499" 
d="M466 143l-37 -143h-386l-4 5q31 109 180 239q114 101 114 231q0 60 -24 102.5t-77 42.5q-107 0 -114 -144q-2 -14 -10 -23t-21 -9q-20 0 -33 12t-13 35q0 53 52 100.5t151 47.5q83 0 137.5 -45t54.5 -132q0 -40 -9 -69.5t-34 -57.5t-47 -45.5t-71 -52.5
q-148 -105 -180 -161h270q34 0 48.5 12.5t34.5 60.5z" />
    <glyph glyph-name="three" unicode="3" horiz-adv-x="499" 
d="M133 337v1q0 18 25 18q9 0 34.5 -3.5t42.5 -3.5q23 0 39 10t23.5 22.5t11.5 34t4.5 33t0.5 32.5q0 139 -92 139q-45 0 -67 -24t-36 -91q-5 -24 -27 -24q-15 0 -27.5 11t-12.5 32q0 37 49.5 76t133.5 39q80 0 129.5 -37.5t49.5 -113.5q0 -65 -44 -100t-96 -46v-4
q25 -2 49 -9t53 -22.5t47 -47.5t18 -77q0 -90 -59 -141.5t-162 -51.5q-98 0 -141.5 34.5t-43.5 74.5q0 22 12.5 33.5t30.5 11.5q20 0 28 -28q13 -58 42 -82.5t76 -24.5q53 0 83.5 41t30.5 127q0 75 -24 112t-79 37q-19 0 -43.5 -3.5t-34.5 -3.5q-24 0 -24 19z" />
    <glyph glyph-name="four" unicode="4" horiz-adv-x="499" 
d="M281 183h-257l-6 16q37 63 140 221.5t139 207.5h72v-415h93v-30h-93v-119q0 -23 5.5 -30.5t22.5 -9.5l47 -5v-19h-250v19l55 5q18 2 25 9.5t7 30.5v119zM58 213h223v358h-2q-173 -272 -221 -358z" />
    <glyph glyph-name="five" unicode="5" horiz-adv-x="499" 
d="M407 552h-269q-19 0 -21 -16l-21 -219l2 -2q36 30 84.5 49.5t88.5 19.5q88 0 134.5 -45.5t46.5 -136.5q0 -92 -57.5 -152.5t-168.5 -60.5q-93 0 -140 37t-47 77q0 21 16 36t32 15q21 0 28 -23q8 -29 14.5 -46.5t20 -37.5t34 -29.5t49.5 -9.5q66 0 91.5 48t25.5 131
q0 81 -37.5 119.5t-89.5 38.5q-44 0 -75 -16t-63 -52l-11 9l23 338l4 4h200q108 0 122 5l6 2l3 -6z" />
    <glyph glyph-name="six" unicode="6" horiz-adv-x="499" 
d="M285 639h1q77 0 117.5 -26.5t40.5 -58.5q0 -18 -11.5 -27.5t-28.5 -9.5q-15 0 -24 20q-14 40 -41 61.5t-60 21.5q-145 0 -145 -316h2q25 30 68.5 56t91.5 26q78 0 124.5 -46t46.5 -138q0 -98 -55.5 -155.5t-159.5 -57.5q-215 0 -215 302q0 183 74 271q64 77 174 77z
M254 348h-1q-55 0 -86 -34.5t-31 -81.5q0 -92 31.5 -158t88.5 -66q56 0 85 50t29 129q0 77 -34 119t-82 42z" />
    <glyph glyph-name="seven" unicode="7" horiz-adv-x="499" 
d="M68 628h398l3 -3q-19 -82 -136 -288q-34 -59 -57 -130.5t-22 -129.5q0 -29 6 -52q4 -19 -7 -27.5t-33 -8.5q-47 0 -47 50q0 52 31 130t88 161q107 152 130 222h-293q-29 0 -39 -8t-20 -32l-17 -34h-20z" />
    <glyph glyph-name="eight" unicode="8" horiz-adv-x="499" 
d="M249 326h-1q-113 0 -113 -153q0 -71 27.5 -118t87.5 -47t87 45t27 115q0 158 -115 158zM249 -11h-1q-106 0 -158 51.5t-52 131.5q0 132 134 165v2q-52 13 -82.5 44.5t-30.5 95.5q0 75 53.5 117.5t136.5 42.5q85 0 138 -42.5t53 -117.5q0 -59 -31.5 -93.5t-81.5 -46.5v-2
q134 -32 134 -165q0 -80 -52.5 -131.5t-159.5 -51.5zM250 344h1q95 0 95 137q0 139 -97 139q-50 0 -73 -38.5t-23 -100.5q0 -137 97 -137z" />
    <glyph glyph-name="nine" unicode="9" horiz-adv-x="499" 
d="M209 255h-1q-75 0 -123.5 47t-48.5 133q0 95 56 149.5t149 54.5q102 0 154 -65q58 -69 58 -235q0 -182 -65 -270q-58 -80 -177 -80q-81 0 -123 27t-42 63q0 17 12 27.5t27 10.5q16 0 26 -21q13 -27 24 -43.5t33.5 -30.5t52.5 -14q37 0 64 25t41.5 60.5t23 84.5t10.5 85
t2 75h-2q-23 -36 -66.5 -59.5t-84.5 -23.5zM247 295h1q39 0 66 18t37 48q7 21 7 53q0 82 -30.5 144t-89.5 62q-53 0 -82 -45t-29 -120q0 -70 31.5 -115t88.5 -45z" />
    <glyph glyph-name="colon" unicode=":" horiz-adv-x="180" 
d="M90 331h-1q-24 0 -37.5 15t-13.5 39q0 25 14 41t38 16t38.5 -16t13.5 -41q0 -24 -14 -39t-38 -15zM90 -11h-1q-24 0 -37.5 15t-13.5 39q0 25 14 40.5t38 15.5t38.5 -16t13.5 -40q0 -24 -14 -39t-38 -15z" />
    <glyph glyph-name="semicolon" unicode=";" horiz-adv-x="180" 
d="M90 331h-1q-24 0 -37.5 15t-13.5 39q0 25 14 41t38 16t38.5 -16t13.5 -41q0 -24 -14 -39t-38 -15zM14 -112q50 67 50 150q0 28 -18 57q10 9 32.5 18.5t37.5 7.5q24 -22 24 -54q0 -46 -29.5 -91t-83.5 -99z" />
    <glyph glyph-name="less" unicode="&#x3c;" horiz-adv-x="471" 
d="M429 79v-50l-382 173v53l382 172v-49l-335 -150z" />
    <glyph glyph-name="equal" unicode="=" horiz-adv-x="471" 
d="M43 293v44h387v-44h-387zM43 118v43h387v-43h-387z" />
    <glyph glyph-name="greater" unicode="&#x3e;" horiz-adv-x="471" 
d="M47 378v49l382 -172v-53l-382 -173v50l335 149z" />
    <glyph glyph-name="question" unicode="?" horiz-adv-x="407" 
d="M214 665h1q76 0 115 -39t39 -102q0 -45 -21.5 -78t-73.5 -77q-59 -49 -59 -87q0 -21 16 -36t35 -15h16v-11q-27 -22 -63 -22q-43 0 -65.5 24t-22.5 61q0 46 78 127q74 77 74 135q0 46 -20 74.5t-58 28.5q-79 0 -80 -121q0 -14 -5.5 -22t-11.5 -9.5t-15 -1.5q-20 0 -37 12
t-17 40q0 39 44 79t131 40zM208 -12h-1q-22 0 -36 15t-14 38t14 38.5t37 15.5t37 -15.5t14 -38.5q-1 -23 -14.5 -38t-36.5 -15z" />
    <glyph glyph-name="at" unicode="@" horiz-adv-x="800" 
d="M335 50h1q47 0 97 76t76 171q14 54 20 87q-20 16 -50 16q-52 0 -95.5 -52.5t-65 -119t-21.5 -120.5q0 -58 38 -58zM540 414h68q-51 -200 -70 -294q-19 -86 24 -86q61 0 113 70t52 188q0 135 -81 211t-199 76q-159 0 -248.5 -116t-89.5 -297q0 -47 8 -90t28.5 -86.5
t52.5 -75t85 -51.5t120 -20q85 0 141 27t116 94l8 -12q-111 -145 -294 -145q-68 0 -127 20t-106.5 61.5t-75 111.5t-27.5 163q0 205 118.5 322t292.5 117q149 0 231 -80.5t82 -221.5q0 -121 -66 -206.5t-170 -85.5q-96 0 -48 155l-2 1q-18 -30 -32.5 -50t-40 -48t-56.5 -43
t-64 -15q-66 0 -66 100q0 33 8 71.5t27.5 81.5t47.5 77.5t73 57.5t99 23q40 0 66 -15z" />
    <glyph glyph-name="A" unicode="A" horiz-adv-x="646" 
d="M654 0h-248v20l37 4q22 2 27.5 12.5t-2.5 31.5l-69 199h-217q-43 -140 -50 -167q-12 -42 -6.5 -58t30.5 -18l48 -5v-19h-205v19q46 2 63 18.5t41 80.5q47 127 186 546h65l209 -585q13 -36 27.5 -45t63.5 -14v-20zM391 290q-80 239 -103 300h-3q-78 -246 -94 -300h200z
" />
    <glyph glyph-name="B" unicode="B" horiz-adv-x="587" 
d="M22 660h285q44 0 77.5 -6t64 -21t47 -46t16.5 -76q0 -57 -38 -96t-113 -53v-4q84 -10 133.5 -47.5t49.5 -116.5q0 -83 -56 -134q-70 -60 -204 -60h-262v19q60 5 71 13.5t11 47.5v500q0 40 -11 48t-71 13v19zM197 593v-229h79q73 0 105.5 34t32.5 105q0 74 -43 105.5
t-108 31.5q-47 0 -56.5 -7.5t-9.5 -39.5zM197 343v-250q0 -47 12.5 -60t67.5 -13q69 0 117 42t48 123t-38 119.5t-125 38.5h-82z" />
    <glyph glyph-name="C" unicode="C" horiz-adv-x="659" 
d="M593 188h21l-21 -165q-36 -14 -98 -26.5t-113 -12.5q-173 0 -256 84.5t-83 259.5q0 159 83 251q87 98 267 98q118 0 204 -39v-153h-21q-14 83 -63 127.5t-129 44.5q-64 0 -111.5 -29t-73.5 -78t-38.5 -104t-12.5 -116q0 -42 6 -82.5t22.5 -86t42.5 -79.5t70.5 -56
t101.5 -22q50 0 85.5 13.5t57.5 41.5t34.5 56.5t24.5 72.5z" />
    <glyph glyph-name="D" unicode="D" horiz-adv-x="722" 
d="M199 588v-485q0 -54 17 -68.5t78 -14.5q62 0 110 15t87 50t60 99.5t21 155.5q0 64 -14 115.5t-44 94t-83 66t-126 24.5q-74 1 -90 -7.5t-16 -44.5zM24 660h317q90 0 150.5 -16.5t104.5 -57.5q83 -79 83 -240q0 -176 -97 -261t-270 -85h-288v19q55 4 68 13.5t13 48.5v499
q0 40 -12.5 48.5t-68.5 12.5v19z" />
    <glyph glyph-name="E" unicode="E" horiz-adv-x="566" 
d="M105 80v500q0 40 -11.5 48t-69.5 13v19h473v-162h-21q-11 78 -44 109t-117 31h-81q-23 0 -29 -5.5t-6 -28.5v-248h115q60 0 84 22t30 72h21v-220h-21q-8 57 -31 79.5t-83 22.5h-115v-230q0 -54 18 -67t102 -13q93 0 136 32.5t61 122.5h21l-20 -177h-493v19q57 4 69 13
t12 48z" />
    <glyph glyph-name="F" unicode="F" horiz-adv-x="539" 
d="M24 660h475v-158h-21q-11 76 -42 106t-110 30h-92q-24 0 -29.5 -5.5t-5.5 -28.5v-266h125q58 0 78 23.5t27 76.5h21v-223h-21q-7 53 -27 77t-78 24h-125v-236q0 -40 14 -48.5t82 -12.5v-19h-271v19q57 4 69 12.5t12 48.5v500q0 40 -11 48t-70 13v19z" />
    <glyph glyph-name="G" unicode="G" horiz-adv-x="699" 
d="M616 226v-206q-133 -36 -221 -36q-153 0 -239 60q-53 37 -84 111.5t-31 167.5q0 169 90 261.5t267 92.5q107 0 210 -35v-155h-21q-15 82 -65.5 126t-130.5 44q-54 0 -96.5 -19.5t-69 -51.5t-44.5 -75t-25 -87t-7 -91q0 -40 5.5 -79.5t22 -86.5t43 -82t74 -58.5
t109.5 -23.5q53 0 86 13q32 13 32 54v156q0 36 -15 45.5t-84 13.5v19h261v-19q-46 -4 -56.5 -13.5t-10.5 -45.5z" />
    <glyph glyph-name="H" unicode="H" horiz-adv-x="720" 
d="M525 340h-326v-247q0 -47 12 -58.5t69 -15.5v-19h-258v19q59 4 71 15.5t12 58.5v474q0 46 -12.5 58t-70.5 16v19h258v-19q-57 -4 -69 -15.5t-12 -58.5v-203h326v203q0 46 -12.5 58t-70.5 16v19h259v-19q-57 -4 -69.5 -16t-12.5 -58v-474q0 -47 12 -58.5t70 -15.5v-19
h-259v19q57 4 70 16.5t13 57.5v247z" />
    <glyph glyph-name="I" unicode="I" horiz-adv-x="303" 
d="M199 580v-500q0 -39 11 -48t70 -13v-19h-256v19q58 4 69.5 13.5t11.5 47.5v500q0 37 -12 47t-69 14v19h256v-19q-58 -4 -69.5 -13t-11.5 -48z" />
    <glyph glyph-name="J" unicode="J" horiz-adv-x="300" 
d="M205 580v-434q0 -93 -21.5 -151t-80.5 -86q-52 -23 -103 -25l-4 19q53 13 80 45q35 41 35 171v461q0 40 -11 49t-70 13v18h255v-18q-58 -4 -69 -13t-11 -49z" />
    <glyph glyph-name="K" unicode="K" horiz-adv-x="644" 
d="M105 80v500q0 40 -11.5 48t-73.5 13v19h263v-19q-62 -5 -73 -13t-11 -48v-500q0 -40 11.5 -48.5t72.5 -12.5v-19h-263v19q62 4 73.5 12.5t11.5 48.5zM455 601q10 13 12 19.5t-1.5 9.5t-13.5 4l-46 7v19h224v-19q-57 -4 -79 -13t-62 -41q-41 -33 -102 -90.5t-108 -109.5
q95 -144 239 -297q60 -66 119 -80l-1 -15l-66 3q-53 3 -90.5 18.5t-75.5 59.5q-47 54 -110.5 140.5t-87.5 123.5v5l8 8q9 8 21 20.5l29 29l35.5 35l38 38l38 38.5l34 35.5l27.5 30t18 21.5z" />
    <glyph glyph-name="L" unicode="L" horiz-adv-x="544" 
d="M199 580v-478q0 -39 6 -53t30.5 -20.5t86.5 -6.5q79 0 120 32t60 130h21l-17 -184h-482v19q58 6 69.5 14t11.5 47v500q0 40 -11.5 48t-69.5 13v19h265v-19q-66 -5 -78 -13t-12 -48z" />
    <glyph glyph-name="M" unicode="M" horiz-adv-x="858" 
d="M232 0h-219v19q40 3 60.5 17t24.5 44q7 45 7 133v365q0 41 -11.5 50t-73.5 13v19h176l122.5 -261l115.5 -243h2q28 58 104 229.5l119 274.5h179v-19q-62 -5 -73.5 -13t-11.5 -48v-500q0 -40 11.5 -48t73.5 -13v-19h-264v19q62 4 73.5 12.5t11.5 48.5v514h-3l-251 -588
h-14l-257 575h-2v-368q0 -85 6 -133q4 -31 25 -44t69 -17v-19z" />
    <glyph glyph-name="N" unicode="N" horiz-adv-x="696" 
d="M600 0h-65l-401 582h-2v-385q0 -67 6 -115q5 -32 25 -45.5t66 -17.5v-19h-215v19q39 3 59.5 17t24.5 44q7 45 7 117v384q0 40 -11.5 47.5t-73.5 12.5v19h167l384 -537l2 -2v343q0 68 -6 114q-5 33 -22.5 46t-71.5 17v19h215v-19q-39 -3 -58 -16.5t-23 -44.5
q-7 -43 -7 -116v-464z" />
    <glyph glyph-name="O" unicode="O" horiz-adv-x="712" 
d="M356 657h-1q-48 0 -85 -21t-59.5 -53.5t-36.5 -77.5t-19 -87t-5 -88q0 -58 9.5 -110.5t31 -103.5t64.5 -81.5t103 -30.5t102.5 30.5t63.5 81.5t30 103t9 111q0 58 -9 110.5t-30.5 104t-64.5 82t-103 30.5zM356 677h1q155 0 234 -94t79 -253t-79 -252.5t-235 -93.5
t-234.5 93.5t-78.5 252.5t79 253t234 94z" />
    <glyph glyph-name="P" unicode="P" horiz-adv-x="559" 
d="M297 0h-274v19q58 4 70 14t12 50v497q0 40 -12 48t-70 13v19h267q110 0 166 -34q69 -45 69 -154q0 -147 -139 -188q-46 -14 -111 -14q-37 0 -76 7v-194q0 -41 13.5 -50.5t84.5 -13.5v-19zM199 605v-272q0 -43 85 -43q68 0 104 45t36 134q0 78 -42 124.5t-114 46.5
q-44 0 -56.5 -7t-12.5 -28z" />
    <glyph glyph-name="Q" unicode="Q" horiz-adv-x="712" 
d="M356 657h-1q-48 0 -85 -21t-59.5 -53.5t-36.5 -77.5t-19 -87t-5 -87q0 -59 9 -111.5t30.5 -103.5t64 -81.5t102.5 -30.5t103 30.5t64.5 81.5t30.5 103.5t9 111.5q0 58 -9 110t-30.5 103.5t-64.5 82t-103 30.5zM356 677h1q155 0 234 -94t79 -252q0 -135 -60.5 -228
t-183.5 -114q22 -41 53 -75q36 -38 73.5 -54.5t62.5 -16.5q15 0 23 1l1 -12q-31 -18 -83 -18q-75 0 -138.5 47.5t-99.5 125.5q-138 9 -206.5 104t-68.5 240q0 157 79.5 251.5t233.5 94.5z" />
    <glyph glyph-name="R" unicode="R" horiz-adv-x="600" 
d="M199 323v-243q0 -40 11 -48.5t72 -12.5v-19h-262v19q62 4 73.5 12.5t11.5 48.5v500q0 40 -11.5 48t-73.5 13v19h273q118 0 169 -40.5t51 -119.5q0 -70 -45 -110.5t-116 -49.5v-6q76 -17 109.5 -58t47.5 -121q10 -69 29 -99.5t71 -36.5v-19h-74q-98 0 -115 90l-25 140
q-11 54 -38 73.5t-93 19.5h-65zM199 593v-250h65q79 0 114 36t35 112q0 77 -42 113t-103 36q-46 0 -57.5 -8t-11.5 -39z" />
    <glyph glyph-name="S" unicode="S" horiz-adv-x="512" 
d="M424 497h-21q-8 74 -49.5 117t-103.5 43q-58 0 -87.5 -35t-29.5 -91q0 -57 34.5 -89t97.5 -59q37 -15 48.5 -20t41 -19t39 -22l28 -24.5t24.5 -32t12 -37.5t6 -49q0 -80 -55.5 -137.5t-170.5 -57.5q-106 0 -183 47l-9 164h21q20 -85 64.5 -138t107.5 -53q66 0 103 34.5
t37 104.5q0 31 -11.5 55t-36 42.5t-43.5 28.5t-53 25q-45 19 -72.5 34t-55.5 38t-41 53t-13 70q0 90 58.5 139t150.5 49q94 0 162 -36v-144z" />
    <glyph glyph-name="T" unicode="T" horiz-adv-x="596" 
d="M344 638v-558q0 -33 10.5 -44.5t46.5 -13.5l47 -3v-19h-301v19l53 4q35 2 43 12.5t8 44.5v558h-64q-79 0 -105.5 -28.5t-35.5 -110.5h-21v161h547v-161h-21q-10 82 -37.5 110.5t-107.5 28.5h-62z" />
    <glyph glyph-name="U" unicode="U" horiz-adv-x="706" 
d="M437 660h255v-20q-58 -5 -69 -13t-11 -48v-343q0 -85 -25 -135q-56 -117 -232 -117q-180 0 -236 114q-24 53 -24 137v345q0 40 -10.5 48t-69.5 13v19h259v-19q-62 -5 -73.5 -13t-11.5 -48v-341q0 -235 166 -235q53 0 88 18.5t51.5 54t22 72.5t5.5 90v341q0 40 -11.5 48
t-73.5 13v19z" />
    <glyph glyph-name="V" unicode="V" horiz-adv-x="624" 
d="M-11 660h243v-19l-44 -5q-18 -2 -23 -8t0 -26l183 -505h3q137 363 166 476q10 33 4.5 47.5t-30.5 16.5l-44 4v19h201v-19q-40 -2 -58.5 -15.5t-35.5 -53.5q-66 -159 -213 -572h-57l-211 585q-15 37 -29 45.5t-55 10.5v19z" />
    <glyph glyph-name="W" unicode="W" horiz-adv-x="910" 
d="M722 660h207v-19q-42 -3 -63.5 -18.5t-31.5 -51.5l-84.5 -304l-73.5 -267h-60q-26 92 -170 547h-1l-74.5 -286.5l-67.5 -260.5h-70q-89 341 -160 581q-12 39 -26 49t-58 12v18h246v-18l-35 -5q-26 -4 -33.5 -13t-1.5 -30l137 -501h1q70 256 141 550h67l165 -540h3
q89 309 122 479q6 30 -4.5 41.5t-36.5 13.5l-38 4v19z" />
    <glyph glyph-name="X" unicode="X" horiz-adv-x="617" 
d="M197 0h-205v19q47 5 63.5 12.5t39.5 39.5q18 23 47.5 66.5l66.5 99.5l57 85l-159 260q-23 38 -40 47.5t-62 11.5v19h245v-19l-46 -6q-26 -3 -8 -31l127 -208h2q80 116 135 210q9 14 7 21.5t-17 8.5l-45 5v19h188v-19q-43 -2 -64.5 -13.5t-48.5 -48.5l-144 -202l187 -299
q21 -34 41 -44.5t71 -14.5v-19h-272v19l53 6q30 3 15 27l-151 250h-3q-110 -169 -148 -244q-16 -30 10 -32l58 -7v-19z" />
    <glyph glyph-name="Y" unicode="Y" horiz-adv-x="574" 
d="M449 0h-294v19q72 4 86 13t14 48v180q0 25 -15 52q-51 100 -162 282q-17 28 -33.5 37.5t-53.5 10.5v18h249v-18l-51 -5q-27 -2 -14 -25q40 -79 161 -295h2q106 206 136 275q19 43 -17 46l-38 4v18h189v-18q-44 -2 -64 -17.5t-47 -57.5q-60 -101 -134 -251
q-14 -27 -14 -58v-178q0 -39 14 -48t86 -13v-19z" />
    <glyph glyph-name="Z" unicode="Z" horiz-adv-x="596" 
d="M44 660h507l3 -8l-423 -630h208q110 0 154.5 32.5t58.5 121.5h21l-20 -175l-535 -1l-4 11q291 416 427 627h-203q-55 0 -87.5 -7t-50 -28t-24 -44.5t-11.5 -70.5h-21v172z" />
    <glyph glyph-name="bracketleft" unicode="[" horiz-adv-x="293" 
d="M166 664v-769q0 -33 13.5 -41t77.5 -11v-25h-148v923h148v-26q-64 -2 -77.5 -10t-13.5 -41z" />
    <glyph glyph-name="backslash" unicode="\" horiz-adv-x="364" 
d="M282 -82l-235 767l37 12l234 -767z" />
    <glyph glyph-name="bracketright" unicode="]" horiz-adv-x="293" 
d="M128 -105v769q0 33 -14 41t-77 10v26h147v-923h-147v25q63 3 77 11.5t14 40.5z" />
    <glyph glyph-name="asciicircum" unicode="^" horiz-adv-x="445" 
d="M407 293h-55l-128 287l-132 -287h-54l163 346h47z" />
    <glyph glyph-name="underscore" unicode="_" horiz-adv-x="470" 
d="M470 -71v-47h-470v47h470z" />
    <glyph glyph-name="grave" unicode="`" horiz-adv-x="376" 
d="M211 507l-100 83q-4 4 -12.5 10.5t-12 10l-8.5 8.5t-7 9.5t-2 9.5q0 12 10.5 22.5t21.5 10.5q12 0 22 -10.5t27 -36.5l70 -109z" />
    <glyph glyph-name="a" unicode="a" horiz-adv-x="474" 
d="M396 346v-235q0 -74 28 -81q22 -6 39 -2l1 -12q-43 -28 -89 -28q-27 0 -41 15t-21 49q-2 -1 -19.5 -13.5t-27.5 -18l-27 -15t-34 -13.5t-33 -4q-65 0 -98.5 38.5t-33.5 95.5q0 76 88 103q11 3 32 9.5l33.5 10.5l31 10t30 10.5l24.5 10t21.5 10.5t13.5 10v51
q0 108 -83 108q-81 0 -94 -108q-2 -11 -7 -15.5t-19 -4.5q-18 0 -36 11t-18 32q0 38 53 70.5t131 32.5q50 0 83.5 -11.5t48 -32.5t19 -39.5t4.5 -43.5zM314 120v153q-9 -6 -27.5 -13.5t-44.5 -17t-38 -14.5q-38 -14 -54.5 -36t-16.5 -56q0 -44 24.5 -75.5t66.5 -31.5
q34 0 62 20.5t28 70.5z" />
    <glyph glyph-name="b" unicode="b" horiz-adv-x="531" 
d="M70 637q0 30 -6 39.5t-25 11.5l-32 6v15l145 18l3 -2v-321q5 3 29 19t38.5 24.5t40.5 17t50 8.5q39 0 70 -12.5t50 -34t31.5 -45t18 -52t7.5 -48.5t2 -40q0 -135 -63 -194t-168 -59q-76 0 -142 36l-42 -35l-7 3v645zM155 321v-186q0 -39 7 -58q22 -70 101 -70
q67 0 100.5 60.5t33.5 166.5q0 57 -13 99t-33 61.5t-38.5 28t-35.5 8.5q-84 0 -112 -59q-10 -19 -10 -51z" />
    <glyph glyph-name="c" unicode="c" horiz-adv-x="452" 
d="M417 131l13 -7q-19 -70 -69.5 -103t-108.5 -33q-213 0 -213 239q0 68 19.5 120.5t71.5 89t133 36.5q73 0 115.5 -28t42.5 -64q0 -25 -15 -37t-33 -12q-25 0 -30 22q-10 47 -29 73t-62 26q-51 0 -84 -53.5t-33 -156.5q0 -38 6.5 -73t21 -68.5t42.5 -53.5t67 -20
q108 0 145 103z" />
    <glyph glyph-name="d" unicode="d" horiz-adv-x="539" 
d="M376 637q0 31 -6 40t-24 11l-41 6v15l154 18l3 -2v-649q0 -36 9.5 -44.5t54.5 -12.5v-19h-151v55q-83 -67 -148 -67q-91 0 -139.5 61t-48.5 172q0 119 65 187q63 65 169 65q59 0 103 -22v186zM376 139v204q0 38 -9 55q-24 55 -94 55q-68 0 -103 -61.5t-35 -159.5
q0 -86 34 -145t95 -59q83 0 105 58q7 19 7 53z" />
    <glyph glyph-name="e" unicode="e" horiz-adv-x="469" 
d="M396 248h-261q-1 -41 5 -77t20 -70t43.5 -54t70.5 -20q34 0 59 9.5t41 28t24 32.5t17 36l15 -6q-42 -139 -177 -139q-114 0 -164 61t-50 178q0 111 53 178.5t160 67.5q49 0 85 -15t54 -35t28.5 -49.5t13 -49t2.5 -41.5q0 -35 -39 -35zM135 270h172q23 0 30 12t7 37
q0 19 -3 38t-12 42.5t-30.5 38.5t-52.5 15q-34 0 -58 -22t-34.5 -55.5t-14.5 -59t-4 -46.5z" />
    <glyph glyph-name="f" unicode="f" horiz-adv-x="259" 
d="M256 431h-85v-359q0 -35 9.5 -40.5t67.5 -12.5v-19h-229v19q49 3 57.5 10t8.5 44v358h-61v30h61v57q0 57 13 101.5t50 76t94 31.5q47 0 69.5 -20t22.5 -40q0 -17 -12 -27.5t-27 -10.5q-20 0 -27 21q-12 35 -22.5 46t-25.5 11q-12 0 -22 -9t-18.5 -37.5t-8.5 -74.5v-125
h85v-30z" />
    <glyph glyph-name="g" unicode="g" horiz-adv-x="462" 
d="M348 444l119 26l4 -5l-19 -48l-80 1q35 -37 35 -106q0 -82 -53.5 -119.5t-130.5 -37.5q-43 0 -62 4q-40 -13 -40 -43q0 -47 79 -47h89q82 0 126.5 -30.5t44.5 -106.5q0 -90 -78 -141q-63 -42 -158 -42q-92 0 -148.5 35t-56.5 107q0 75 108 105v2q-79 19 -79 83
q0 27 25 48.5t65 34.5v2q-40 10 -69 45.5t-29 102.5q0 29 9 55t29.5 50.5t59 39t90.5 14.5q79 0 120 -29zM227 453h-1q-44 0 -69.5 -36.5t-25.5 -107.5q0 -60 25 -98t70 -38t69 37.5t24 98.5q0 68 -24 106t-68 38zM245 -229h1q63 0 101 32t38 92q0 97 -146 97
q-90 0 -116 -18q-19 -13 -29 -28.5t-10 -47.5q0 -58 49.5 -92.5t111.5 -34.5z" />
    <glyph glyph-name="h" unicode="h" horiz-adv-x="541" 
d="M78 77v560q0 31 -5.5 40t-23.5 11l-30 6v15l143 18l2 -1v-328q3 2 17.5 12.5t18 12.5t16.5 11t18.5 11.5t17 8.5t19 8t18.5 5.5t21.5 4.5t21.5 1q65 0 99 -39t34 -111v-246q0 -35 10 -44.5t55 -13.5v-19h-219v19q46 3 57.5 13t11.5 45v243q0 111 -97 111q-79 0 -111 -59
q-8 -16 -8 -50v-245q0 -35 11 -44.5t57 -13.5v-19h-218v19q44 3 54 13t10 45z" />
    <glyph glyph-name="i" unicode="i" horiz-adv-x="248" 
d="M127 649h1q21 0 34 -13.5t13 -34.5q-1 -22 -13.5 -35t-34.5 -13t-35 13t-13 35q0 21 13.5 34.5t34.5 13.5zM85 77v304q0 27 -6.5 35.5t-28.5 12.5l-25 3v16l143 24l3 -2v-393q0 -38 9.5 -46t55.5 -12v-19h-215v19q47 5 55.5 12t8.5 46z" />
    <glyph glyph-name="j" unicode="j" horiz-adv-x="240" 
d="M127 649h1q21 0 34 -13.5t13 -34.5q-1 -22 -13.5 -35t-34.5 -13t-35 13t-13 35q0 21 13.5 34.5t34.5 13.5zM171 469v-453q0 -161 -49 -214t-144 -53l-2 13q36 7 54 22t32 43q23 45 23 200v358q0 23 -6 31t-24 11l-30 5v16l143 24z" />
    <glyph glyph-name="k" unicode="k" horiz-adv-x="479" 
d="M78 75v562q0 30 -5.5 39.5t-23.5 12.5l-31 5v15l143 18l3 -2v-650q0 -35 10 -44t54 -13v-18h-215v18q46 4 55.5 12.5t9.5 44.5zM172 249q132 168 158 197q13 15 29 15h98v-18q-93 -12 -119 -34q-30 -26 -102 -113q-4 -6 0 -12q103 -152 173 -217q55 -51 81 -59v-13l-67 3
q-63 2 -103 44q-60 60 -148 201v6z" />
    <glyph glyph-name="l" unicode="l" horiz-adv-x="241" 
d="M78 73v564q0 29 -5.5 39t-23.5 13l-31 5v15l144 18l2 -1v-653q0 -35 9 -42.5t55 -11.5v-19h-215v19q47 3 56 10.5t9 43.5z" />
    <glyph glyph-name="m" unicode="m" horiz-adv-x="838" 
d="M85 82v295q0 30 -5.5 39.5t-25.5 12.5l-30 3v16l133 24l15 -72q5 4 20 14.5l20 14t18 11.5t20 11.5t19 8.5t21.5 7t21.5 4t25 2q90 0 120 -80q5 4 20 15t21 15l19.5 13t21 12.5l20.5 9.5t23 8.5t22.5 4.5t25.5 2q65 0 98 -39t33 -111v-241q0 -39 10.5 -49t54.5 -14v-19
h-221v19q48 3 59 13t11 50v237q0 112 -97 112q-57 0 -96 -46q-7 -9 -9.5 -14t-5 -17t-2.5 -33v-239q0 -39 11.5 -49t58.5 -14v-19h-225v19q48 3 59 13t11 50v237q0 112 -93 112q-36 0 -65.5 -17t-40.5 -42q-10 -19 -10 -51v-239q0 -39 11 -49t59 -14v-19h-221v19
q48 3 56.5 13t8.5 50z" />
    <glyph glyph-name="n" unicode="n" horiz-adv-x="551" 
d="M473 323v-241q0 -41 9.5 -50t55.5 -13v-19h-218v19q47 3 57 12t10 51v238q0 111 -97 111q-36 0 -66.5 -17t-42.5 -41q-10 -19 -10 -51v-240q0 -41 9.5 -50t56.5 -13v-19h-217v19q45 3 55 12.5t10 50.5v295q0 32 -5 40.5t-26 11.5l-30 3v16l133 24l13 -73l32.5 21t34.5 22
t29.5 15t36.5 12.5t37 3.5q65 0 99 -39t34 -111z" />
    <glyph glyph-name="o" unicode="o" horiz-adv-x="520" 
d="M259 473h1q220 0 220 -243q0 -242 -221 -242q-111 0 -165.5 62.5t-54.5 179.5t54.5 180t165.5 63zM135 230v-1q0 -104 31.5 -163t92.5 -59q63 0 94.5 59t31.5 164q0 104 -31.5 163.5t-94.5 59.5q-61 0 -92.5 -59.5t-31.5 -163.5z" />
    <glyph glyph-name="p" unicode="p" horiz-adv-x="539" 
d="M78 -163v546q0 27 -6 34.5t-27 10.5l-27 4v16l133 24l13 -71l23 16t30.5 20.5t29.5 16.5t38 14.5t38 4.5q177 0 177 -230q0 -134 -64 -194.5t-169 -60.5q-65 0 -103 20v-171q0 -38 11.5 -46.5t71.5 -11.5v-19h-239v19q50 3 60 11.5t10 46.5zM164 317v-185q0 -40 6 -57
q10 -32 37 -50t63 -18q68 0 101.5 60.5t33.5 166.5q0 57 -13.5 99t-34 62t-39 29t-35.5 9q-79 0 -109 -62q-10 -20 -10 -54z" />
    <glyph glyph-name="q" unicode="q" horiz-adv-x="531" 
d="M462 472v-637q0 -35 10.5 -44t58.5 -12v-19h-231v19q52 3 63.5 11.5t11.5 44.5v217q-85 -64 -147 -64q-88 0 -138.5 58t-50.5 173q0 121 66 189q65 65 172 65q68 0 123 -31l52 30h10zM375 134l1 201q0 33 -8 53q-24 65 -100 65q-67 0 -100 -62t-33 -160q0 -86 34.5 -145
t99.5 -59q30 0 59 13.5t40 42.5q7 18 7 51z" />
    <glyph glyph-name="r" unicode="r" horiz-adv-x="349" 
d="M171 312v-235q0 -35 12 -44.5t69 -13.5v-19h-231v19q45 3 54.5 12t9.5 46v306q0 24 -7 33.5t-25 12.5l-28 3v16l135 24l11 -79l53 47t33.5 23t34.5 10q26 0 38.5 -14t12.5 -33q0 -22 -13.5 -38.5t-31.5 -16.5q-14 0 -22 8q-22 28 -50 28q-23 0 -39 -22.5t-16 -72.5z" />
    <glyph glyph-name="s" unicode="s" horiz-adv-x="402" 
d="M337 325h-16q-32 128 -121 128q-35 0 -57.5 -22.5t-22.5 -59.5q0 -39 25 -59t76 -37q81 -29 114 -56.5t33 -84.5q0 -63 -50 -104.5t-133 -41.5q-66 0 -132 31l-10 136h17q16 -66 49.5 -107t86.5 -41q41 0 68 21.5t27 63.5q0 38 -26 60.5t-75 39.5q-69 24 -105 54t-36 83
q0 66 45 105t120 39q67 0 123 -27v-121z" />
    <glyph glyph-name="t" unicode="t" horiz-adv-x="291" 
d="M276 431h-112v-308q0 -49 17.5 -71.5t44.5 -22.5q33 0 56 10l5 -12q-58 -39 -110 -39q-99 0 -99 106v337h-61v30h65l63 118h19v-118h112v-30z" />
    <glyph glyph-name="u" unicode="u" horiz-adv-x="541" 
d="M527 0h-141l-9 61l-18 -12.5l-23.5 -16.5t-26 -15.5t-31.5 -15t-33.5 -9.5t-38.5 -4q-128 0 -128 141v254q0 28 -6 37t-29 14l-24 5v16l142 15l3 -3v-333q0 -52 26 -78t69 -26q82 0 111 61q8 16 8 57v235q0 26 -6 35.5t-28 13.5l-28 5v16l145 17l2 -3v-387
q0 -38 9.5 -47.5t54.5 -13.5v-19z" />
    <glyph glyph-name="v" unicode="v" horiz-adv-x="447" 
d="M253 0h-58l-144 397q-10 25 -22.5 33.5t-45.5 11.5v19h210v-19l-35 -5q-19 -2 -23 -7.5t1 -25.5l117 -333h3q54 153 110 329q5 20 0.5 27.5t-21.5 9.5l-36 5v19h162v-19q-32 -2 -46 -11.5t-26 -39.5q-59 -140 -146 -391z" />
    <glyph glyph-name="w" unicode="w" horiz-adv-x="711" 
d="M-9 461h197v-19l-29 -3q-15 -2 -19.5 -9t-0.5 -23q12 -46 29.5 -104l38.5 -128.5l32 -107.5h2q42 151 101 383h66l121 -383h2q73 265 88 333q5 16 0.5 25t-20.5 11l-45 6v19h173v-19q-36 -2 -51 -13.5t-25 -46.5l-119 -382h-67l-118 371h-3l-100 -371h-68
q-37 129 -122 398q-9 26 -21 34t-42 10v19z" />
    <glyph glyph-name="x" unicode="x" horiz-adv-x="446" 
d="M463 0h-219v19l39 5q11 2 12 4.5t-6 15.5q-27 50 -88 152h-2q-77 -116 -95 -152q-4 -12 -0.5 -15.5t16.5 -4.5l36 -5v-19h-168v19q42 3 56 9t31 29q19 25 113 158l-124 198l-8.5 11.5t-8 7.5t-7.5 4.5t-9.5 3t-9.5 1.5t-12.5 0.5t-14.5 0.5v19h194v-19l-28 -3
q-17 -1 -9 -18q48 -83 84 -138h1q57 86 83 137q8 15 -11 18l-32 4v19h161v-19q-28 -1 -38.5 -2.5t-23 -8t-24.5 -21.5q-33 -41 -103 -143q16 -24 62.5 -101.5t71.5 -112.5q16 -23 29 -27.5t52 -6.5v-19z" />
    <glyph glyph-name="y" unicode="y" horiz-adv-x="467" 
d="M318 461h166v-19q-36 -2 -47 -9t-25 -36q-14 -31 -41.5 -109l-73.5 -211.5l-60 -173.5q-17 -49 -35.5 -82t-37 -47.5t-32.5 -19.5t-31 -5q-28 0 -44.5 14t-16.5 33q0 20 14 37t28 17q8 0 13 -5q22 -25 51 -25q21 0 39.5 27.5t39.5 98.5q5 20 -12 60q-45 131 -153 393
q-9 21 -17.5 29.5t-18.5 10.5t-36 3v19h219v-19l-37 -4q-15 -1 -18.5 -6t0.5 -18l63 -168.5l60 -158.5h1q84 238 104 322q6 25 -22 28l-40 5v19z" />
    <glyph glyph-name="z" unicode="z" horiz-adv-x="445" 
d="M411 461l4 -8l-282 -433h128q75 0 105 27.5t43 98.5h22l-18 -146h-385l-5 10l90.5 132.5l112 170.5l83.5 128h-113q-74 0 -97.5 -24t-34.5 -101h-21v145h368z" />
    <glyph glyph-name="braceleft" unicode="{" horiz-adv-x="320" 
d="M282 747v-18q-45 -2 -67.5 -23.5t-24.5 -53t1 -71.5l9 -88q10 -89 1 -122q-18 -65 -110 -79v-7q61 -9 88.5 -39.5t26.5 -69t-5 -83.5q-1 -8 -1 -12l-9 -88q-3 -40 -1.5 -75t24.5 -60t68 -27v-19h-21q-41 0 -70 14.5t-43 35.5t-20.5 52.5t-6 58t4.5 59.5l12 107
q8 72 -16.5 104.5t-90.5 32.5v21q66 -1 90.5 35t16.5 102l-12 107q-7 36 -4 72.5t13.5 66t42.5 48.5t83 19h21z" />
    <glyph glyph-name="bar" unicode="|" horiz-adv-x="208" 
d="M76 -235v940h56v-940h-56z" />
    <glyph glyph-name="braceright" unicode="}" horiz-adv-x="320" 
d="M289 297v-21q-67 1 -90.5 -34.5t-17.5 -102.5l12 -107q7 -36 3.5 -74.5t-13.5 -71t-42 -53.5t-83 -21h-21v19q45 2 68 26.5t25 59.5t-1 75l-10 89q0 3 -1 10q-3 45 -3.5 83.5t27 68t87.5 38.5v8q-99 15 -113 90q-5 29 3 114l10 87q3 40 1 72t-25 53.5t-68 23.5v18h21
q51 0 83 -19t42 -48.5t13 -66t-3 -72.5l-12 -107q-8 -73 17 -105t91 -32z" />
    <glyph glyph-name="asciitilde" unicode="~" horiz-adv-x="471" 
d="M405 290l25 -25q-25 -42 -49.5 -62.5t-63.5 -20.5q-26 0 -88 31q-43 24 -73 24q-50 0 -92 -60l-24 25q49 80 122 80q13 0 27 -3.5t20.5 -6t23 -11.5t20.5 -11q48 -24 70 -24q27 0 42.5 13.5t39.5 50.5z" />
    <glyph glyph-name="uni00A0" unicode="&#xa0;" horiz-adv-x="190" 
 />
    <glyph glyph-name="exclamdown" unicode="&#xa1;" horiz-adv-x="230" 
d="M105 267h19l46 -397q4 -34 -7.5 -53t-48.5 -19q-39 0 -49.5 18t-7.5 54zM111 472h2q22 0 36 -15.5t14 -37.5q0 -23 -14.5 -38.5t-37.5 -15.5t-36.5 15.5t-13.5 38.5q1 23 14.5 38t35.5 15z" />
    <glyph glyph-name="cent" unicode="&#xa2;" horiz-adv-x="499" 
d="M261 562v72h24v-72q86 -1 126.5 -32.5t40.5 -64.5q0 -20 -13.5 -32t-32.5 -12q-22 0 -26 24q-8 52 -34 75t-61 23v-424q118 0 164 111l12 -6q-22 -69 -69 -103.5t-107 -38.5v-90h-24v90q-225 0 -225 242q0 116 64.5 174t160.5 64zM261 122v421q-21 0 -41 -8t-41.5 -28
t-34.5 -64t-13 -108q0 -84 33.5 -144t96.5 -69z" />
    <glyph glyph-name="sterling" unicode="&#xa3;" horiz-adv-x="499" 
d="M439 0h-396l-4 7l16 28q51 16 72 55t21 102q0 43 -22 107h-88v25h78q-23 76 -23 139q0 80 50.5 128t130.5 48q75 0 114.5 -30.5t39.5 -70.5q0 -19 -14 -30t-29 -11q-23 0 -27 18q-13 60 -36.5 82.5t-62.5 22.5q-86 0 -86 -115q0 -79 37 -181h153v-25h-148
q14 -75 -3 -128.5t-77 -97.5v-3h259q20 0 32 12.5t39 64.5l15 -7z" />
    <glyph glyph-name="currency" unicode="&#xa4;" horiz-adv-x="499" 
d="M253 496h1q67 0 101 -34l47 61l41 -38l-56 -57q33 -42 33 -114q0 -65 -35 -111l60 -52l-44 -47l-48 65q-38 -37 -103 -37q-73 0 -106 33l-46 -59l-41 42l53 49q-31 53 -31 117q0 69 34 113l-58 57l40 41l51 -64q35 35 107 35zM250 456h-1q-51 0 -82.5 -36t-31.5 -103
q0 -70 31.5 -107.5t86.5 -37.5q51 0 81.5 35t30.5 107q0 65 -32 103.5t-83 38.5z" />
    <glyph glyph-name="yen" unicode="&#xa5;" horiz-adv-x="499" 
d="M381 0h-261v19q64 3 76.5 11t12.5 42v136h-124v25h124v70h-124v25h119l-127 243q-17 32 -40 35l-25 3v19h204v-19l-44 -4q-23 -2 -11 -23l118 -238h2q32 69 97 229q11 29 -9 30l-52 6v19h168v-19l-26 -4q-20 -2 -30 -10.5t-23 -32.5q-33 -65 -110 -234h123v-25h-127v-70
h127v-25h-127v-136q0 -34 13 -41.5t76 -11.5v-19z" />
    <glyph glyph-name="brokenbar" unicode="&#xa6;" horiz-adv-x="208" 
d="M76 635h56v-329h-56v329zM76 -165v330h56v-330h-56z" />
    <glyph glyph-name="section" unicode="&#xa7;" horiz-adv-x="481" 
d="M269 319q-67 37 -108.5 72t-46.5 75q-14 -13 -22 -43.5t-8 -55.5q0 -46 32 -91t97 -80q150 -77 163 -143q20 46 20 93q0 100 -127 173zM42 321v1q0 39 18 84t50 80q0 52 37.5 90.5t117.5 38.5q55 0 86.5 -19t31.5 -49q0 -17 -12.5 -26.5t-26.5 -9.5q-21 0 -25 14
q-10 41 -28.5 57t-48.5 16q-72 0 -72 -78q0 -17 4.5 -30t32 -38.5t79.5 -52.5q87 -46 119.5 -92.5t32.5 -114.5q0 -81 -59 -161q3 -68 -38.5 -108.5t-116.5 -40.5q-63 0 -100 24t-38 55q0 18 11.5 29.5t28.5 11.5q20 0 25 -17q10 -48 33.5 -65.5t61.5 -17.5q31 0 52.5 20
t21.5 56q0 24 -6 41t-37.5 46t-92.5 62q-83 46 -112.5 91t-29.5 103z" />
    <glyph glyph-name="dieresis" unicode="&#xa8;" horiz-adv-x="376" 
d="M98 649h1q21 0 33.5 -13.5t12.5 -34.5q-1 -21 -13.5 -34t-33.5 -13q-22 0 -35 13t-13 34t13.5 34.5t34.5 13.5zM278 649h1q21 0 34 -13.5t12 -34.5q0 -21 -12.5 -34t-34.5 -13t-35 13t-13 34t13.5 34.5t34.5 13.5z" />
    <glyph glyph-name="copyright" unicode="&#xa9;" horiz-adv-x="641" 
d="M321 33h-1q-124 0 -203 82.5t-79 209.5q0 124 78.5 208.5t204.5 84.5q124 0 203 -84.5t79 -208.5t-78 -208t-204 -84zM321 595h-1q-117 0 -184.5 -72.5t-67.5 -197.5q0 -112 73 -191t180 -79q115 0 183 73t68 197q0 112 -73 191t-178 79zM445 386h-12q-15 92 -97 92
q-52 0 -77.5 -42.5t-25.5 -101.5q0 -62 26 -109t83 -47q75 0 99 94h12l-13 -85q-47 -21 -107 -21q-86 0 -127 43.5t-41 117.5q0 75 44 119t128 44q62 0 108 -22v-82z" />
    <glyph glyph-name="ordfeminine" unicode="&#xaa;" horiz-adv-x="305" 
d="M245 472v-126q0 -29 9.5 -38.5t38.5 -8.5l1 -10q-38 -17 -68 -17q-17 0 -25 7.5t-14 24.5q-56 -33 -85 -33q-36 0 -54.5 21.5t-18.5 54.5q0 24 10.5 38.5t47.5 26.5q63 19 100 33v25q0 59 -45 59q-20 0 -30 -13t-20 -46q-5 -17 -21 -17q-13 0 -22.5 7.5t-9.5 19.5
q0 24 30.5 45t79.5 21q96 0 96 -74zM187 351v78q-15 -3 -52 -18q-44 -18 -44 -58q0 -23 14 -38.5t39 -15.5q43 0 43 52z" />
    <glyph glyph-name="guillemotleft" unicode="&#xab;" horiz-adv-x="410" 
d="M199 414l12 -10l-92 -164q-6 -10 0 -20l92 -164l-12 -11l-159 177q-8 9 0 17zM360 414l11 -10l-93 -164q-5 -9 0 -20l93 -164l-11 -11l-161 177q-6 9 0 17z" />
    <glyph glyph-name="logicalnot" unicode="&#xac;" horiz-adv-x="471" 
d="M370 111v185h-335v43h386v-228h-51z" />
    <glyph glyph-name="uni00AD" unicode="&#xad;" horiz-adv-x="295" 
d="M38 256h220v-47h-220v47z" />
    <glyph glyph-name="registered" unicode="&#xae;" horiz-adv-x="206" 
d="M112 545h-41v5l8 1q4 1 4 6v56q0 5 -4 6h-8v5h43q28 0 28 -19q0 -17 -19 -20v-2q13 -5 17 -18q5 -13 12 -15v-5h-8q-16 0 -20 10q-1 2 -3 7.5t-3 7.5q0 1 -1 3.5t-2 4t-3.5 3t-5.5 1.5h-5v-25q0 -5 3 -6l8 -1v-5zM101 613v-26h6q8 0 13 5t5 11q0 16 -16 16q-8 0 -8 -6z
M108 499h-1q-31 0 -54 24.5t-23 58.5t23 58.5t55 24.5q33 0 56 -24t23 -59q0 -34 -23 -58.5t-56 -24.5zM44 582v-1q0 -30 18.5 -51t45.5 -21t46 21t19 52q0 30 -19 51.5t-46 21.5t-45.5 -21.5t-18.5 -51.5z" />
    <glyph glyph-name="macron" unicode="&#xaf;" horiz-adv-x="376" 
d="M70 617h235v-48h-235v48z" />
    <glyph glyph-name="degree" unicode="&#xb0;" horiz-adv-x="292" 
d="M146 416h-1q-47 0 -77 29t-30 83q0 50 30.5 80.5t77.5 30.5q48 0 78.5 -29.5t30.5 -81.5t-31 -82t-78 -30zM145 613h-1q-61 0 -61 -85t63 -85q64 0 64 85t-65 85z" />
    <glyph glyph-name="plusminus" unicode="&#xb1;" horiz-adv-x="457" 
d="M43 263v43h170v173h48v-173h169v-43h-169v-181h-48v181h-170zM43 0v42h387v-42h-387z" />
    <glyph glyph-name="two.superior" unicode="&#xb2;" 
d="M268 418h-239l-4 6q4 29 34 67.5t84 74.5q66 45 66 120q0 32 -13 55t-42 23q-30 0 -45 -20.5t-23 -63.5q-4 -20 -23 -20q-14 0 -22.5 9t-8.5 24q0 32 34.5 59t92.5 27q57 0 87.5 -26.5t30.5 -75.5q0 -42 -23 -64.5t-88 -58.5q-81 -44 -94 -82h157q19 0 27.5 9t23.5 41
l15 -5z" />
    <glyph glyph-name="three.superior" unicode="&#xb3;" 
d="M87 606v1q0 16 18 16q9 0 27 -2.5t28 -2.5q41 0 41 70q0 76 -50 76q-47 0 -63 -76q-3 -16 -17 -16t-24 8.5t-10 23.5q0 27 33 51t86 24q48 0 80 -20.5t32 -66.5q0 -19 -7 -33t-14 -21.5t-23.5 -14.5t-20.5 -8l-21 -5v-1q15 -1 29.5 -4.5t33.5 -12.5t30.5 -27t11.5 -44
q0 -108 -138 -108q-55 0 -89 20t-34 49q0 16 11.5 26.5t26.5 10.5q12 0 19 -18q11 -36 28 -54.5t45 -18.5q60 0 60 90q0 43 -18.5 61t-36.5 18q-16 0 -35 -3.5t-21 -3.5q-18 0 -18 16z" />
    <glyph glyph-name="acute" unicode="&#xb4;" horiz-adv-x="376" 
d="M171 507l-9 8l69 109q17 26 27 36.5t22 10.5q11 0 21.5 -10.5t10.5 -22.5q0 -5 -2 -9.5t-7 -9.5l-8.5 -8.5t-12 -10t-12.5 -10.5z" />
    <glyph glyph-name="mu" unicode="&#xb5;" horiz-adv-x="561" 
d="M234 -11h-1q-45 0 -73 28q0 -26 1.5 -71.5t4 -97.5t3.5 -70l-4 -7q-64 0 -88 37l12 277v376h86v-323q0 -53 26.5 -80t69.5 -27q73 0 108 69q7 13 7 57v304h86v-389q0 -42 38 -42q18 0 42 24l7 -8q-36 -55 -106 -55q-37 0 -52 20t-16 61q-24 -25 -40.5 -39.5t-47 -29
t-63.5 -14.5z" />
    <glyph glyph-name="paragraph" unicode="&#xb6;" horiz-adv-x="519" 
d="M350 -189q0 25 4 142.5t4 273.5q0 197 -3 300l-42 -2q-32 -2 -51.5 -49.5t-19.5 -145.5q0 -103 18.5 -148.5t70.5 -62.5v-16q-17 -5 -47 -5q-122 0 -182 51t-60 186q0 59 19.5 104.5t50 69.5t59.5 35.5t54 11.5h130q0 9 -0.5 24.5t-0.5 22.5l40 14v-61h98v-16l-99 -9
q-4 -144 -4 -300q0 -158 4.5 -283.5t4.5 -136.5h-48z" />
    <glyph glyph-name="periodcentered" unicode="&#xb7;" horiz-adv-x="180" 
d="M90 178h-1q-24 0 -37.5 15t-13.5 39q0 25 14 41t38 16t38.5 -16t13.5 -41q0 -24 -14 -39t-38 -15z" />
    <glyph glyph-name="cedilla" unicode="&#xb8;" horiz-adv-x="378" 
d="M191 0h20l-33 -52q85 -10 85 -75q0 -26 -10.5 -44t-27 -26t-30.5 -11t-28 -3q-26 0 -51 14l3 15q12 -5 31 -5q48 0 48 53q0 49 -59 52l-1 5z" />
    <glyph glyph-name="one.superior" unicode="&#xb9;" 
d="M261 418h-193v16l44 5q13 2 17.5 6.5t4.5 18.5v254q0 22 -13 23l-52 6v13l122 19l4 -3v-312q0 -13 4.5 -18t16.5 -7l45 -5v-16z" />
    <glyph glyph-name="ordmasculine" unicode="&#xba;" horiz-adv-x="321" 
d="M160 546h1q131 0 131 -137t-132 -137t-132 137q0 65 33.5 101t98.5 36zM160 529h-1q-66 0 -66 -120q0 -121 67 -121t67 121q0 120 -67 120z" />
    <glyph glyph-name="guillemotright" unicode="&#xbb;" horiz-adv-x="410" 
d="M50 45l-11 10l93 163q5 10 0 20l-93 165l11 11l161 -178q8 -8 0 -17zM211 45l-12 10l93 163q6 10 0 20l-93 165l12 11l160 -178q9 -8 0 -17z" />
    <glyph glyph-name="onequarter" unicode="&#xbc;" horiz-adv-x="716" 
d="M262 278h-192v16l43 5q13 2 17.5 6.5t4.5 18.5v254q0 22 -13 23l-52 6v13l122 19l4 -3v-312q0 -13 4.5 -18t16.5 -7l45 -5v-16zM155 -32l-19 14l411 675l20 -11zM515 102h-149l-6 15q114 170 168 236h47v-228h57v-23h-57v-59q0 -12 4.5 -16t15.5 -6l29 -5v-16h-167v16
l40 5q18 1 18 22v59zM393 125h122v183h-2q-98 -144 -120 -183z" />
    <glyph glyph-name="onehalf" unicode="&#xbd;" horiz-adv-x="716" 
d="M250 278h-192v16l43 5q13 2 18 7t5 18v254q0 22 -13 23l-53 6v13l123 19l3 -3v-312q0 -13 5 -18t17 -7l44 -5v-16zM142 -33l-18 15l410 675l21 -11zM643 0h-239l-4 6q4 29 34 67t83 75q67 45 67 119q0 78 -55 78q-31 0 -45.5 -20.5t-22.5 -63.5q-4 -20 -23 -20
q-14 0 -23 9t-9 24q0 32 34.5 59t93.5 27q57 0 87.5 -26.5t30.5 -75.5q0 -42 -23.5 -64.5t-88.5 -58.5q-81 -45 -94 -81h158q19 0 27.5 9t23.5 41l14 -5z" />
    <glyph glyph-name="threequarters" unicode="&#xbe;" horiz-adv-x="716" 
d="M107 466v1q0 16 19 16q10 0 27.5 -2.5t26.5 -2.5q42 0 42 70q0 76 -50 76q-47 0 -63 -76q-3 -16 -18 -16q-14 0 -24 8.5t-10 23.5q0 27 33.5 51t86.5 24q48 0 80 -20.5t32 -66.5q0 -23 -8 -38.5t-26 -24.5t-25.5 -11.5t-27.5 -7.5v-1q15 -1 30 -4.5t33.5 -12.5t30 -27
t11.5 -44q0 -108 -139 -108q-55 0 -88.5 20t-33.5 49q0 16 11.5 26.5t26.5 10.5q12 0 19 -18q11 -37 27.5 -55t45.5 -18q60 0 60 90q0 43 -18.5 61t-37.5 18q-16 0 -34.5 -3.5t-20.5 -3.5q-18 0 -18 16zM175 -32l-19 14l411 675l21 -11zM531 102h-150l-5 15q99 151 168 236
h48v-228h56v-23h-56v-59q0 -12 4 -16t15 -6l29 -5v-16h-167v16l40 5q18 1 18 22v59zM408 125h123v183h-2q-99 -145 -121 -183z" />
    <glyph glyph-name="questiondown" unicode="&#xbf;" horiz-adv-x="407" 
d="M200 472h1q22 0 36 -15.5t14 -38.5q0 -22 -14 -37.5t-37 -15.5t-37 15.5t-13 38.5q0 23 13.5 38t36.5 15zM189 261h1q42 0 64.5 -23.5t22.5 -60.5q0 -27 -19 -56t-59 -72q-75 -75 -75 -135q0 -45 20.5 -73.5t58.5 -28.5q79 0 80 120q0 14 5.5 22t11.5 9.5t15 1.5
q55 0 55 -52q0 -38 -44.5 -78t-131.5 -40q-76 0 -115 38.5t-39 102.5q0 46 17.5 73.5t76.5 81.5q59 52 59 86q0 22 -16 36.5t-35 14.5h-16l-1 12q34 21 64 21z" />
    <glyph glyph-name="Agrave" unicode="&#xc0;" horiz-adv-x="646" 
d="M654 0h-248v20l37 4q22 2 27.5 12.5t-2.5 31.5l-69 199h-217q-43 -140 -50 -167q-12 -42 -6.5 -58t30.5 -18l48 -5v-19h-205v19q46 2 63 18.5t41 80.5q47 127 186 546h65l209 -585q13 -36 27.5 -45t63.5 -14v-20zM391 290q-80 239 -103 300h-3q-78 -246 -94 -300h200z
M343 690l-127 54q-2 1 -7.5 3.5t-8 3.5t-7.5 3.5l-7 3.5t-6 3.5t-5.5 4l-4 4t-3.5 4.5t-2 4.5t-1 5.5q0 12 9.5 24.5t20.5 12.5q13 0 52 -33l103 -86z" />
    <glyph glyph-name="Aacute" unicode="&#xc1;" horiz-adv-x="646" 
d="M654 0h-248v20l37 4q22 2 27.5 12.5t-2.5 31.5l-69 199h-217q-43 -140 -50 -167q-12 -42 -6.5 -58t30.5 -18l48 -5v-19h-205v19q46 2 63 18.5t41 80.5q47 127 186 546h65l209 -585q13 -36 27.5 -45t63.5 -14v-20zM391 290q-80 239 -103 300h-3q-78 -246 -94 -300h200z
M288 691l-7 11l104 86q38 32 51 32q10 0 19 -12.5t9 -24.5q0 -3 -0.5 -5.5t-2.5 -5t-4 -4.5t-5.5 -4.5l-5.5 -4t-7.5 -4t-7.5 -3.5t-8.5 -4t-8.5 -4z" />
    <glyph glyph-name="Acircumflex" unicode="&#xc2;" horiz-adv-x="646" 
d="M654 0h-248v20l37 4q22 2 27.5 12.5t-2.5 31.5l-69 199h-217q-43 -140 -50 -167q-12 -42 -6.5 -58t30.5 -18l48 -5v-19h-205v19q46 2 63 18.5t41 80.5q47 127 186 546h65l209 -585q13 -36 27.5 -45t63.5 -14v-20zM391 290q-80 239 -103 300h-3q-78 -246 -94 -300h200z
M445 701l-8 -12l-103 54q-11 10 -25 1l-100 -55l-7 12l112 117h18z" />
    <glyph glyph-name="Atilde" unicode="&#xc3;" horiz-adv-x="646" 
d="M654 0h-248v20l37 4q22 2 27.5 12.5t-2.5 31.5l-69 199h-217q-43 -140 -50 -167q-12 -42 -6.5 -58t30.5 -18l48 -5v-19h-205v19q46 2 63 18.5t41 80.5q47 127 186 546h65l209 -585q13 -36 27.5 -45t63.5 -14v-20zM391 290q-80 239 -103 300h-3q-78 -246 -94 -300h200z
M443 797l12 -5q-19 -85 -76 -85q-13 0 -66 16q-47 17 -62 17q-19 0 -30 -8.5t-23 -31.5l-11 6q20 82 80 82q22 0 65 -15q50 -16 60 -16q37 0 51 40z" />
    <glyph glyph-name="Adieresis" unicode="&#xc4;" horiz-adv-x="646" 
d="M654 0h-248v20l37 4q22 2 27.5 12.5t-2.5 31.5l-69 199h-217q-43 -140 -50 -167q-12 -42 -6.5 -58t30.5 -18l48 -5v-19h-205v19q46 2 63 18.5t41 80.5q47 127 186 546h65l209 -585q13 -36 27.5 -45t63.5 -14v-20zM391 290q-80 239 -103 300h-3q-78 -246 -94 -300h200z
M231 800h1q21 0 34 -14t13 -35q-1 -22 -13.5 -35t-34.5 -13t-35.5 13.5t-13.5 34.5t13.5 35t35.5 14zM414 800h1q22 0 35 -14t12 -35q0 -21 -13 -34.5t-35 -13.5t-35 13.5t-13 34.5t13.5 35t34.5 14z" />
    <glyph glyph-name="Aring" unicode="&#xc5;" horiz-adv-x="646" 
d="M654 0h-248v20l37 4q22 2 27.5 12.5t-2.5 31.5l-69 199h-217q-43 -140 -50 -167q-12 -42 -6.5 -58t30.5 -18l48 -5v-19h-205v19q46 2 63 18.5t41 80.5q47 127 186 546h65l209 -585q13 -36 27.5 -45t63.5 -14v-20zM391 290q-80 239 -103 300h-3q-78 -246 -94 -300h200z
M323 840h-1q-42 0 -42 -69q0 -68 43 -68t43 68q0 69 -43 69zM323 856h1q38 0 64 -20.5t26 -64.5q0 -43 -26 -63.5t-65 -20.5t-65 20.5t-26 63.5q0 44 26 64.5t65 20.5z" />
    <glyph glyph-name="AE" unicode="&#xc6;" horiz-adv-x="869" 
d="M408 333v298h-12q-100 -187 -153 -298h165zM408 305h-180l-51.5 -103l-40.5 -80t-17 -37q-12 -35 -7 -44.5t32 -13.5l43 -7v-20h-200v20q42 4 58.5 17t44.5 63l262 502q16 32 -11 33l-73 6v19h535l-2 -162h-21q-12 78 -44.5 107.5t-117.5 29.5h-83q-23 0 -29 -5.5
t-6 -28.5v-268h117q60 0 84 22t31 72h21v-224h-21q-9 58 -32 80t-83 22h-117v-200q0 -57 19 -68.5t103 -11.5q94 0 137.5 31t60.5 120h21l-20 -176h-498v19q61 4 73 13.5t12 47.5v225z" />
    <glyph glyph-name="Ccedilla" unicode="&#xc7;" horiz-adv-x="659" 
d="M391 -16l-23 -36q87 -12 87 -77q0 -26 -10.5 -44t-27 -26.5t-31 -11.5t-28.5 -3q-28 0 -53 15l4 14q12 -5 32 -5q48 0 48 54q0 49 -60 53l-1 5l43 62q-167 2 -247.5 87t-80.5 257q0 157 84 250q88 99 267 99q106 0 203 -39v-153h-21q-14 83 -63 127.5t-128 44.5
q-64 0 -112 -29t-74 -78t-38.5 -104t-12.5 -116q0 -42 6 -82.5t22.5 -86t42.5 -79.5t70.5 -56t101.5 -22q50 0 85.5 13.5t57.5 41.5t34.5 56.5t24.5 72.5h21l-21 -165q-32 -13 -91 -25.5t-111 -13.5z" />
    <glyph glyph-name="Egrave" unicode="&#xc8;" horiz-adv-x="566" 
d="M105 80v500q0 40 -11.5 48t-69.5 13v19h473v-162h-21q-11 78 -44 109t-117 31h-81q-23 0 -29 -5.5t-6 -28.5v-248h115q60 0 84 22t30 72h21v-220h-21q-8 57 -31 79.5t-83 22.5h-115v-230q0 -54 18 -67t102 -13q93 0 136 32.5t61 122.5h21l-20 -177h-493v19q57 4 69 13
t12 48zM323 695l-127 54q-2 1 -8.5 4t-9 4t-8 3.5t-7.5 4t-6 4t-5.5 4.5l-3.5 4.5t-3 5.5t-1 6q0 12 9.5 24.5t20.5 12.5q13 0 52 -33l103 -86z" />
    <glyph glyph-name="Eacute" unicode="&#xc9;" horiz-adv-x="566" 
d="M105 80v500q0 40 -11.5 48t-69.5 13v19h473v-162h-21q-11 78 -44 109t-117 31h-81q-23 0 -29 -5.5t-6 -28.5v-248h115q60 0 84 22t30 72h21v-220h-21q-8 57 -31 79.5t-83 22.5h-115v-230q0 -54 18 -67t102 -13q93 0 136 32.5t61 122.5h21l-20 -177h-493v19q57 4 69 13
t12 48zM257 686l-7 11l104 86q38 32 51 32q10 0 19 -12.5t9 -24.5q0 -3 -0.5 -5.5t-2.5 -5t-4 -4.5t-5.5 -4.5l-5.5 -4t-7.5 -4t-7.5 -3.5t-8.5 -4t-8.5 -4z" />
    <glyph glyph-name="Ecircumflex" unicode="&#xca;" horiz-adv-x="566" 
d="M105 80v500q0 40 -11.5 48t-69.5 13v19h473v-162h-21q-11 78 -44 109t-117 31h-81q-23 0 -29 -5.5t-6 -28.5v-248h115q60 0 84 22t30 72h21v-220h-21q-8 57 -31 79.5t-83 22.5h-115v-230q0 -54 18 -67t102 -13q93 0 136 32.5t61 122.5h21l-20 -177h-493v19q57 4 69 13
t12 48zM405 707l-8 -12l-103 54q-11 10 -25 1l-100 -55l-7 12l112 117h18z" />
    <glyph glyph-name="Edieresis" unicode="&#xcb;" horiz-adv-x="566" 
d="M105 80v500q0 40 -11.5 48t-69.5 13v19h473v-162h-21q-11 78 -44 109t-117 31h-81q-23 0 -29 -5.5t-6 -28.5v-248h115q60 0 84 22t30 72h21v-220h-21q-8 57 -31 79.5t-83 22.5h-115v-230q0 -54 18 -67t102 -13q93 0 136 32.5t61 122.5h21l-20 -177h-493v19q57 4 69 13
t12 48zM197 806h1q21 0 34 -14t13 -35q-1 -22 -13.5 -35t-34.5 -13t-35.5 13.5t-13.5 34.5t13.5 35t35.5 14zM380 806h1q22 0 35 -14t12 -35q0 -21 -13 -34.5t-35 -13.5t-35 13.5t-13 34.5t13.5 35t34.5 14z" />
    <glyph glyph-name="Igrave" unicode="&#xcc;" horiz-adv-x="303" 
d="M199 580v-500q0 -39 11 -48t70 -13v-19h-256v19q58 4 69.5 13.5t11.5 47.5v500q0 37 -12 47t-69 14v19h256v-19q-58 -4 -69.5 -13t-11.5 -48zM182 695l-127 54q-2 1 -7.5 3.5t-8 3.5t-7.5 3.5l-7 3.5t-6 3.5t-5.5 4l-4 4t-3.5 4.5t-2 4.5t-1 5.5q0 12 9.5 24.5t20.5 12.5
q13 0 52 -33l103 -86z" />
    <glyph glyph-name="Iacute" unicode="&#xcd;" horiz-adv-x="303" 
d="M199 580v-500q0 -39 11 -48t70 -13v-19h-256v19q58 4 69.5 13.5t11.5 47.5v500q0 37 -12 47t-69 14v19h256v-19q-58 -4 -69.5 -13t-11.5 -48zM126 686l-7 11l104 86q38 32 51 32q10 0 19 -12.5t9 -24.5q0 -3 -0.5 -5.5t-2.5 -5t-4 -4.5t-5.5 -4.5l-5.5 -4t-7.5 -4
t-7.5 -3.5t-8.5 -4t-8.5 -4z" />
    <glyph glyph-name="Icircumflex" unicode="&#xce;" horiz-adv-x="303" 
d="M199 580v-500q0 -39 11 -48t70 -13v-19h-256v19q58 4 69.5 13.5t11.5 47.5v500q0 37 -12 47t-69 14v19h256v-19q-58 -4 -69.5 -13t-11.5 -48zM274 707l-8 -12l-103 54q-11 10 -25 1l-100 -55l-7 12l112 117h18z" />
    <glyph glyph-name="Idieresis" unicode="&#xcf;" horiz-adv-x="303" 
d="M199 580v-500q0 -39 11 -48t70 -13v-19h-256v19q58 4 69.5 13.5t11.5 47.5v500q0 37 -12 47t-69 14v19h256v-19q-58 -4 -69.5 -13t-11.5 -48zM60 806h1q21 0 34 -14t13 -35q-1 -22 -13.5 -35t-34.5 -13t-35.5 13.5t-13.5 34.5t13.5 35t35.5 14zM243 806h1q22 0 35 -14
t12 -35q0 -21 -13 -34.5t-35 -13.5t-35 13.5t-13 34.5t13.5 35t34.5 14z" />
    <glyph glyph-name="Eth" unicode="&#xd0;" horiz-adv-x="731" 
d="M22 362h92v218q0 41 -11 49t-73 12v19h314q92 0 154 -16.5t106 -57.5q85 -81 85 -240q0 -177 -97.5 -261.5t-271.5 -84.5h-290v19q61 4 72.5 13t11.5 49v254h-92v27zM382 362v-27h-174v-232q0 -54 17 -68.5t78 -14.5q130 0 204.5 73t74.5 247q0 64 -14 115.5t-44 94
t-83 66t-126 24.5q-74 1 -90.5 -7.5t-16.5 -44.5v-226h174z" />
    <glyph glyph-name="Ntilde" unicode="&#xd1;" horiz-adv-x="696" 
d="M600 0h-65l-401 582h-2v-385q0 -67 6 -115q5 -32 25 -45.5t66 -17.5v-19h-215v19q39 3 59.5 17t24.5 44q7 45 7 117v384q0 40 -11.5 47.5t-73.5 12.5v19h167l384 -537l2 -2v343q0 68 -6 114q-5 33 -22.5 46t-71.5 17v19h215v-19q-39 -3 -58 -16.5t-23 -44.5
q-7 -43 -7 -116v-464zM468 802l12 -5q-19 -85 -76 -85q-13 0 -66 16q-47 17 -62 17q-19 0 -30 -8.5t-23 -31.5l-11 6q20 82 80 82q22 0 65 -15q50 -16 60 -16q37 0 51 40z" />
    <glyph glyph-name="Ograve" unicode="&#xd2;" horiz-adv-x="712" 
d="M356 657h-1q-48 0 -85 -21t-59.5 -53.5t-36.5 -77.5t-19 -87t-5 -88q0 -58 9.5 -110.5t31 -103.5t64.5 -81.5t103 -30.5t102.5 30.5t63.5 81.5t30 103t9 111q0 58 -9 110.5t-30.5 104t-64.5 82t-103 30.5zM356 677h1q155 0 234 -94t79 -253t-79 -252.5t-235 -93.5
t-234.5 93.5t-78.5 252.5t79 253t234 94zM386 705l-127 54q-2 1 -7.5 3.5t-8 3.5t-7.5 3.5l-7 3.5t-6 3.5t-5.5 4l-4 4t-3.5 4.5t-2 4.5t-1 5.5q0 12 9.5 24.5t20.5 12.5q13 0 52 -33l103 -86z" />
    <glyph glyph-name="Oacute" unicode="&#xd3;" horiz-adv-x="712" 
d="M356 657h-1q-48 0 -85 -21t-59.5 -53.5t-36.5 -77.5t-19 -87t-5 -88q0 -58 9.5 -110.5t31 -103.5t64.5 -81.5t103 -30.5t102.5 30.5t63.5 81.5t30 103t9 111q0 58 -9 110.5t-30.5 104t-64.5 82t-103 30.5zM356 677h1q155 0 234 -94t79 -253t-79 -252.5t-235 -93.5
t-234.5 93.5t-78.5 252.5t79 253t234 94zM330 696l-7 11l104 86q38 32 51 32q10 0 19 -12.5t9 -24.5q0 -3 -0.5 -5.5t-2.5 -5t-4 -4.5t-5.5 -4.5t-6 -4t-7.5 -4l-7 -3.5t-8.5 -4t-8.5 -4z" />
    <glyph glyph-name="Ocircumflex" unicode="&#xd4;" horiz-adv-x="712" 
d="M356 657h-1q-48 0 -85 -21t-59.5 -53.5t-36.5 -77.5t-19 -87t-5 -88q0 -58 9.5 -110.5t31 -103.5t64.5 -81.5t103 -30.5t102.5 30.5t63.5 81.5t30 103t9 111q0 58 -9 110.5t-30.5 104t-64.5 82t-103 30.5zM356 677h1q155 0 234 -94t79 -253t-79 -252.5t-235 -93.5
t-234.5 93.5t-78.5 252.5t79 253t234 94zM478 717l-8 -12l-103 54q-11 10 -25 1l-100 -55l-7 12l112 117h18z" />
    <glyph glyph-name="Otilde" unicode="&#xd5;" horiz-adv-x="712" 
d="M356 657h-1q-48 0 -85 -21t-59.5 -53.5t-36.5 -77.5t-19 -87t-5 -88q0 -58 9.5 -110.5t31 -103.5t64.5 -81.5t103 -30.5t102.5 30.5t63.5 81.5t30 103t9 111q0 58 -9 110.5t-30.5 104t-64.5 82t-103 30.5zM356 677h1q155 0 234 -94t79 -253t-79 -252.5t-235 -93.5
t-234.5 93.5t-78.5 252.5t79 253t234 94zM476 812l12 -5q-19 -85 -76 -85q-13 0 -66 16q-47 17 -62 17q-19 0 -30 -8.5t-23 -31.5l-11 6q20 82 80 82q22 0 65 -15q50 -16 60 -16q37 0 51 40z" />
    <glyph glyph-name="Odieresis" unicode="&#xd6;" horiz-adv-x="712" 
d="M356 657h-1q-48 0 -85 -21t-59.5 -53.5t-36.5 -77.5t-19 -87t-5 -88q0 -58 9.5 -110.5t31 -103.5t64.5 -81.5t103 -30.5t102.5 30.5t63.5 81.5t30 103t9 111q0 58 -9 110.5t-30.5 104t-64.5 82t-103 30.5zM356 677h1q155 0 234 -94t79 -253t-79 -252.5t-235 -93.5
t-234.5 93.5t-78.5 252.5t79 253t234 94zM264 816h1q21 0 34 -14t13 -35q-1 -22 -13.5 -35t-34.5 -13t-35.5 13.5t-13.5 34.5t13.5 35t35.5 14zM447 816h1q22 0 35 -14t12 -35q0 -21 -13 -34.5t-35 -13.5t-35 13.5t-13 34.5t13.5 35t34.5 14z" />
    <glyph glyph-name="multiply" unicode="&#xd7;" horiz-adv-x="471" 
d="M413 378l-148 -150l148 -151l-29 -31l-149 151l-149 -151l-28 31l148 151l-148 150l28 32l149 -151l149 151z" />
    <glyph glyph-name="Oslash" unicode="&#xd8;" horiz-adv-x="712" 
d="M510 568l-296 -491q50 -71 142 -71q60 0 103 30t64.5 81t30.5 103t9 111q0 152 -53 237zM199 98l297 490q-50 67 -140 67q-60 0 -102.5 -30t-64 -81t-30.5 -103t-9 -110q0 -149 49 -233zM578 679l-34 -55q126 -91 126 -293q0 -159 -79 -252t-235 -93q-104 0 -173 42
l-41 -69l-18 13l41 68q-122 88 -122 291q0 158 79 251t234 93q101 0 170 -40l34 57z" />
    <glyph glyph-name="Ugrave" unicode="&#xd9;" horiz-adv-x="706" 
d="M437 660h255v-20q-58 -5 -69 -13t-11 -48v-343q0 -85 -25 -135q-56 -117 -232 -117q-180 0 -236 114q-24 53 -24 137v345q0 40 -10.5 48t-69.5 13v19h259v-19q-62 -5 -73.5 -13t-11.5 -48v-341q0 -235 166 -235q53 0 88 18.5t51.5 54t22 72.5t5.5 90v341q0 40 -11.5 48
t-73.5 13v19zM383 695l-127 54q-2 1 -7.5 3.5t-8 3.5t-7.5 3.5l-7 3.5t-6 3.5t-5.5 4l-4 4t-3.5 4.5t-2 4.5t-1 5.5q0 12 9.5 24.5t20.5 12.5q13 0 52 -33l103 -86z" />
    <glyph glyph-name="Uacute" unicode="&#xda;" horiz-adv-x="706" 
d="M437 660h255v-20q-58 -5 -69 -13t-11 -48v-343q0 -85 -25 -135q-56 -117 -232 -117q-180 0 -236 114q-24 53 -24 137v345q0 40 -10.5 48t-69.5 13v19h259v-19q-62 -5 -73.5 -13t-11.5 -48v-341q0 -235 166 -235q53 0 88 18.5t51.5 54t22 72.5t5.5 90v341q0 40 -11.5 48
t-73.5 13v19zM327 686l-7 11l104 86q38 32 51 32q10 0 19 -12.5t9 -24.5q0 -3 -0.5 -5.5t-2.5 -5t-4 -4.5t-5.5 -4.5l-5.5 -4t-7.5 -4t-7.5 -3.5t-8.5 -4t-8.5 -4z" />
    <glyph glyph-name="Ucircumflex" unicode="&#xdb;" horiz-adv-x="706" 
d="M437 660h255v-20q-58 -5 -69 -13t-11 -48v-343q0 -85 -25 -135q-56 -117 -232 -117q-180 0 -236 114q-24 53 -24 137v345q0 40 -10.5 48t-69.5 13v19h259v-19q-62 -5 -73.5 -13t-11.5 -48v-341q0 -235 166 -235q53 0 88 18.5t51.5 54t22 72.5t5.5 90v341q0 40 -11.5 48
t-73.5 13v19zM475 711l-8 -12l-103 54q-11 10 -25 1l-100 -55l-7 12l112 117h18z" />
    <glyph glyph-name="Udieresis" unicode="&#xdc;" horiz-adv-x="706" 
d="M437 660h255v-20q-58 -5 -69 -13t-11 -48v-343q0 -85 -25 -135q-56 -117 -232 -117q-180 0 -236 114q-24 53 -24 137v345q0 40 -10.5 48t-69.5 13v19h259v-19q-62 -5 -73.5 -13t-11.5 -48v-341q0 -235 166 -235q53 0 88 18.5t51.5 54t22 72.5t5.5 90v341q0 40 -11.5 48
t-73.5 13v19zM261 806h1q21 0 34 -14t13 -35q-1 -22 -13.5 -35t-34.5 -13t-35.5 13.5t-13.5 34.5t13.5 35t35.5 14zM444 806h1q22 0 35 -14t12 -35q0 -21 -13 -34.5t-35 -13.5t-35 13.5t-13 34.5t13.5 35t34.5 14z" />
    <glyph glyph-name="Yacute" unicode="&#xdd;" horiz-adv-x="574" 
d="M449 0h-294v19q72 4 86 13t14 48v180q0 25 -15 52q-51 100 -162 282q-17 28 -33.5 37.5t-53.5 10.5v18h249v-18l-51 -5q-27 -2 -14 -25q40 -79 161 -295h2q106 206 136 275q19 43 -17 46l-38 4v18h189v-18q-44 -2 -64 -17.5t-47 -57.5q-60 -101 -134 -251
q-14 -27 -14 -58v-178q0 -39 14 -48t86 -13v-19zM272 686l-7 11l104 86q38 32 51 32q10 0 19 -12.5t9 -24.5q0 -3 -0.5 -5.5t-2.5 -5t-4 -4.5t-5.5 -4.5t-6 -4t-7.5 -4l-7 -3.5t-8.5 -4t-8.5 -4z" />
    <glyph glyph-name="Thorn" unicode="&#xde;" horiz-adv-x="551" 
d="M197 580v-51h118q94 0 143.5 -39.5t49.5 -129.5q0 -201 -238 -201h-73v-79q0 -40 13 -48.5t80 -12.5v-19h-270v19q62 4 73.5 12.5t11.5 48.5v500q0 40 -11.5 48t-73.5 13v19h262v-19q-62 -5 -73.5 -13t-11.5 -48zM197 479v-263q0 -37 71 -37q73 0 107 41.5t34 127.5
q0 78 -38 119.5t-106 41.5q-40 0 -54 -6.5t-14 -23.5z" />
    <glyph glyph-name="germandbls" unicode="&#xdf;" horiz-adv-x="556" 
d="M171 447v-311q0 -48 1.5 -91.5t1.5 -44.5h-154v19q44 4 54.5 13.5t10.5 39.5v359h-62v30h62q0 135 48 197q53 69 158 69q47 0 81.5 -14.5t51 -32.5t25.5 -45t10.5 -41t1.5 -31q0 -26 -5 -37q-119 -21 -119 -120q0 -25 20 -51t75 -63q42 -29 66 -61.5t24 -78.5
q0 -80 -54 -122t-126 -42q-59 0 -92.5 17t-33.5 40q0 16 11.5 26.5t24.5 10.5q12 0 19 -12q33 -61 91 -61q36 0 59 24t23 75q0 72 -77 123q-60 42 -80.5 73t-20.5 73q0 49 32 85.5t88 58.5q9 24 9 38q0 32 -8 63t-33.5 59t-64.5 28q-25 0 -44 -10t-31.5 -23.5t-21 -38.5
t-12.5 -43.5t-6.5 -51t-2.5 -48.5v-47z" />
    <glyph glyph-name="agrave" unicode="&#xe0;" horiz-adv-x="474" 
d="M396 346v-235q0 -74 28 -81q22 -6 39 -2l1 -12q-43 -28 -89 -28q-27 0 -41 15t-21 49q-2 -1 -19.5 -13.5t-27.5 -18l-27 -15t-34 -13.5t-33 -4q-65 0 -98.5 38.5t-33.5 95.5q0 76 88 103q11 3 32 9.5l33.5 10.5l31 10t30 10.5l24.5 10t21.5 10.5t13.5 10v51
q0 108 -83 108q-81 0 -94 -108q-2 -11 -7 -15.5t-19 -4.5q-18 0 -36 11t-18 32q0 38 53 70.5t131 32.5q50 0 83.5 -11.5t48 -32.5t19 -39.5t4.5 -43.5zM314 120v153q-9 -6 -27.5 -13.5t-44.5 -17t-38 -14.5q-38 -14 -54.5 -36t-16.5 -56q0 -44 24.5 -75.5t66.5 -31.5
q34 0 62 20.5t28 70.5zM260 507l-100 83q-4 4 -12.5 10.5t-12 10l-8.5 8.5t-7 9.5t-2 9.5q0 12 10.5 22.5t21.5 10.5q12 0 22 -10.5t27 -36.5l70 -109z" />
    <glyph glyph-name="aacute" unicode="&#xe1;" horiz-adv-x="474" 
d="M396 346v-235q0 -74 28 -81q22 -6 39 -2l1 -12q-43 -28 -89 -28q-27 0 -41 15t-21 49q-2 -1 -19.5 -13.5t-27.5 -18l-27 -15t-34 -13.5t-33 -4q-65 0 -98.5 38.5t-33.5 95.5q0 76 88 103q11 3 32 9.5l33.5 10.5l31 10t30 10.5l24.5 10t21.5 10.5t13.5 10v51
q0 108 -83 108q-81 0 -94 -108q-2 -11 -7 -15.5t-19 -4.5q-18 0 -36 11t-18 32q0 38 53 70.5t131 32.5q50 0 83.5 -11.5t48 -32.5t19 -39.5t4.5 -43.5zM314 120v153q-9 -6 -27.5 -13.5t-44.5 -17t-38 -14.5q-38 -14 -54.5 -36t-16.5 -56q0 -44 24.5 -75.5t66.5 -31.5
q34 0 62 20.5t28 70.5zM210 507l-9 8l69 109q17 26 27 36.5t22 10.5q11 0 21.5 -10.5t10.5 -22.5q0 -5 -2 -9.5t-7 -9.5l-8.5 -8.5t-12 -10t-12.5 -10.5z" />
    <glyph glyph-name="acircumflex" unicode="&#xe2;" horiz-adv-x="474" 
d="M396 346v-235q0 -74 28 -81q22 -6 39 -2l1 -12q-43 -28 -89 -28q-27 0 -41 15t-21 49q-2 -1 -19.5 -13.5t-27.5 -18l-27 -15t-34 -13.5t-33 -4q-65 0 -98.5 38.5t-33.5 95.5q0 76 88 103q11 3 32 9.5l33.5 10.5l31 10t30 10.5l24.5 10t21.5 10.5t13.5 10v51
q0 108 -83 108q-81 0 -94 -108q-2 -11 -7 -15.5t-19 -4.5q-18 0 -36 11t-18 32q0 38 53 70.5t131 32.5q50 0 83.5 -11.5t48 -32.5t19 -39.5t4.5 -43.5zM314 120v153q-9 -6 -27.5 -13.5t-44.5 -17t-38 -14.5q-38 -14 -54.5 -36t-16.5 -56q0 -44 24.5 -75.5t66.5 -31.5
q34 0 62 20.5t28 70.5zM332 515l-10 -8l-80 80q-12 9 -21 2l-79 -82l-10 8l91 156h17z" />
    <glyph glyph-name="atilde" unicode="&#xe3;" horiz-adv-x="474" 
d="M396 346v-235q0 -74 28 -81q22 -6 39 -2l1 -12q-43 -28 -89 -28q-27 0 -41 15t-21 49q-2 -1 -19.5 -13.5t-27.5 -18l-27 -15t-34 -13.5t-33 -4q-65 0 -98.5 38.5t-33.5 95.5q0 76 88 103q11 3 32 9.5l33.5 10.5l31 10t30 10.5l24.5 10t21.5 10.5t13.5 10v51
q0 108 -83 108q-81 0 -94 -108q-2 -11 -7 -15.5t-19 -4.5q-18 0 -36 11t-18 32q0 38 53 70.5t131 32.5q50 0 83.5 -11.5t48 -32.5t19 -39.5t4.5 -43.5zM314 120v153q-9 -6 -27.5 -13.5t-44.5 -17t-38 -14.5q-38 -14 -54.5 -36t-16.5 -56q0 -44 24.5 -75.5t66.5 -31.5
q34 0 62 20.5t28 70.5zM356 639l11 -4q-9 -40 -25.5 -62t-49.5 -22q-17 0 -64 17q-50 16 -61 16q-19 0 -30 -8.5t-23 -31.5l-11 7q20 80 79 80q16 0 64 -15q44 -16 59 -16q36 0 51 39z" />
    <glyph glyph-name="adieresis" unicode="&#xe4;" horiz-adv-x="474" 
d="M396 346v-235q0 -74 28 -81q22 -6 39 -2l1 -12q-43 -28 -89 -28q-27 0 -41 15t-21 49q-2 -1 -19.5 -13.5t-27.5 -18l-27 -15t-34 -13.5t-33 -4q-65 0 -98.5 38.5t-33.5 95.5q0 76 88 103q11 3 32 9.5l33.5 10.5l31 10t30 10.5l24.5 10t21.5 10.5t13.5 10v51
q0 108 -83 108q-81 0 -94 -108q-2 -11 -7 -15.5t-19 -4.5q-18 0 -36 11t-18 32q0 38 53 70.5t131 32.5q50 0 83.5 -11.5t48 -32.5t19 -39.5t4.5 -43.5zM314 120v153q-9 -6 -27.5 -13.5t-44.5 -17t-38 -14.5q-38 -14 -54.5 -36t-16.5 -56q0 -44 24.5 -75.5t66.5 -31.5
q34 0 62 20.5t28 70.5zM142 649h1q21 0 33.5 -13.5t12.5 -34.5q-1 -21 -13.5 -34t-33.5 -13q-22 0 -35 13t-13 34t13.5 34.5t34.5 13.5zM322 649h1q21 0 34 -13.5t12 -34.5q0 -21 -12.5 -34t-34.5 -13t-35 13t-13 34t13.5 34.5t34.5 13.5z" />
    <glyph glyph-name="aring" unicode="&#xe5;" horiz-adv-x="474" 
d="M396 346v-235q0 -74 28 -81q22 -6 39 -2l1 -12q-43 -28 -89 -28q-27 0 -41 15t-21 49q-2 -1 -19.5 -13.5t-27.5 -18l-27 -15t-34 -13.5t-33 -4q-65 0 -98.5 38.5t-33.5 95.5q0 76 88 103q11 3 32 9.5l33.5 10.5l31 10t30 10.5l24.5 10t21.5 10.5t13.5 10v51
q0 108 -83 108q-81 0 -94 -108q-2 -11 -7 -15.5t-19 -4.5q-18 0 -36 11t-18 32q0 38 53 70.5t131 32.5q50 0 83.5 -11.5t48 -32.5t19 -39.5t4.5 -43.5zM314 120v153q-9 -6 -27.5 -13.5t-44.5 -17t-38 -14.5q-38 -14 -54.5 -36t-16.5 -56q0 -44 24.5 -75.5t66.5 -31.5
q34 0 62 20.5t28 70.5zM237 667h-1q-41 0 -41 -67q0 -69 42 -69t42 69q0 67 -42 67zM237 683h1q37 0 62.5 -20.5t25.5 -62.5q0 -43 -25.5 -63.5t-63.5 -20.5t-63.5 20.5t-25.5 63.5t25.5 63t63.5 20z" />
    <glyph glyph-name="ae" unicode="&#xe6;" horiz-adv-x="739" 
d="M662 248h-262q-1 -41 4.5 -77t19.5 -70t43.5 -54t70.5 -20q35 0 61 10t42.5 28.5t25 33.5t17.5 37l12 -6q-19 -62 -62.5 -101.5t-116.5 -40.5q-131 -1 -177 87q-95 -87 -169 -87q-65 0 -98.5 38.5t-33.5 95.5q0 76 89 103l44 13.5l47 14.5t38 13t35.5 15t20.5 14v52
q0 54 -22 81t-61 27q-79 0 -94 -109q-1 -21 -26 -21q-18 0 -36 11t-18 32q0 39 53 72t131 33q106 0 132 -58q49 58 146 58q183 0 183 -190q0 -35 -39 -35zM313 128v145q-5 -4 -110 -46q-38 -13 -54.5 -35t-16.5 -56q0 -44 25 -76t66 -32q36 0 63 21.5t27 78.5zM401 270h172
q23 0 30 12t7 37q0 19 -3 38t-12 43t-31 39t-53 15q-34 0 -58 -22t-34 -55.5t-14 -59.5t-4 -47z" />
    <glyph glyph-name="ccedilla" unicode="&#xe7;" horiz-adv-x="452" 
d="M266 -12l-26 -40q86 -10 86 -75q0 -26 -10.5 -44t-27 -26t-30.5 -11t-28 -3q-24 0 -52 14l4 15q12 -5 31 -5q48 0 48 53q0 49 -59 52l-1 4l44 66q-206 3 -206 239q0 68 19.5 120.5t71.5 89t133 36.5q73 0 115.5 -28t42.5 -64q0 -25 -15 -37t-33 -12q-25 0 -30 22
q-10 47 -29 73t-62 26q-51 0 -84 -53.5t-33 -156.5q0 -38 6.5 -73t21 -68.5t42.5 -53.5t67 -20q108 0 145 103l12 -7q-17 -65 -62.5 -98.5t-100.5 -37.5z" />
    <glyph glyph-name="egrave" unicode="&#xe8;" horiz-adv-x="469" 
d="M396 248h-261q-1 -41 5 -77t20 -70t43.5 -54t70.5 -20q34 0 59 9.5t41 28t24 32.5t17 36l15 -6q-42 -139 -177 -139q-114 0 -164 61t-50 178q0 111 53 178.5t160 67.5q49 0 85 -15t54 -35t28.5 -49.5t13 -49t2.5 -41.5q0 -35 -39 -35zM135 270h172q23 0 30 12t7 37
q0 19 -3 38t-12 42.5t-30.5 38.5t-52.5 15q-34 0 -58 -22t-34.5 -55.5t-14.5 -59t-4 -46.5zM268 507l-100 83q-4 4 -12.5 10.5t-12 10l-8.5 8.5t-7 9.5t-2 9.5q0 12 10.5 22.5t21.5 10.5q12 0 22 -10.5t27 -36.5l70 -109z" />
    <glyph glyph-name="eacute" unicode="&#xe9;" horiz-adv-x="469" 
d="M396 248h-261q-1 -41 5 -77t20 -70t43.5 -54t70.5 -20q34 0 59 9.5t41 28t24 32.5t17 36l15 -6q-42 -139 -177 -139q-114 0 -164 61t-50 178q0 111 53 178.5t160 67.5q49 0 85 -15t54 -35t28.5 -49.5t13 -49t2.5 -41.5q0 -35 -39 -35zM135 270h172q23 0 30 12t7 37
q0 19 -3 38t-12 42.5t-30.5 38.5t-52.5 15q-34 0 -58 -22t-34.5 -55.5t-14.5 -59t-4 -46.5zM218 507l-9 8l69 109q17 26 27 36.5t22 10.5q11 0 21.5 -10.5t10.5 -22.5q0 -5 -2 -9.5t-7 -9.5l-8.5 -8.5t-12 -10t-12.5 -10.5z" />
    <glyph glyph-name="ecircumflex" unicode="&#xea;" horiz-adv-x="469" 
d="M396 248h-261q-1 -41 5 -77t20 -70t43.5 -54t70.5 -20q34 0 59 9.5t41 28t24 32.5t17 36l15 -6q-42 -139 -177 -139q-114 0 -164 61t-50 178q0 111 53 178.5t160 67.5q49 0 85 -15t54 -35t28.5 -49.5t13 -49t2.5 -41.5q0 -35 -39 -35zM135 270h172q23 0 30 12t7 37
q0 19 -3 38t-12 42.5t-30.5 38.5t-52.5 15q-34 0 -58 -22t-34.5 -55.5t-14.5 -59t-4 -46.5zM340 515l-10 -8l-80 80q-12 9 -21 2l-79 -82l-10 8l91 156h17z" />
    <glyph glyph-name="edieresis" unicode="&#xeb;" horiz-adv-x="469" 
d="M396 248h-261q-1 -41 5 -77t20 -70t43.5 -54t70.5 -20q34 0 59 9.5t41 28t24 32.5t17 36l15 -6q-42 -139 -177 -139q-114 0 -164 61t-50 178q0 111 53 178.5t160 67.5q49 0 85 -15t54 -35t28.5 -49.5t13 -49t2.5 -41.5q0 -35 -39 -35zM135 270h172q23 0 30 12t7 37
q0 19 -3 38t-12 42.5t-30.5 38.5t-52.5 15q-34 0 -58 -22t-34.5 -55.5t-14.5 -59t-4 -46.5zM150 649h1q21 0 33.5 -13.5t12.5 -34.5q-1 -21 -13.5 -34t-33.5 -13q-22 0 -35 13t-13 34t13.5 34.5t34.5 13.5zM330 649h1q21 0 34 -13.5t12 -34.5q0 -21 -12.5 -34t-34.5 -13
t-35 13t-13 34t13.5 34.5t34.5 13.5z" />
    <glyph glyph-name="igrave" unicode="&#xec;" horiz-adv-x="248" 
d="M25 448l143 24l3 -2v-393q0 -38 9.5 -46t55.5 -12v-19h-215v19q47 5 55.5 12t8.5 46v304q0 27 -6.5 35.5t-28.5 12.5l-25 3v16zM137 507l-100 83q-4 4 -12.5 10.5t-12 10l-8.5 8.5t-7 9.5t-2 9.5q0 12 10.5 22.5t21.5 10.5q12 0 22 -10.5t27 -36.5l70 -109z" />
    <glyph glyph-name="iacute" unicode="&#xed;" horiz-adv-x="248" 
d="M25 448l143 24l3 -2v-393q0 -38 9.5 -46t55.5 -12v-19h-215v19q47 5 55.5 12t8.5 46v304q0 27 -6.5 35.5t-28.5 12.5l-25 3v16zM107 507l-9 8l69 109q17 26 27 36.5t22 10.5q11 0 21.5 -10.5t10.5 -22.5q0 -5 -2 -9.5t-7 -9.5l-8.5 -8.5t-12 -10t-12.5 -10.5z" />
    <glyph glyph-name="icircumflex" unicode="&#xee;" horiz-adv-x="248" 
d="M25 448l143 24l3 -2v-393q0 -38 9.5 -46t55.5 -12v-19h-215v19q47 5 55.5 12t8.5 46v304q0 27 -6.5 35.5t-28.5 12.5l-25 3v16zM214 515l-10 -8l-80 80q-12 9 -21 2l-79 -82l-10 8l91 156h17z" />
    <glyph glyph-name="idieresis" unicode="&#xef;" horiz-adv-x="248" 
d="M25 448l143 24l3 -2v-393q0 -38 9.5 -46t55.5 -12v-19h-215v19q47 5 55.5 12t8.5 46v304q0 27 -6.5 35.5t-28.5 12.5l-25 3v16zM24 649h1q21 0 33.5 -13.5t12.5 -34.5q-1 -21 -13.5 -34t-33.5 -13q-22 0 -35 13t-13 34t13.5 34.5t34.5 13.5zM204 649h1q21 0 34 -13.5
t12 -34.5q0 -21 -12.5 -34t-34.5 -13t-35 13t-13 34t13.5 34.5t34.5 13.5z" />
    <glyph glyph-name="eth" unicode="&#xf0;" horiz-adv-x="523" 
d="M135 230v-1q0 -222 124 -222q126 0 126 223q0 124 -19 166q-9 18 -13 22q-32 35 -94 35q-124 0 -124 -223zM432 673l-108 -51q76 -60 116 -158t40 -219q0 -257 -221 -257q-110 0 -165 63.5t-55 178.5q0 116 55.5 179.5t168.5 63.5q15 0 43 -5t41 -12l2 3q-25 74 -80 138
l-127 -58l-9 20l120 56q-87 77 -155 99v9l19 4q87 -20 187 -88l118 55z" />
    <glyph glyph-name="ntilde" unicode="&#xf1;" horiz-adv-x="551" 
d="M473 323v-241q0 -41 9.5 -50t55.5 -13v-19h-218v19q47 3 57 12t10 51v238q0 111 -97 111q-36 0 -66.5 -17t-42.5 -41q-10 -19 -10 -51v-240q0 -41 9.5 -50t56.5 -13v-19h-217v19q45 3 55 12.5t10 50.5v295q0 32 -5 40.5t-26 11.5l-30 3v16l133 24l13 -73l32.5 21t34.5 22
t29.5 15t36.5 12.5t37 3.5q65 0 99 -39t34 -111zM395 639l11 -4q-9 -40 -25.5 -62t-49.5 -22q-17 0 -64 17q-50 16 -61 16q-19 0 -30 -8.5t-23 -31.5l-11 7q20 80 79 80q17 0 64 -15q44 -16 59 -16q36 0 51 39z" />
    <glyph glyph-name="ograve" unicode="&#xf2;" horiz-adv-x="520" 
d="M259 473h1q220 0 220 -243q0 -242 -221 -242q-111 0 -165.5 62.5t-54.5 179.5t54.5 180t165.5 63zM135 230v-1q0 -104 31.5 -163t92.5 -59q63 0 94.5 59t31.5 164q0 104 -31.5 163.5t-94.5 59.5q-61 0 -92.5 -59.5t-31.5 -163.5zM283 507l-100 83q-4 4 -12.5 10.5t-12 10
l-8.5 8.5t-7 9.5t-2 9.5q0 12 10.5 22.5t21.5 10.5q12 0 22 -10.5t27 -36.5l70 -109z" />
    <glyph glyph-name="oacute" unicode="&#xf3;" horiz-adv-x="520" 
d="M259 473h1q220 0 220 -243q0 -242 -221 -242q-111 0 -165.5 62.5t-54.5 179.5t54.5 180t165.5 63zM135 230v-1q0 -104 31.5 -163t92.5 -59q63 0 94.5 59t31.5 164q0 104 -31.5 163.5t-94.5 59.5q-61 0 -92.5 -59.5t-31.5 -163.5zM243 507l-9 8l69 109q17 26 27 36.5
t22 10.5q11 0 21.5 -10.5t10.5 -22.5q0 -5 -2 -9.5t-7 -9.5l-8.5 -8.5t-12 -10t-12.5 -10.5z" />
    <glyph glyph-name="ocircumflex" unicode="&#xf4;" horiz-adv-x="520" 
d="M259 473h1q220 0 220 -243q0 -242 -221 -242q-111 0 -165.5 62.5t-54.5 179.5t54.5 180t165.5 63zM135 230v-1q0 -104 31.5 -163t92.5 -59q63 0 94.5 59t31.5 164q0 104 -31.5 163.5t-94.5 59.5q-61 0 -92.5 -59.5t-31.5 -163.5zM360 515l-10 -8l-80 80q-12 9 -21 2
l-79 -82l-10 8l91 156h17z" />
    <glyph glyph-name="otilde" unicode="&#xf5;" horiz-adv-x="520" 
d="M259 473h1q220 0 220 -243q0 -242 -221 -242q-111 0 -165.5 62.5t-54.5 179.5t54.5 180t165.5 63zM135 230v-1q0 -104 31.5 -163t92.5 -59q63 0 94.5 59t31.5 164q0 104 -31.5 163.5t-94.5 59.5q-61 0 -92.5 -59.5t-31.5 -163.5zM379 639l11 -4q-9 -40 -25.5 -62
t-49.5 -22q-17 0 -64 17q-50 16 -61 16q-19 0 -30 -8.5t-23 -31.5l-11 7q20 80 79 80q17 0 64 -15q44 -16 59 -16q36 0 51 39z" />
    <glyph glyph-name="odieresis" unicode="&#xf6;" horiz-adv-x="520" 
d="M259 473h1q220 0 220 -243q0 -242 -221 -242q-111 0 -165.5 62.5t-54.5 179.5t54.5 180t165.5 63zM135 230v-1q0 -104 31.5 -163t92.5 -59q63 0 94.5 59t31.5 164q0 104 -31.5 163.5t-94.5 59.5q-61 0 -92.5 -59.5t-31.5 -163.5zM170 649h1q21 0 33.5 -13.5t12.5 -34.5
q-1 -21 -13.5 -34t-33.5 -13q-22 0 -35 13t-13 34t13.5 34.5t34.5 13.5zM350 649h1q21 0 34 -13.5t12 -34.5q0 -21 -12.5 -34t-34.5 -13t-35 13t-13 34t13.5 34.5t34.5 13.5z" />
    <glyph glyph-name="divide" unicode="&#xf7;" horiz-adv-x="471" 
d="M236 316h-1q-17 0 -28 12.5t-11 31.5q0 17 11.5 29t28.5 12q16 0 27.5 -12t11.5 -29q0 -19 -11 -31.5t-28 -12.5zM43 207v42h387v-42h-387zM236 53h-1q-17 0 -28 12t-11 31q0 17 11.5 29.5t28.5 12.5q16 0 27.5 -12.5t11.5 -29.5q0 -19 -11 -31t-28 -12z" />
    <glyph glyph-name="oslash" unicode="&#xf8;" horiz-adv-x="528" 
d="M431 480l-28 -46q82 -56 82 -204q0 -241 -221 -241q-70 0 -115 24l-30 -48l-18 11l28 47q-85 59 -85 207q0 117 54.5 179.5t165.5 62.5q70 0 121 -27l29 48zM164 81l192 316q-31 55 -92 55t-93 -59.5t-32 -162.5q0 -90 25 -149zM367 374l-191 -316q32 -50 88 -50
q63 0 94.5 58.5t31.5 163.5q0 86 -23 144z" />
    <glyph glyph-name="ugrave" unicode="&#xf9;" horiz-adv-x="541" 
d="M527 0h-141l-9 61l-18 -12.5l-23.5 -16.5t-26 -15.5t-31.5 -15t-33.5 -9.5t-38.5 -4q-128 0 -128 141v254q0 28 -6 37t-29 14l-24 5v16l142 15l3 -3v-333q0 -52 26 -78t69 -26q82 0 111 61q8 16 8 57v235q0 26 -6 35.5t-28 13.5l-28 5v16l145 17l2 -3v-387
q0 -38 9.5 -47.5t54.5 -13.5v-19zM294 507l-100 83q-4 4 -12.5 10.5t-12 10l-8.5 8.5t-7 9.5t-2 9.5q0 12 10.5 22.5t21.5 10.5q12 0 22 -10.5t27 -36.5l70 -109z" />
    <glyph glyph-name="uacute" unicode="&#xfa;" horiz-adv-x="541" 
d="M527 0h-141l-9 61l-18 -12.5l-23.5 -16.5t-26 -15.5t-31.5 -15t-33.5 -9.5t-38.5 -4q-128 0 -128 141v254q0 28 -6 37t-29 14l-24 5v16l142 15l3 -3v-333q0 -52 26 -78t69 -26q82 0 111 61q8 16 8 57v235q0 26 -6 35.5t-28 13.5l-28 5v16l145 17l2 -3v-387
q0 -38 9.5 -47.5t54.5 -13.5v-19zM244 507l-9 8l69 109q17 26 27 36.5t22 10.5q11 0 21.5 -10.5t10.5 -22.5q0 -5 -2 -9.5t-7 -9.5l-8.5 -8.5t-12 -10t-12.5 -10.5z" />
    <glyph glyph-name="ucircumflex" unicode="&#xfb;" horiz-adv-x="541" 
d="M527 0h-141l-9 61l-18 -12.5l-23.5 -16.5t-26 -15.5t-31.5 -15t-33.5 -9.5t-38.5 -4q-128 0 -128 141v254q0 28 -6 37t-29 14l-24 5v16l142 15l3 -3v-333q0 -52 26 -78t69 -26q82 0 111 61q8 16 8 57v235q0 26 -6 35.5t-28 13.5l-28 5v16l145 17l2 -3v-387
q0 -38 9.5 -47.5t54.5 -13.5v-19zM365 515l-10 -8l-80 80q-12 9 -21 2l-79 -82l-10 8l91 156h17z" />
    <glyph glyph-name="udieresis" unicode="&#xfc;" horiz-adv-x="541" 
d="M527 0h-141l-9 61l-18 -12.5l-23.5 -16.5t-26 -15.5t-31.5 -15t-33.5 -9.5t-38.5 -4q-128 0 -128 141v254q0 28 -6 37t-29 14l-24 5v16l142 15l3 -3v-333q0 -52 26 -78t69 -26q82 0 111 61q8 16 8 57v235q0 26 -6 35.5t-28 13.5l-28 5v16l145 17l2 -3v-387
q0 -38 9.5 -47.5t54.5 -13.5v-19zM171 649h1q21 0 33.5 -13.5t12.5 -34.5q-1 -21 -13.5 -34t-33.5 -13q-22 0 -35 13t-13 34t13.5 34.5t34.5 13.5zM351 649h1q21 0 34 -13.5t12 -34.5q0 -21 -12.5 -34t-34.5 -13t-35 13t-13 34t13.5 34.5t34.5 13.5z" />
    <glyph glyph-name="yacute" unicode="&#xfd;" horiz-adv-x="467" 
d="M318 461h166v-19q-36 -2 -47 -9t-25 -36q-14 -31 -41.5 -109l-73.5 -211.5l-60 -173.5q-17 -49 -35.5 -82t-37 -47.5t-32.5 -19.5t-31 -5q-28 0 -44.5 14t-16.5 33q0 20 14 37t28 17q8 0 13 -5q22 -25 51 -25q21 0 39.5 27.5t39.5 98.5q5 20 -12 60q-45 131 -153 393
q-9 21 -17.5 29.5t-18.5 10.5t-36 3v19h219v-19l-37 -4q-15 -1 -18.5 -6t0.5 -18l63 -168.5l60 -158.5h1q84 238 104 322q6 25 -22 28l-40 5v19zM237 507l-9 8l69 109q17 26 27 36.5t22 10.5q11 0 21.5 -10.5t10.5 -22.5q0 -5 -2 -9.5t-7 -9.5l-8.5 -8.5t-12 -10
t-12.5 -10.5z" />
    <glyph glyph-name="thorn" unicode="&#xfe;" horiz-adv-x="539" 
d="M163 401l23 16t30.5 20.5t29.5 16.5t38 14.5t38 4.5q177 0 177 -230q0 -134 -64 -194.5t-169 -60.5q-65 0 -103 20v-171q0 -38 12 -46.5t72 -11.5v-19h-240v19q50 3 60 11.5t10 46.5v798q0 30 -6 40t-23 12l-35 5v15l147 20l3 -5v-321zM163 317v-186q0 -39 6 -56
q10 -32 37 -50t63 -18q68 0 101.5 60.5t33.5 166.5q0 57 -13.5 99t-34 62t-39 29t-35.5 9q-79 0 -109 -62q-10 -20 -10 -54z" />
    <glyph glyph-name="ydieresis" unicode="&#xff;" horiz-adv-x="467" 
d="M318 461h166v-19q-36 -2 -47 -9t-25 -36q-14 -31 -41.5 -109l-73.5 -211.5l-60 -173.5q-17 -49 -35.5 -82t-37 -47.5t-32.5 -19.5t-31 -5q-28 0 -44.5 14t-16.5 33q0 20 14 37t28 17q8 0 13 -5q22 -25 51 -25q21 0 39.5 27.5t39.5 98.5q5 20 -12 60q-45 131 -153 393
q-9 21 -17.5 29.5t-18.5 10.5t-36 3v19h219v-19l-37 -4q-15 -1 -18.5 -6t0.5 -18l63 -168.5l60 -158.5h1q84 238 104 322q6 25 -22 28l-40 5v19zM158 649h1q21 0 33.5 -13.5t12.5 -34.5q-1 -21 -13.5 -34t-33.5 -13q-22 0 -35 13t-13 34t13.5 34.5t34.5 13.5zM338 649h1
q21 0 34 -13.5t12 -34.5q0 -21 -12.5 -34t-34.5 -13t-35 13t-13 34t13.5 34.5t34.5 13.5z" />
    <glyph glyph-name="dotlessi" unicode="&#x131;" horiz-adv-x="248" 
d="M25 448l143 24l3 -2v-393q0 -38 9.5 -46t55.5 -12v-19h-215v19q47 5 55.5 12t8.5 46v304q0 27 -6.5 35.5t-28.5 12.5l-25 3v16z" />
    <glyph glyph-name="Lslash" unicode="&#x141;" horiz-adv-x="552" 
d="M352 440l11 -22l-155 -87v-229q0 -56 18.5 -68t105.5 -12q80 0 119.5 32t58.5 130h21l-14 -184h-487v19q62 4 73 12.5t11 48.5v200l-82 -47l-10 21l92 52v274q0 41 -11 49t-73 12v19h269v-19q-66 -5 -78.5 -13t-12.5 -48v-221z" />
    <glyph glyph-name="lslash" unicode="&#x142;" horiz-adv-x="259" 
d="M248 454l-73 -46v-336q0 -35 10 -42t59 -11v-19h-224v19q50 3 59.5 10.5t9.5 42.5v282l-53 -33l-12 22l65 40v252q0 30 -5.5 40t-23.5 12l-35 6v15l147 19l3 -5v-284l62 39z" />
    <glyph glyph-name="OE" unicode="&#x152;" horiz-adv-x="973" 
d="M510 71v521q0 53 -116 53q-244 0 -244 -310q0 -46 5.5 -87.5t21.5 -85.5t41.5 -75.5t69 -51.5t99.5 -20q123 0 123 56zM606 604v-247h115q61 0 85 21.5t31 71.5h21v-219h-21q-9 57 -32 79t-84 22h-115v-230q0 -53 20 -66.5t101 -13.5q93 0 136 32.5t61 122.5h21l-20 -177
h-359l-169 -5q-71 -2 -126 8t-107 44q-57 36 -89 110t-32 173q0 98 37 170t96 109q58 36 112 47t127 9l149 -5h341v-162h-21q-12 78 -44.5 109t-117.5 31h-81q-23 0 -29 -6t-6 -28z" />
    <glyph glyph-name="oe" unicode="&#x153;" horiz-adv-x="811" 
d="M135 230v-1q0 -104 31.5 -163t92.5 -59q63 0 94.5 59t31.5 164q0 104 -31.5 163.5t-94.5 59.5q-61 0 -92.5 -59.5t-31.5 -163.5zM737 248h-261q-1 -41 4.5 -77t19.5 -70t43 -54t70 -20q35 0 61.5 10t43 28.5t25 33.5t17.5 37l11 -6q-19 -62 -62.5 -101.5t-115.5 -40.5
q-115 -1 -164 72q-52 -72 -170 -72q-111 0 -165.5 62.5t-54.5 179.5t54.5 180t165.5 63q122 0 172 -78q52 78 162 78q49 0 85 -15t54 -35t28.5 -49.5t13 -49t2.5 -41.5q0 -35 -39 -35zM477 270h172q22 0 29 12t7 37q0 19 -3 38t-12 42.5t-30.5 38.5t-52.5 15q-34 0 -58 -22
t-34 -55.5t-14 -59t-4 -46.5z" />
    <glyph glyph-name="Scaron" unicode="&#x160;" horiz-adv-x="512" 
d="M424 497h-21q-8 74 -49.5 117t-103.5 43q-58 0 -87.5 -35t-29.5 -91q0 -57 34.5 -89t97.5 -59q37 -15 48.5 -20t41 -19t39 -22l28 -24.5t24.5 -32t12 -37.5t6 -49q0 -80 -55.5 -137.5t-170.5 -57.5q-106 0 -183 47l-9 164h21q20 -85 64.5 -138t107.5 -53q66 0 103 34.5
t37 104.5q0 31 -11.5 55t-36 42.5t-43.5 28.5t-53 25q-45 19 -72.5 34t-55.5 38t-41 53t-13 70q0 90 58.5 139t150.5 49q94 0 162 -36v-144zM135 822l7 12l102 -53q14 -11 26 -1l100 54l8 -12l-113 -117h-18z" />
    <glyph glyph-name="scaron" unicode="&#x161;" horiz-adv-x="402" 
d="M337 325h-16q-32 128 -121 128q-35 0 -57.5 -22.5t-22.5 -59.5q0 -39 25 -59t76 -37q81 -29 114 -56.5t33 -84.5q0 -63 -50 -104.5t-133 -41.5q-66 0 -132 31l-10 136h17q16 -66 49.5 -107t86.5 -41q41 0 68 21.5t27 63.5q0 38 -26 60.5t-75 39.5q-69 24 -105 54t-36 83
q0 66 45 105t120 39q67 0 123 -27v-121zM101 662l10 8l80 -80q12 -9 21 -1l79 81l10 -8l-91 -155h-17z" />
    <glyph glyph-name="Ydieresis" unicode="&#x178;" horiz-adv-x="574" 
d="M449 0h-294v19q72 4 86 13t14 48v180q0 25 -15 52q-51 100 -162 282q-17 28 -33.5 37.5t-53.5 10.5v18h249v-18l-51 -5q-27 -2 -14 -25q40 -79 161 -295h2q106 206 136 275q19 43 -17 46l-38 4v18h189v-18q-44 -2 -64 -17.5t-47 -57.5q-60 -101 -134 -251
q-14 -27 -14 -58v-178q0 -39 14 -48t86 -13v-19zM215 806h1q21 0 34 -14t13 -35q-1 -22 -13.5 -35t-34.5 -13t-35.5 13.5t-13.5 34.5t13.5 35t35.5 14zM398 806h1q22 0 35 -14t12 -35q0 -21 -13 -34.5t-35 -13.5t-35 13.5t-13 34.5t13.5 35t34.5 14z" />
    <glyph glyph-name="Zcaron" unicode="&#x17d;" horiz-adv-x="596" 
d="M44 660h507l3 -8l-423 -630h208q110 0 154.5 32.5t58.5 121.5h21l-20 -175l-535 -1l-4 11q291 416 427 627h-203q-55 0 -87.5 -7t-50 -28t-24 -44.5t-11.5 -70.5h-21v172zM173 812l7 12l102 -53q14 -11 26 -1l100 54l8 -12l-113 -117h-18z" />
    <glyph glyph-name="zcaron" unicode="&#x17e;" horiz-adv-x="445" 
d="M411 461l4 -8l-282 -433h128q75 0 105 27.5t43 98.5h22l-18 -146h-385l-5 10l90.5 132.5l112 170.5l83.5 128h-113q-74 0 -97.5 -24t-34.5 -101h-21v145h368zM131 662l10 8l80 -80q12 -9 21 -1l79 81l10 -8l-91 -155h-17z" />
    <glyph glyph-name="florin" unicode="&#x192;" horiz-adv-x="499" 
d="M415 338h-129l-33 -229q-8 -54 -20 -94.5t-31.5 -77.5t-50.5 -57t-72 -20q-42 0 -69.5 16.5t-27.5 42.5q0 17 16 31.5t29 14.5q18 0 23 -16q26 -69 51 -69q15 0 24 15t18 62q21 112 53 381h-96v25h100l11 65q7 45 17 79.5t29 71.5t51.5 57.5t75.5 20.5q46 0 69.5 -19
t23.5 -46q0 -15 -13.5 -26t-30.5 -11q-19 0 -22 15q-8 37 -17.5 52t-23.5 15q-23 0 -37 -28t-25 -111l-18 -135h125v-25z" />
    <glyph glyph-name="circumflex" unicode="&#x2c6;" horiz-adv-x="376" 
d="M288 515l-10 -8l-80 80q-12 9 -21 2l-79 -82l-10 8l91 156h17z" />
    <glyph glyph-name="caron" unicode="&#x2c7;" horiz-adv-x="376" 
d="M88 662l10 8l80 -80q12 -9 21 -1l79 81l10 -8l-91 -155h-17z" />
    <glyph glyph-name="uni02C9" unicode="&#x2c9;" horiz-adv-x="376" 
d="M70 617h235v-48h-235v48z" />
    <glyph glyph-name="breve" unicode="&#x2d8;" horiz-adv-x="376" 
d="M187 510h-1q-59 0 -78.5 36t-19.5 103h16q0 -31 20 -54t64 -23q84 0 84 77h17q0 -65 -21 -102t-81 -37z" />
    <glyph glyph-name="dotaccent" unicode="&#x2d9;" horiz-adv-x="376" 
d="M188 649h1q21 0 34.5 -13.5t12.5 -34.5q0 -22 -13 -35t-35 -13t-35 13t-13 35q0 21 13.5 34.5t34.5 13.5z" />
    <glyph glyph-name="ring" unicode="&#x2da;" horiz-adv-x="376" 
d="M188 667h-1q-41 0 -41 -67q0 -69 42 -69t42 69q0 67 -42 67zM188 683h1q37 0 62.5 -20.5t25.5 -62.5q0 -43 -25.5 -63.5t-63.5 -20.5t-63.5 20.5t-25.5 63.5t25.5 63t63.5 20z" />
    <glyph glyph-name="ogonek" unicode="&#x2db;" horiz-adv-x="378" 
d="M229 11h12q-76 -61 -76 -128q0 -26 17.5 -42t42.5 -16q32 0 60 23l7 -11q-49 -65 -106 -65q-84 0 -84 83q0 45 38 88t89 68z" />
    <glyph glyph-name="tilde" unicode="&#x2dc;" horiz-adv-x="376" 
d="M307 639l11 -4q-9 -40 -25.5 -62t-49.5 -22q-17 0 -64 17q-50 16 -61 16q-19 0 -30 -8.5t-23 -31.5l-11 7q20 80 79 80q17 0 64 -15q44 -16 59 -16q36 0 51 39z" />
    <glyph glyph-name="hungarumlaut" unicode="&#x2dd;" horiz-adv-x="376" 
d="M116 507l-11 5l46 109q7 16 10 21.5l8 14.5t9.5 11.5t10.5 2.5q11 0 23 -9t12 -19q0 -6 -3 -12t-5.5 -9.5t-10.5 -13t-11 -13.5zM244 507l-12 5l46 109q7 15 10.5 21.5t8.5 14.5t9.5 11t9.5 3q11 0 23 -9t12 -19q0 -4 -1 -8t-2.5 -6.5t-5 -7.5t-5.5 -7.5t-8 -9t-8 -9.5z
" />
    <glyph glyph-name="uni0394" unicode="&#x394;" horiz-adv-x="624" 
d="M30 0v16q0 1 50.5 126.5l109.5 277.5t90 240h60l257 -641v-19h-567zM476 74l-196 512h-2l-189 -511q-8 -17 -3 -25.5t27 -8.5h334q23 0 29 6t0 27z" />
    <glyph glyph-name="uni03A9" unicode="&#x3a9;" horiz-adv-x="756" 
d="M334 0h-274l-19 143h19q19 -47 31 -62t31 -15h141v7q-185 74 -185 290q0 149 81 230.5t223 81.5q146 0 222 -80t76 -228q0 -107 -53 -183t-140 -113v-5h141q15 0 25 4t22.5 21.5t21.5 51.5h16l-20 -143h-269v44q153 70 153 323q0 137 -48 212.5t-149 75.5
q-98 0 -148.5 -73.5t-50.5 -211.5q0 -126 40.5 -211t112.5 -115v-44z" />
    <glyph glyph-name="uni03BC" unicode="&#x3bc;" horiz-adv-x="561" 
d="M234 -11h-1q-45 0 -73 28q0 -26 1.5 -71.5t4 -97.5t3.5 -70l-4 -7q-64 0 -88 37l12 277v376h86v-323q0 -53 26.5 -80t69.5 -27q73 0 108 69q7 13 7 57v304h86v-389q0 -42 38 -42q18 0 42 24l7 -8q-36 -55 -106 -55q-37 0 -52 20t-16 61q-24 -25 -40.5 -39.5t-47 -29
t-63.5 -14.5z" />
    <glyph glyph-name="pi" unicode="&#x3c0;" horiz-adv-x="507" 
d="M128 393q-86 -3 -117 -15l-4 11q22 22 36 33.5t46 22t75 10.5h277q31 0 43 23l13 -8l-36 -77h-68v-300q0 -36 10 -51t31 -15q23 0 45 13l4 -14q-13 -15 -39.5 -26t-57.5 -11q-43 0 -61 26t-18 97v281h-146q1 -14 1 -218q0 -96 -21 -144.5t-49 -48.5q-16 0 -26 7.5
t-12 14.5t-2 14q0 12 5 17q40 32 60 77t20 128q0 94 -9 153z" />
    <glyph glyph-name="figuredash" unicode="&#x2012;" horiz-adv-x="295" 
d="M38 338h220v-48h-220v48z" />
    <glyph glyph-name="endash" unicode="&#x2013;" horiz-adv-x="512" 
d="M38 256h436v-47h-436v47z" />
    <glyph glyph-name="emdash" unicode="&#x2014;" horiz-adv-x="829" 
d="M38 256h754v-47h-754v47z" />
    <glyph glyph-name="quoteleft" unicode="&#x2018;" horiz-adv-x="182" 
d="M150 718q-44 -62 -44 -130q0 -34 19 -66q-10 -9 -30.5 -18.5t-35.5 -7.5q-24 22 -24 58q0 43 26 83.5t75 91.5z" />
    <glyph glyph-name="quoteright" unicode="&#x2019;" horiz-adv-x="182" 
d="M28 502q43 62 43 131q0 34 -18 65q8 9 29 19t36 8q25 -23 25 -59q0 -42 -26.5 -82.5t-76.5 -91.5z" />
    <glyph glyph-name="quotesinglbase" unicode="&#x201a;" horiz-adv-x="179" 
d="M13 -113q27 37 38.5 70.5t11.5 80.5q0 27 -18 56q10 9 32.5 19t37.5 8q24 -22 24 -55q0 -46 -29.5 -91t-83.5 -98z" />
    <glyph glyph-name="quotedblleft" unicode="&#x201c;" horiz-adv-x="305" 
d="M150 718q-44 -62 -44 -130q0 -35 19 -65q-10 -9 -30.5 -18.5t-35.5 -7.5q-24 24 -24 57q0 43 26 83.5t75 91.5zM282 718q-43 -60 -43 -130q0 -35 19 -65q-37 -30 -66 -26q-25 23 -25 57q0 43 26.5 83.5t75.5 91.5z" />
    <glyph glyph-name="quotedblright" unicode="&#x201d;" horiz-adv-x="305" 
d="M25 503q43 60 43 131q0 33 -18 64q8 9 29 19t36 8q25 -23 25 -59q0 -41 -27 -82t-75 -91zM159 503q42 61 42 131q0 36 -18 64q9 9 30 19t35 8q26 -24 26 -59q0 -41 -27 -82t-76 -91z" />
    <glyph glyph-name="quotedblbase" unicode="&#x201e;" 
d="M13 -113q27 37 38.5 70.5t11.5 80.5q0 27 -18 56q10 9 32.5 19t37.5 8q24 -22 24 -55q0 -46 -29.5 -91t-83.5 -98zM155 -113q28 37 39.5 70.5t11.5 80.5q0 27 -18 56q10 9 32.5 19t37.5 8q24 -22 24 -55q0 -46 -29.5 -91t-83.5 -98z" />
    <glyph glyph-name="dagger" unicode="&#x2020;" horiz-adv-x="450" 
d="M191 267v1q0 10 26 76q-165 -28 -173 -29q-12 -2 -12 43q1 35 9 34q6 -1 36.5 -6.5l72 -13.5t67.5 -12q-28 168 -39 217q-2 7 21 10t46.5 0t22.5 -12q-3 -23 -35 -215l68.5 12l69.5 12l35 6q12 2 12 -43q-1 -35 -9 -34q-4 1 -72 13.5t-104 17.5l11 -29.5l11.5 -30.5
t4.5 -15q0 -11 -13 -216t-13 -217h-15q0 20 -14 222t-14 209z" />
    <glyph glyph-name="daggerdbl" unicode="&#x2021;" horiz-adv-x="454" 
d="M260 300v-1q0 -5 -6 -23t-12 -34l-5 -16q124 21 169 30q7 1 10 -18.5t1 -39.5t-8 -19l-172 31q18 -52 18 -67q0 -5 -9 -153t-9 -154h-18q0 11 -10.5 157.5t-10.5 150.5q0 15 19 66l-68.5 -12.5l-69.5 -12.5t-34 -6q-7 -1 -10 19t-1 40t8 19q6 0 36.5 -6l72 -13.5
t67.5 -11.5q-23 73 -23 74t23 70q-130 -22 -170 -30q-7 -1 -10 18.5t-1 39.5t8 19q6 0 36 -5.5l72 -13.5t66 -12q-4 25 -12.5 68t-16.5 79.5t-9 41.5q-1 7 22 9.5t46 0t22 -9.5q-1 -10 -7.5 -43l-15.5 -77t-13 -69q132 24 174 30q12 2 12 -42q0 -36 -9 -35q-6 0 -36 5.5
l-72.5 13.5t-67.5 12l10.5 -27t10 -27.5t3.5 -15.5z" />
    <glyph glyph-name="bullet" unicode="&#x2022;" horiz-adv-x="358" 
d="M179 363h1q53 0 88 -36.5t35 -93.5q0 -62 -34.5 -96.5t-89.5 -34.5q-56 0 -90 35.5t-34 95.5q0 58 34.5 94t89.5 36z" />
    <glyph glyph-name="onedotenleader" unicode="&#x2024;" horiz-adv-x="470" 
d="M234 -11h-1q-23 0 -37 15t-14 39t14 40t38 16t38 -15.5t14 -40.5q-1 -24 -14.5 -39t-37.5 -15z" />
    <glyph glyph-name="twodotenleader" unicode="&#x2025;" horiz-adv-x="470" 
d="M118 -11h-1q-24 0 -37.5 15t-13.5 39q0 25 14 40.5t38 15.5t38 -15.5t13 -40.5q0 -25 -13.5 -39.5t-37.5 -14.5zM353 -11h-1q-23 0 -37 15t-14 39q0 25 14 41t38 16t38 -16.5t13 -40.5q0 -24 -13.5 -39t-37.5 -15z" />
    <glyph glyph-name="ellipsis" unicode="&#x2026;" horiz-adv-x="838" 
d="M99 -11h-1q-23 0 -37 15t-14 39t14 40t38 16t38 -15.5t14 -40.5q-1 -25 -14.5 -39.5t-37.5 -14.5zM375 -11h-1q-23 0 -37 15t-14 39t14 40t38 16t38 -15.5t14 -40.5q0 -24 -14 -39t-38 -15zM661 -11h-1q-24 0 -37.5 15t-13.5 39q0 25 14 40.5t38 15.5t37.5 -15.5
t13.5 -40.5t-13.5 -39.5t-37.5 -14.5z" />
    <glyph glyph-name="perthousand" unicode="&#x2030;" horiz-adv-x="1021" 
d="M526 312h-1q-73 0 -73 -151q0 -71 18.5 -111.5t55.5 -40.5q74 0 74 152q0 151 -74 151zM526 -11h-1q-70 0 -105.5 44.5t-35.5 127.5t35.5 127.5t106.5 44.5q70 0 106 -45t36 -127q0 -83 -36 -127.5t-106 -44.5zM571 670l24 -20l-468 -693l-19 20l398 588h-199
q13 -39 13 -98q0 -83 -35.5 -127.5t-106.5 -44.5q-70 0 -105 44.5t-35 127.5q0 172 141 172q57 0 99 -32q17 -12 38 -12h161q24 0 37.5 6t25.5 23zM179 619h-1q-73 0 -73 -152q0 -151 74 -151q36 0 54.5 40.5t18.5 110.5q0 152 -73 152zM842 312h-1q-72 0 -72 -151
q0 -152 74 -152q73 0 73 152q0 151 -74 151zM842 -11h-1q-140 0 -140 172t141 172t141 -172t-141 -172z" />
    <glyph glyph-name="guilsinglleft" unicode="&#x2039;" horiz-adv-x="250" 
d="M200 414l12 -10l-93 -165q-6 -10 0 -19l93 -165l-12 -11l-160 177q-7 10 0 17z" />
    <glyph glyph-name="guilsinglright" unicode="&#x203a;" horiz-adv-x="250" 
d="M39 403l11 11l161 -178q7 -8 0 -17l-161 -175l-11 10l93 164q5 9 0 20z" />
    <glyph glyph-name="fraction" unicode="&#x2044;" horiz-adv-x="138" 
d="M-128 -32l-19 14l411 676l20 -11z" />
    <glyph glyph-name="zero.superior" unicode="&#x2070;" 
d="M160 779h1q135 0 135 -184q0 -182 -136 -182q-137 0 -137 182q0 184 137 184zM160 764h-1q-68 0 -68 -169q0 -167 69 -167q68 0 68 167q0 169 -68 169z" />
    <glyph glyph-name="four.superior" unicode="&#x2074;" 
d="M179 521h-150l-5 15q104 158 168 237h47v-229h56v-23h-56v-59q0 -20 19 -23l30 -5v-16h-168v16l40 5q19 2 19 23v59zM56 544h123v183h-2q-91 -134 -121 -183z" />
    <glyph glyph-name="five.superior" unicode="&#x2075;" 
d="M72 773h209l2 -3l-23 -51h-158q-14 0 -16 -12l-14 -106q47 36 101 36q119 0 119 -102q0 -122 -136 -122q-57 0 -91.5 20.5t-34.5 49.5q0 16 11 26t26 10q13 0 21 -18q22 -73 71 -73q32 0 48 26.5t16 69.5q0 88 -74 88q-50 0 -84 -39l-12 13l16 184z" />
    <glyph glyph-name="six.superior" unicode="&#x2076;" 
d="M179 779h1q47 0 77 -19.5t30 -48.5q0 -12 -11 -21t-22 -9q-16 0 -22 18q-18 65 -57 65q-81 0 -81 -172q48 50 100 50q48 0 79 -26.5t31 -78.5q0 -57 -33.5 -90.5t-101.5 -33.5q-139 0 -139 172q0 83 35.5 138.5t113.5 55.5zM170 428h1q67 0 67 95q0 44 -21 68t-46 24
q-31 0 -52.5 -20t-21.5 -46q0 -51 17 -86t56 -35z" />
    <glyph glyph-name="seven.superior" unicode="&#x2077;" 
d="M45 773h250l3 -4q-19 -73 -79 -164q-35 -53 -35 -153q0 -22 -7 -30.5t-27 -8.5q-16 0 -24.5 7.5t-8.5 29.5q0 26 14 57.5t25.5 47.5l39.5 53q53 67 61 111h-171q-10 0 -15 -0.5t-9.5 -5.5t-6.5 -8t-8 -15.5t-11 -21.5l-14 4z" />
    <glyph glyph-name="eight.superior" unicode="&#x2078;" 
d="M161 598h-1q-67 0 -67 -83q0 -41 18.5 -64t49.5 -23t49.5 22.5t18.5 64.5q0 38 -18 60.5t-50 22.5zM161 413h-1q-136 0 -136 105q0 42 26 63.5t56 26.5v3q-29 6 -48.5 25.5t-19.5 51.5q0 40 29 65.5t94 25.5q123 0 123 -91q0 -32 -21 -51.5t-50 -25.5v-3q31 -5 58 -26.5
t27 -63.5q0 -105 -137 -105zM161 764h-1q-27 0 -42.5 -20t-15.5 -58q0 -33 16 -52.5t43 -19.5q58 0 58 72q0 33 -15.5 55.5t-42.5 22.5z" />
    <glyph glyph-name="nine.superior" unicode="&#x2079;" 
d="M160 779h1q127 0 127 -168q0 -198 -139 -198q-50 0 -80.5 18.5t-30.5 46.5q0 13 10 22.5t23 9.5q17 0 24 -21q17 -61 62 -61q37 0 51 46t16 129l-1 1q-37 -40 -88 -40q-47 0 -77 26t-30 75q0 56 34.5 85t97.5 29zM156 765h-1q-61 0 -61 -92q0 -36 17 -59t50 -23
q60 0 60 63q0 57 -19 84t-46 27z" />
    <glyph glyph-name="parenleft.superior" unicode="&#x207d;" horiz-adv-x="226" 
d="M53 571v1q0 78 28 134q39 76 116 84v-12q-35 -9 -65 -59t-30 -147q0 -96 30 -145.5t65 -59.5v-12q-79 7 -116 79q-28 57 -28 137z" />
    <glyph glyph-name="parenright.superior" unicode="&#x207e;" horiz-adv-x="226" 
d="M173 574v-1q0 -78 -28 -134q-39 -76 -115 -84l-2 12q36 9 66.5 58.5t30.5 146.5q0 96 -30.5 146t-66.5 59l2 13q78 -7 115 -79q28 -57 28 -137z" />
    <glyph glyph-name="n.superior" unicode="&#x207f;" horiz-adv-x="352" 
d="M294 462v-139q0 -18 7 -23.5t36 -6.5v-16h-142v14q28 3 34.5 8t6.5 23v137q0 60 -57 60q-26 0 -45 -18t-19 -52v-127q0 -17 6.5 -22.5t33.5 -8.5v-14h-142v14q29 3 36 8.5t7 23.5v170q0 13 -3.5 18t-14.5 7l-22 5v10l89 14l9 -45q21 16 32.5 23.5t30 14.5t37.5 7
q80 0 80 -85z" />
    <glyph glyph-name="zero.inferior" unicode="&#x2080;" 
d="M160 243h1q135 0 135 -184q0 -182 -136 -182q-137 0 -137 182q0 184 137 184zM160 228h-1q-68 0 -68 -169q0 -167 69 -167q68 0 68 167q0 169 -68 169z" />
    <glyph glyph-name="one.inferior" unicode="&#x2081;" 
d="M261 -118h-193v16l44 5q13 2 17.5 6.5t4.5 18.5v254q0 22 -13 23l-52 6v13l122 19l4 -3v-312q0 -13 4.5 -18t16.5 -7l45 -5v-16z" />
    <glyph glyph-name="two.inferior" unicode="&#x2082;" 
d="M268 -118h-239l-4 6q4 29 34 67.5t84 74.5q66 45 66 120q0 32 -13 55t-42 23q-30 0 -45 -20.5t-23 -63.5q-4 -20 -23 -20q-14 0 -22.5 9t-8.5 24q0 32 34.5 59t92.5 27q57 0 87.5 -26.5t30.5 -75.5q0 -42 -23 -64.5t-88 -58.5q-81 -44 -94 -82h157q19 0 27.5 9t23.5 41
l15 -5z" />
    <glyph glyph-name="three.inferior" unicode="&#x2083;" 
d="M87 70v1q0 16 18 16q9 0 27 -2.5t28 -2.5q41 0 41 70q0 76 -50 76q-47 0 -63 -76q-3 -16 -17 -16t-24 8.5t-10 23.5q0 27 33 51t86 24q48 0 80 -20.5t32 -66.5q0 -19 -7 -33t-14 -21.5t-23.5 -14.5t-20.5 -8l-21 -5v-1q15 -1 29.5 -4.5t33.5 -12.5t30.5 -27t11.5 -44
q0 -108 -138 -108q-55 0 -89 20t-34 49q0 16 11.5 26.5t26.5 10.5q12 0 19 -18q11 -36 28 -54.5t45 -18.5q60 0 60 90q0 43 -18.5 61t-36.5 18q-16 0 -35 -3.5t-21 -3.5q-18 0 -18 16z" />
    <glyph glyph-name="four.inferior" unicode="&#x2084;" 
d="M179 -15h-150l-5 15q104 158 168 237h47v-229h56v-23h-56v-59q0 -20 19 -23l30 -5v-16h-168v16l40 5q19 2 19 23v59zM56 8h123v183h-2q-91 -134 -121 -183z" />
    <glyph glyph-name="five.inferior" unicode="&#x2085;" 
d="M72 237h209l2 -3l-23 -51h-158q-14 0 -16 -12l-14 -106q47 36 101 36q119 0 119 -102q0 -122 -136 -122q-57 0 -91.5 20.5t-34.5 49.5q0 16 11 26t26 10q13 0 21 -18q22 -73 71 -73q32 0 48 26.5t16 69.5q0 88 -74 88q-50 0 -84 -39l-12 13l16 184z" />
    <glyph glyph-name="six.inferior" unicode="&#x2086;" 
d="M179 243h1q47 0 77 -19.5t30 -48.5q0 -12 -11 -21t-22 -9q-16 0 -22 18q-18 65 -57 65q-81 0 -81 -172q48 50 100 50q48 0 79 -26.5t31 -78.5q0 -57 -33.5 -90.5t-101.5 -33.5q-139 0 -139 172q0 83 35.5 138.5t113.5 55.5zM170 -108h1q67 0 67 95q0 44 -21 68t-46 24
q-31 0 -52.5 -20t-21.5 -46q0 -51 17 -86t56 -35z" />
    <glyph glyph-name="seven.inferior" unicode="&#x2087;" 
d="M45 237h250l3 -4q-19 -73 -79 -164q-35 -53 -35 -153q0 -22 -7 -30.5t-27 -8.5q-16 0 -24.5 7.5t-8.5 29.5q0 26 14 57.5t25.5 47.5l39.5 53q53 67 61 111h-171q-10 0 -15 -0.5t-9.5 -5.5t-6.5 -8t-8 -15.5t-11 -21.5l-14 4z" />
    <glyph glyph-name="eight.inferior" unicode="&#x2088;" 
d="M161 62h-1q-67 0 -67 -83q0 -41 18.5 -64t49.5 -23t49.5 22.5t18.5 64.5q0 38 -18 60.5t-50 22.5zM161 -123h-1q-136 0 -136 105q0 42 26 63.5t56 26.5v3q-29 6 -48.5 25.5t-19.5 51.5q0 40 29 65.5t94 25.5q123 0 123 -91q0 -32 -21 -51.5t-50 -25.5v-3q31 -5 58 -26.5
t27 -63.5q0 -105 -137 -105zM161 228h-1q-27 0 -42.5 -20t-15.5 -58q0 -33 16 -52.5t43 -19.5q58 0 58 72q0 33 -15.5 55.5t-42.5 22.5z" />
    <glyph glyph-name="nine.inferior" unicode="&#x2089;" 
d="M160 243h1q127 0 127 -168q0 -198 -139 -198q-50 0 -80.5 18.5t-30.5 46.5q0 13 10 22.5t23 9.5q17 0 24 -21q17 -61 62 -61q37 0 51 46t16 129l-1 1q-37 -40 -88 -40q-47 0 -77 26t-30 75q0 56 34.5 85t97.5 29zM156 229h-1q-61 0 -61 -92q0 -36 17 -59t50 -23
q60 0 60 63q0 57 -19 84t-46 27z" />
    <glyph glyph-name="parenleft.inferior" unicode="&#x208d;" horiz-adv-x="226" 
d="M53 35v1q0 78 28 134q39 76 116 84v-12q-35 -9 -65 -59t-30 -147q0 -96 30 -145.5t65 -59.5v-12q-79 7 -116 79q-28 57 -28 137z" />
    <glyph glyph-name="parenright.inferior" unicode="&#x208e;" horiz-adv-x="226" 
d="M173 38v-1q0 -78 -28 -134q-39 -76 -115 -84l-2 12q36 9 66.5 58.5t30.5 146.5q0 96 -30.5 146t-66.5 59l2 13q78 -7 115 -79q28 -57 28 -137z" />
    <glyph glyph-name="colonmonetary" unicode="&#x20a1;" horiz-adv-x="499" 
d="M461 132q-11 -45 -41.5 -76.5t-61.5 -43t-59 -11.5l-11 -93h-25l12 95q-5 1 -23.5 1t-29.5 3l-13 -99h-25l13 104q-80 27 -116.5 100.5t-36.5 197.5q0 134 56 222.5t174 94.5l7 70h25l-8 -68q37 0 53 -3l8 71h26l-10 -77q33 -8 66.5 -30.5t33.5 -56.5q0 -39 -30 -39
q-17 0 -24 22q-13 41 -51 74l-66 -557q52 0 83.5 25.5t57.5 80.5zM208 69l62 538q-49 -9 -80 -56t-42.5 -105t-11.5 -127q0 -99 15.5 -151t56.5 -99zM280 36l66 567q-19 7 -51 7l-66 -560q13 -8 51 -14z" />
    <glyph glyph-name="Euro" unicode="&#x20ac;" horiz-adv-x="499" 
d="M172 378h238v-25h-240v-20.5v-28v-20.5h240v-26h-237q12 -229 148 -229q21 0 36.5 2.5t36.5 12t39 32.5t31 58l15 -6q-33 -139 -174 -139q-216 0 -223 269h-53v26h51q0 51 1 69h-52l-1 25h56q13 129 67.5 195t164.5 66q45 0 79 -12t50.5 -29.5t24 -33.5t7.5 -29
q0 -16 -10 -27t-25 -11q-13 0 -18.5 6.5t-8.5 22.5q-21 94 -96 94q-130 0 -147 -242z" />
    <glyph glyph-name="afii61289" unicode="&#x2113;" horiz-adv-x="368" 
d="M339 143l13 -5q-18 -83 -50 -116t-94 -33q-70 0 -92 41.5t-22 128.5v51q-8 -7 -30 -21t-27 -18l-9 13l32 25t32 27v243q0 117 28 164.5t87 47.5q57 0 76 -33.5t19 -104.5q0 -133 -134 -279v-137q0 -100 67 -100q37 0 61.5 22.5t42.5 83.5zM168 522v-214q91 116 91 261
q0 59 -11 82t-34 23q-16 0 -25 -9t-15 -43.5t-6 -99.5z" />
    <glyph glyph-name="trademark" unicode="&#x2122;" horiz-adv-x="267" 
d="M51 570v73h-13q-10 0 -14 -22q-1 -2 -1 -3h-6v32h90v-32h-6q-8 23 -14 25h-14v-73q0 -6 6 -8l11 -2v-6h-56v6l9 2q8 2 8 8zM227 635v-65q0 -8 6 -8l10 -2v-6h-47v6l7 2q4 0 4 8v66h-1l-29 -81h-6l-31 81h-2v-49q0 -25 6 -25l9 -2v-6h-39v6l10 2q6 0 6 25v48q0 6 -6 8h-10
v7h42l24 -60h1l5 15l12 30l6 15h39v-7l-10 -1q-6 0 -6 -7z" />
    <glyph glyph-name="Omega" unicode="&#x2126;" horiz-adv-x="756" 
d="M334 0h-274l-19 143h19q19 -47 31 -62t31 -15h141v7q-185 74 -185 290q0 149 81 230.5t223 81.5q146 0 222 -80t76 -228q0 -107 -53 -183t-140 -113v-5h141q15 0 25 4t22.5 21.5t21.5 51.5h16l-20 -143h-269v44q153 70 153 323q0 137 -48 212.5t-149 75.5
q-98 0 -148.5 -73.5t-50.5 -211.5q0 -126 40.5 -211t112.5 -115v-44z" />
    <glyph glyph-name="estimated" unicode="&#x212e;" horiz-adv-x="784" 
d="M754 306h-604q-4 0 -4 -4v-164q0 -12 7 -20q43 -48 109.5 -79t130.5 -31q68 0 128.5 29t103.5 79h53q-49 -58 -124.5 -92t-161.5 -34q-149 0 -255 95t-106 229q0 135 106 230t255 95q150 0 256 -95t106 -230v-8zM638 328v164q0 10 -8 20q-44 52 -107.5 80t-129.5 28
q-134 0 -239 -106q-8 -8 -8 -22v-164q0 -6 4 -6h485q3 0 3 6z" />
    <glyph glyph-name="onethird" unicode="&#x2153;" horiz-adv-x="716" 
d="M247 278h-192v16l44 5q13 2 17.5 7t4.5 18v254q0 22 -13 23l-53 6v13l123 19l3 -3v-312q0 -13 5 -18t17 -7l44 -5v-16zM139 -34l-18 15l411 676l21 -11zM458 187v1q0 16 18 16q9 0 26.5 -3t27.5 -3q42 0 42 71q0 76 -51 76q-46 0 -62 -76q-4 -16 -19 -16q-13 0 -23 8.5
t-10 23.5q0 27 33 51t87 24q47 0 79 -20.5t32 -66.5q0 -23 -8.5 -39t-25 -24.5t-26.5 -11.5t-27 -7v-1q15 -1 30 -4.5t34 -12.5t30.5 -27t11.5 -44q0 -109 -138 -109q-55 0 -89 20.5t-34 49.5q0 16 11.5 26.5t25.5 10.5t19 -18q12 -37 29 -55.5t45 -18.5q61 0 61 91
q0 43 -19 61t-38 18q-15 0 -34 -3.5t-20 -3.5q-18 0 -18 16z" />
    <glyph glyph-name="twothirds" unicode="&#x2154;" horiz-adv-x="716" 
d="M268 278h-239l-4 6q4 29 34 67.5t84 74.5q66 45 66 120q0 32 -13 55t-42 23q-31 0 -45.5 -20.5t-22.5 -63.5q-4 -20 -23 -20q-14 0 -22.5 9t-8.5 24q0 32 34.5 59t92.5 27q57 0 87.5 -26.5t30.5 -75.5q0 -42 -23 -64.5t-88 -58.5q-81 -44 -94 -82h157q19 0 27.5 9
t23.5 41l15 -5zM159 -34l-19 15l411 676l21 -11zM472 187v1q0 16 18 16q9 0 26.5 -3t27.5 -3q42 0 42 71q0 76 -51 76q-46 0 -62 -76q-4 -16 -19 -16q-13 0 -23 8.5t-10 23.5q0 27 33 51t87 24q47 0 79.5 -20.5t32.5 -66.5q0 -23 -8.5 -39t-25.5 -24.5t-27 -11.5t-27 -7v-1
q15 -1 30 -4.5t34 -12.5t30.5 -27t11.5 -44q0 -109 -138 -109q-55 0 -89 20.5t-34 49.5q0 16 11.5 26.5t25.5 10.5q6 0 9.5 -2.5t5.5 -5.5t4 -10q12 -37 29 -55.5t45 -18.5q61 0 61 91q0 43 -19 61t-38 18q-15 0 -34 -3.5t-20 -3.5q-18 0 -18 16z" />
    <glyph glyph-name="oneeighth" unicode="&#x215b;" horiz-adv-x="716" 
d="M247 278h-192v16l44 5q13 2 17.5 7t4.5 18v254q0 22 -13 23l-53 6v13l123 19l3 -3v-312q0 -13 5 -18t17 -7l44 -5v-16zM140 -34l-18 15l409 676l21 -11zM527 -7h-1q-137 0 -137 106q0 22 8.5 39t22.5 27t26.5 15.5t25.5 8.5v3q-29 5 -49 25t-20 52q0 40 30 65.5t94 25.5
q122 0 122 -91q0 -32 -21 -52t-49 -25v-3q31 -6 57.5 -27.5t26.5 -62.5q0 -106 -136 -106zM527 345h-1q-27 0 -42.5 -20t-15.5 -58q0 -33 15.5 -52.5t43.5 -19.5q58 0 58 72q0 33 -15.5 55.5t-42.5 22.5zM527 179h-1q-68 0 -68 -83q0 -41 19 -64.5t50 -23.5t49 23t18 65
q0 38 -17.5 60.5t-49.5 22.5z" />
    <glyph glyph-name="threeeighths" unicode="&#x215c;" horiz-adv-x="716" 
d="M91 466v1q0 16 18 16q9 0 27 -2.5t28 -2.5q41 0 41 70q0 76 -50 76q-47 0 -63 -76q-3 -16 -18 -16q-14 0 -24 8.5t-10 23.5q0 27 33.5 51t86.5 24q48 0 80 -20.5t32 -66.5q0 -19 -7 -33t-14 -21.5t-23 -14.5t-21.5 -8t-21.5 -5v-1q15 -1 30 -4.5t34 -12.5t30.5 -27
t11.5 -44q0 -51 -35 -79.5t-104 -28.5q-55 0 -88.5 20.5t-33.5 49.5q0 15 11.5 25.5t26.5 10.5q12 0 19 -18q11 -36 28 -54.5t45 -18.5q60 0 60 90q0 43 -18.5 61t-36.5 18q-16 0 -35 -3.5t-21 -3.5q-18 0 -18 16zM147 -34l-19 15l411 676l19 -11zM529 -7h-1
q-136 0 -136 106q0 41 26 62.5t57 27.5v3q-29 5 -49 25t-20 52q0 40 29.5 65.5t93.5 25.5q123 0 123 -91q0 -32 -21 -52t-49 -25v-3q18 -4 35 -12t33 -29t16 -49q0 -106 -137 -106zM529 345h-1q-27 0 -42 -20t-15 -58q0 -33 15.5 -52.5t42.5 -19.5q59 0 59 72
q0 33 -15.5 55.5t-43.5 22.5zM529 179h-1q-67 0 -67 -83q0 -41 18.5 -64.5t49.5 -23.5q32 0 50 23t18 65q0 38 -18 60.5t-50 22.5z" />
    <glyph glyph-name="fiveeighths" unicode="&#x215d;" horiz-adv-x="716" 
d="M82 633h208l1 -3l-21 -51h-159q-14 0 -15 -12l-14 -106q44 36 100 36q119 0 119 -102q0 -57 -33 -89.5t-103 -32.5q-57 0 -91.5 20.5t-34.5 50.5q0 15 11 25t26 10q13 0 21 -18q22 -73 70 -73q33 0 49 26.5t16 69.5q0 88 -73 88q-51 0 -85 -39l-12 13l16 184zM151 -34
l-18 15l409 676l21 -11zM529 -7h-1q-136 0 -136 106q0 41 26 62.5t57 27.5v3q-29 5 -49 25t-20 52q0 40 29.5 65.5t93.5 25.5q123 0 123 -91q0 -32 -21 -52t-49 -25v-3q18 -4 35 -12t33 -29t16 -49q0 -106 -137 -106zM529 345h-1q-27 0 -42 -20t-15 -58q0 -33 15.5 -52.5
t42.5 -19.5q59 0 59 72q0 33 -15.5 55.5t-43.5 22.5zM529 179h-1q-67 0 -67 -83q0 -41 18.5 -64.5t49.5 -23.5q32 0 50 23t18 65q0 38 -18 60.5t-50 22.5z" />
    <glyph glyph-name="seveneighths" unicode="&#x215e;" horiz-adv-x="716" 
d="M65 633h250l3 -4q-19 -73 -79 -164q-35 -53 -35 -153q0 -22 -7 -30.5t-27 -8.5q-16 0 -24.5 7.5t-8.5 29.5q0 26 14 57.5t25.5 47.5l39.5 53q53 69 61 111h-171q-10 0 -15 -0.5t-9.5 -5.5t-6.5 -8t-8 -15.5t-11 -21.5l-14 4zM126 -34l-18 15l410 676l20 -11zM517 -7h-1
q-136 0 -136 106q0 42 26.5 63.5t56.5 26.5v3q-29 5 -49 25t-20 52q0 40 29.5 65.5t93.5 25.5q122 0 122 -91q0 -32 -20.5 -52t-48.5 -25v-3q30 -5 56.5 -26.5t26.5 -63.5q0 -106 -136 -106zM517 345h-1q-57 0 -57 -78q0 -33 15.5 -52.5t42.5 -19.5q58 0 58 72
q0 33 -15 55.5t-43 22.5zM517 179h-1q-67 0 -67 -83q0 -41 18.5 -64.5t49.5 -23.5t49.5 23t18.5 65q0 38 -18 60.5t-50 22.5z" />
    <glyph glyph-name="uni2190" unicode="&#x2190;" horiz-adv-x="482" 
d="M457 209h-347l161 -144l-27 -35l-219 200v1l219 200l27 -35l-161 -144h347v-43z" />
    <glyph glyph-name="uni2192" unicode="&#x2192;" horiz-adv-x="482" 
d="M25 252h347l-160 144l27 35l218 -200v-1l-218 -200l-27 35l160 144h-347v43z" />
    <glyph glyph-name="partialdiff" unicode="&#x2202;" horiz-adv-x="489" 
d="M56 582q-10 14 -10 38q0 14 15 30q13 12 46.5 24t77.5 12q105 0 176.5 -98.5t71.5 -252.5q0 -346 -224 -346q-81 0 -124 44.5t-43 129.5q0 79 51.5 130t135.5 51q45 0 77 -18t46 -38h1q8 64 8 131q0 115 -33 172.5t-109 57.5q-37 0 -80 -20.5t-66 -45.5q-9 -11 -17 -1z
M216 4h1q23 0 41.5 11t32 33.5t23 46t16.5 58t11 60t8 61.5q-11 13 -38.5 25.5t-58.5 12.5q-55 0 -91 -39.5t-36 -130.5q0 -63 27.5 -100.5t63.5 -37.5z" />
    <glyph glyph-name="Delta" unicode="&#x2206;" horiz-adv-x="624" 
d="M30 0v16q0 1 50.5 126.5l109.5 277.5t90 240h60l257 -641v-19h-567zM476 74l-196 512h-2l-189 -511q-8 -17 -3 -25.5t27 -8.5h334q23 0 29 6t0 27z" />
    <glyph glyph-name="product" unicode="&#x220f;" horiz-adv-x="686" 
d="M482 -62v649q0 21 -6.5 30t-29.5 9h-199q-28 0 -36 -8.5t-8 -37.5v-642q0 -40 11.5 -48t72.5 -12v-19h-258v19q61 4 72.5 12t11.5 48v634q0 39 -11.5 47.5t-72.5 12.5v18h627v-18q-61 -4 -72 -12.5t-11 -47.5v-634q0 -40 11 -48t72 -12v-19h-257v19q61 4 72 12t11 48z
" />
    <glyph glyph-name="summation" unicode="&#x2211;" horiz-adv-x="527" 
d="M244 227l-221 411v12h448v-153h-20q-21 78 -31 94q-19 30 -78 34q-15 1 -35 1h-183l183 -334l-214 -362h241q86 0 110.5 15t48.5 86h19l-33 -172h-451v15z" />
    <glyph glyph-name="minus" unicode="&#x2212;" horiz-adv-x="471" 
d="M43 207v42h387v-42h-387z" />
    <glyph glyph-name="uni2215" unicode="&#x2215;" horiz-adv-x="138" 
d="M-128 -32l-19 14l411 676l20 -11z" />
    <glyph glyph-name="uni2219" unicode="&#x2219;" horiz-adv-x="180" 
d="M90 178h-1q-24 0 -37.5 15t-13.5 39q0 25 14 41t38 16t38.5 -16t13.5 -41q0 -24 -14 -39t-38 -15z" />
    <glyph glyph-name="radical" unicode="&#x221a;" horiz-adv-x="513" 
d="M475 791l-177 -953h-29l-162 458l-72 -28l-6 20l139 61l95 -289q22 -66 31 -107h2q0 5 18 110l130 728h31z" />
    <glyph glyph-name="infinity" unicode="&#x221e;" horiz-adv-x="646" 
d="M608 233v-1q0 -60 -37.5 -102.5t-97.5 -42.5q-76 0 -149 104q-28 -34 -46 -52t-47.5 -35t-60.5 -17q-53 0 -92 40t-39 101q0 63 39 102.5t99 39.5q46 0 80 -26t73 -76q2 2 11 13.5t12.5 15.5l12.5 15t14.5 15.5l15.5 13t18.5 12.5t19 8.5t22 6.5t23.5 2q55 0 92 -38
t37 -99zM172 134h1q10 0 20.5 2.5t18 5.5t18 10.5t15.5 11.5t15.5 15.5t13 14.5l14 16.5t12.5 15.5q-3 3 -11.5 14.5t-11.5 15l-11 13.5t-12 13.5t-11.5 11.5t-12.5 11l-13 8t-15 7.5t-15 4t-17 1.5q-40 0 -63.5 -27.5t-23.5 -71.5q0 -39 25.5 -66t63.5 -27zM478 326h-1
q-17 0 -31.5 -5.5t-30 -19t-22.5 -20.5t-23 -27.5t-18 -22.5q44 -55 69.5 -76t58.5 -21q37 0 60 29.5t23 64.5q0 41 -22.5 69.5t-62.5 28.5z" />
    <glyph glyph-name="integral" unicode="&#x222b;" horiz-adv-x="319" 
d="M314 727v-1q0 -34 -41 -34q-19 0 -35.5 25t-30.5 25q-9 0 -16 -9.5t-11 -34.5t-2 -63q21 -327 28 -504q3 -84 -9 -154t-45.5 -118.5t-84.5 -48.5q-65 0 -65 45q0 18 11.5 29t32.5 11q22 0 39 -23.5t32 -23.5q9 0 16 13.5t11 46.5t2 80q-4 71 -13 216l-12 193
q-26 376 133 376q27 0 43.5 -13t16.5 -33z" />
    <glyph glyph-name="approxequal" unicode="&#x2248;" horiz-adv-x="471" 
d="M406 210l25 -24q-25 -42 -49.5 -62.5t-63.5 -20.5q-23 0 -88 30q-43 24 -73 24q-50 0 -92 -60l-25 25q52 80 123 80q13 0 26.5 -3.5t21 -6.5t22.5 -10.5l21 -10.5q5 -2 14.5 -7t14.5 -7l12.5 -5t14.5 -4t14 -1q27 0 42.5 13.5t39.5 49.5zM406 359l25 -25
q-22 -42 -48.5 -62.5t-66.5 -20.5q-9 0 -21 3.5t-20 7t-23.5 11.5t-20.5 10q-48 23 -74 23q-45 0 -92 -61l-25 26q18 24 31 38t38.5 28t55.5 14q33 0 87 -28q54 -27 75 -27q26 0 41 13.5t38 49.5z" />
    <glyph glyph-name="notequal" unicode="&#x2260;" horiz-adv-x="471" 
d="M342 415l-35 -78h123v-44h-144l-59 -132h203v-43h-223l-41 -89l-34 17l33 72h-122v43h140l61 132h-201v44h220l44 96z" />
    <glyph glyph-name="lessequal" unicode="&#x2264;" horiz-adv-x="463" 
d="M429 134v-49l-382 173v53l382 172v-50l-333 -148l-1 -1zM43 0v42h387v-42h-387z" />
    <glyph glyph-name="greaterequal" unicode="&#x2265;" horiz-adv-x="463" 
d="M46 483l382 -172v-53l-382 -173v49l336 148l-1 2l-335 149v50zM42 0v42h387v-42h-387z" />
    <glyph glyph-name="uni25A0" unicode="&#x25a0;" horiz-adv-x="285" 
d="M45 334h195v-200h-195v200z" />
    <glyph glyph-name="uni25B6" unicode="&#x25b6;" horiz-adv-x="409" 
d="M50 74q1 310 0 310h1l324 -153v-1l-324 -157z" />
    <glyph glyph-name="uni25B7" unicode="&#x25b7;" horiz-adv-x="409" 
d="M86 329l1 -197l207 100zM50 76q1 310 0 310h1l324 -153v-1l-324 -157z" />
    <glyph glyph-name="uni25C0" unicode="&#x25c0;" horiz-adv-x="409" 
d="M359 383q-1 -310 0 -310h-1l-324 153v1l324 157z" />
    <glyph glyph-name="uni25C1" unicode="&#x25c1;" horiz-adv-x="409" 
d="M322 132v197l-208 -100zM359 385q-1 -310 0 -310h-1l-324 153v1l324 157z" />
    <glyph glyph-name="uni25C6" unicode="&#x25c6;" horiz-adv-x="335" 
d="M29 236l137 137l140 -141l-137 -137z" />
    <glyph glyph-name="uni25C9" unicode="&#x25c9;" horiz-adv-x="331" 
d="M166 376h1q54 0 91.5 -39t37.5 -94t-38 -94t-92 -39q-55 0 -93 38.5t-38 94.5t38 94.5t93 38.5zM166 340h-1q-38 0 -63 -28.5t-25 -68.5t25.5 -68.5t63.5 -28.5t63 28.5t25 68.5t-25 68.5t-63 28.5zM166 295h-1q-21 0 -34.5 -15.5t-13.5 -36.5q0 -22 14 -37.5t35 -15.5
t34.5 15.5t13.5 37.5q0 21 -13.5 36.5t-34.5 15.5z" />
    <glyph glyph-name="lozenge" unicode="&#x25ca;" horiz-adv-x="500" 
d="M463 315l-182 -356h-66l-176 356l180 357h66zM400 313l-121 253q-4 9 -14 33.5l-13 31.5h-3q-18 -45 -28 -65l-120 -248l121 -254q21 -44 24 -64h5q7 26 27 62z" />
    <glyph glyph-name="uni2610" unicode="&#x2610;" horiz-adv-x="687" 
d="M101 542h498v-506l-38 -36h-495v509zM88 503v-480h468v480h-468z" />
    <glyph glyph-name="uni2611" unicode="&#x2611;" horiz-adv-x="687" 
d="M101 542h498v-506l-38 -36h-495v509zM88 503v-480h468v480h-468zM427 439q9 12 33 22.5t46 12.5v-2q-25 -27 -50.5 -63.5t-54.5 -89.5l-45 -83t-49 -97l-39 -79h-1q-18 15 -63.5 96t-45.5 99q5 10 19.5 23.5t23.5 15.5h1q5 -25 29.5 -85.5t40.5 -90.5q95 240 155 321z
" />
    <glyph glyph-name="A.sc" unicode="&#xe000;" horiz-adv-x="555" 
d="M326 193h-170q-11 -33 -41 -131q-6 -20 2 -28t27 -11l35 -4v-19h-179v19q40 2 55 10.5t25 35.5l160 443h61q112 -317 168 -451q10 -24 24 -30t52 -8v-19h-226v19l36 5q29 4 20 27zM318 217q-48 132 -78 222h-2l-75 -222h155z" />
    <glyph glyph-name="AE.sc" unicode="&#xe001;" horiz-adv-x="737" 
d="M338 237h-141q-58 -110 -89 -181q-14 -30 13 -33l45 -4v-19h-174v19q34 3 48.5 9t26.5 26q40 67 115 210.5t100 187.5q8 14 6 19.5t-16 6.5l-65 7v20h466v-131h-20q-9 59 -41.5 82.5t-92.5 23.5h-73q-13 0 -17.5 -5.5t-4.5 -19.5v-194h100q49 0 67.5 13.5t23.5 54.5h19
v-171h-19q-5 44 -24.5 61.5t-66.5 17.5h-100v-145q0 -43 16.5 -55.5t88.5 -12.5q84 0 109 22q12 12 25.5 41t18.5 54h20l-15 -141h-425v19q50 4 63 14t13 42v162zM338 261v215h-12q-70 -117 -117 -215h129z" />
    <glyph glyph-name="Aacute.sc" unicode="&#xe002;" horiz-adv-x="555" 
d="M326 193h-170q-11 -33 -41 -131q-6 -20 2 -28t27 -11l35 -4v-19h-179v19q40 2 55 10.5t25 35.5l160 443h61q112 -317 168 -451q10 -24 24 -30t52 -8v-19h-226v19l36 5q29 4 20 27zM318 217q-48 132 -78 222h-2l-75 -222h155zM247 550l-7 10l88 97q16 17 23 23t16 11t18 4
q11 -2 19.5 -14t6.5 -24q-1 -5 -3.5 -9.5t-9 -9l-10 -7t-14 -8.5t-14.5 -8z" />
    <glyph glyph-name="Acircumflex.sc" unicode="&#xe003;" horiz-adv-x="555" 
d="M326 193h-170q-11 -33 -41 -131q-6 -20 2 -28t27 -11l35 -4v-19h-179v19q40 2 55 10.5t25 35.5l160 443h61q112 -317 168 -451q10 -24 24 -30t52 -8v-19h-226v19l36 5q29 4 20 27zM318 217q-48 132 -78 222h-2l-75 -222h155zM380 559l-10 -8l-91 60q-9 6 -12 6.5
t-10 -4.5l-88 -62l-10 8l100 138h18z" />
    <glyph glyph-name="Adieresis.sc" unicode="&#xe004;" horiz-adv-x="555" 
d="M326 193h-170q-11 -33 -41 -131q-6 -20 2 -28t27 -11l35 -4v-19h-179v19q40 2 55 10.5t25 35.5l160 443h61q112 -317 168 -451q10 -24 24 -30t52 -8v-19h-226v19l36 5q29 4 20 27zM318 217q-48 132 -78 222h-2l-75 -222h155zM178 655h1q21 0 34 -14t13 -35
q-1 -21 -13.5 -34.5t-34.5 -13.5t-35.5 14t-13.5 34q0 21 13.5 35t35.5 14zM361 655h1q22 0 35 -14t12 -35q0 -21 -13 -34.5t-35 -13.5q-21 0 -34.5 13.5t-13.5 34.5t13.5 35t34.5 14z" />
    <glyph glyph-name="Agrave.sc" unicode="&#xe005;" horiz-adv-x="555" 
d="M326 193h-170q-11 -33 -41 -131q-6 -20 2 -28t27 -11l35 -4v-19h-179v19q40 2 55 10.5t25 35.5l160 443h61q112 -317 168 -451q10 -24 24 -30t52 -8v-19h-226v19l36 5q29 4 20 27zM318 217q-48 132 -78 222h-2l-75 -222h155zM296 550l-113 65q-4 2 -14.5 8t-14.5 8.5
t-10 7t-9 9t-4 9.5q-1 12 7.5 24t19.5 14q19 3 57 -38l88 -97z" />
    <glyph glyph-name="Aring.sc" unicode="&#xe006;" horiz-adv-x="555" 
d="M326 193h-170q-11 -33 -41 -131q-6 -20 2 -28t27 -11l35 -4v-19h-179v19q40 2 55 10.5t25 35.5l160 443h61q112 -317 168 -451q10 -24 24 -30t52 -8v-19h-226v19l36 5q29 4 20 27zM318 217q-48 132 -78 222h-2l-75 -222h155zM268 692h-1q-41 0 -41 -69t42 -69t42 69
t-42 69zM268 707h1q37 0 63 -20.5t26 -63.5t-26 -63.5t-64 -20.5t-64 20.5t-26 63.5t26 63.5t64 20.5z" />
    <glyph glyph-name="Atilde.sc" unicode="&#xe007;" horiz-adv-x="555" 
d="M326 193h-170q-11 -33 -41 -131q-6 -20 2 -28t27 -11l35 -4v-19h-179v19q40 2 55 10.5t25 35.5l160 443h61q112 -317 168 -451q10 -24 24 -30t52 -8v-19h-226v19l36 5q29 4 20 27zM318 217q-48 132 -78 222h-2l-75 -222h155zM391 655l11 -5q-19 -85 -75 -85q-13 0 -66 16
q-56 17 -63 17q-19 0 -30 -9t-22 -32l-11 7q20 82 79 82q21 0 66 -15q50 -16 60 -16q37 0 51 40z" />
    <glyph glyph-name="B.sc" unicode="&#xe008;" horiz-adv-x="531" 
d="M25 505h261q99 0 138 -27.5t39 -92.5q0 -48 -35.5 -76t-95.5 -35v-4q32 -3 55.5 -9t48.5 -18.5t38.5 -36t13.5 -57.5q0 -77 -58.5 -113t-151.5 -36h-253v19q55 3 65.5 10.5t10.5 45.5v354q0 38 -10.5 45.5t-65.5 10.5v20zM189 457v-181h66q116 0 116 102q0 107 -110 107
q-38 0 -55 -5t-17 -23zM189 258v-192q0 -25 14.5 -36t65.5 -11q58 0 90.5 30.5t32.5 91.5q0 117 -137 117h-66z" />
    <glyph glyph-name="C.sc" unicode="&#xe009;" horiz-adv-x="544" 
d="M488 489v-130h-19q-7 28 -16 49t-25.5 44t-43.5 35.5t-63 12.5q-88 0 -134 -63.5t-46 -178.5q0 -44 9 -85.5t29 -81.5t58 -64t90 -24q37 0 65.5 13t46 37.5t27.5 47.5t18 54h20l-16 -135q-77 -35 -171 -35q-137 0 -205.5 63t-68.5 199q0 128 77 203q69 69 210 69
q84 0 158 -30z" />
    <glyph glyph-name="Ccedilla.sc" unicode="&#xe00a;" horiz-adv-x="544" 
d="M487 489v-130h-19q-7 28 -16 49t-25.5 44t-43.5 35.5t-63 12.5q-88 0 -134 -63.5t-46 -178.5q0 -44 9 -85.5t29 -81.5t58.5 -64t90.5 -24q69 0 104 42.5t53 109.5h19l-16 -135q-71 -32 -160 -35l-24 -37q87 -12 87 -77q0 -26 -10.5 -44t-27 -26.5t-31 -11.5t-28.5 -3
q-28 0 -53 15l4 14q12 -5 32 -5q48 0 48 54q0 49 -60 53l-1 4l44 64q-133 2 -199 65.5t-66 196.5q0 129 76 203q71 69 211 69q33 0 80 -9t78 -21z" />
    <glyph glyph-name="D.sc" unicode="&#xe00b;" horiz-adv-x="603" 
d="M189 447v-367q0 -36 21 -49t64 -13q36 0 67.5 11t60 35.5t45 72t16.5 113.5q0 233 -184 236q-57 1 -73.5 -7t-16.5 -32zM25 505h267q139 0 205 -63q63 -63 63 -183q0 -74 -21.5 -125.5t-63.5 -80t-94 -41t-121 -12.5h-235v19q55 3 65.5 10.5t10.5 45.5v354q0 38 -11 45.5
t-65 10.5v20z" />
    <glyph glyph-name="E.sc" unicode="&#xe00c;" horiz-adv-x="502" 
d="M25 505h410v-131h-20q-8 60 -40 83t-92 23h-71q-13 0 -18 -5.5t-5 -19.5v-181h98q50 0 68 13.5t24 53.5h19v-168h-19q-6 42 -25 59.5t-67 17.5h-98v-158q0 -46 17 -57t87 -11q85 0 108 22q12 12 26 41.5t18 53.5h20l-15 -141h-425v19q53 4 64.5 11.5t11.5 44.5v354
q0 38 -11 45.5t-65 10.5v20z" />
    <glyph glyph-name="Eacute.sc" unicode="&#xe00d;" horiz-adv-x="502" 
d="M25 505h410v-131h-20q-8 60 -40 83t-92 23h-71q-13 0 -18 -5.5t-5 -19.5v-181h98q50 0 68 13.5t24 53.5h19v-168h-19q-6 42 -25 59.5t-67 17.5h-98v-158q0 -46 17 -57t87 -11q85 0 108 22q12 12 26 41.5t18 53.5h20l-15 -141h-425v19q53 4 64.5 11.5t11.5 44.5v354
q0 38 -11 45.5t-65 10.5v20zM220 550l-7 10l88 97q16 17 23 23t16 11t18 4q11 -2 19.5 -14t6.5 -24q-1 -5 -3.5 -9.5t-9 -9l-10 -7t-14 -8.5t-14.5 -8z" />
    <glyph glyph-name="Ecircumflex.sc" unicode="&#xe00e;" horiz-adv-x="502" 
d="M25 505h410v-131h-20q-8 60 -40 83t-92 23h-71q-13 0 -18 -5.5t-5 -19.5v-181h98q50 0 68 13.5t24 53.5h19v-168h-19q-6 42 -25 59.5t-67 17.5h-98v-158q0 -46 17 -57t87 -11q85 0 108 22q12 12 26 41.5t18 53.5h20l-15 -141h-425v19q53 4 64.5 11.5t11.5 44.5v354
q0 38 -11 45.5t-65 10.5v20zM361 559l-10 -8l-91 60q-9 6 -12 6.5t-10 -4.5l-88 -62l-10 8l100 138h18z" />
    <glyph glyph-name="Edieresis.sc" unicode="&#xe00f;" horiz-adv-x="502" 
d="M25 505h410v-131h-20q-8 60 -40 83t-92 23h-71q-13 0 -18 -5.5t-5 -19.5v-181h98q50 0 68 13.5t24 53.5h19v-168h-19q-6 42 -25 59.5t-67 17.5h-98v-158q0 -46 17 -57t87 -11q85 0 108 22q12 12 26 41.5t18 53.5h20l-15 -141h-425v19q53 4 64.5 11.5t11.5 44.5v354
q0 38 -11 45.5t-65 10.5v20zM159 656h1q21 0 34 -14t13 -35q-1 -21 -13.5 -34.5t-34.5 -13.5q-21 0 -35 13.5t-14 34.5t13.5 35t35.5 14zM342 656h1q22 0 35 -14t12 -35q0 -21 -13 -34.5t-35 -13.5q-21 0 -34.5 13.5t-13.5 34.5t13.5 35t34.5 14z" />
    <glyph glyph-name="Egrave.sc" unicode="&#xe010;" horiz-adv-x="502" 
d="M25 505h410v-131h-20q-8 60 -40 83t-92 23h-71q-13 0 -18 -5.5t-5 -19.5v-181h98q50 0 68 13.5t24 53.5h19v-168h-19q-6 42 -25 59.5t-67 17.5h-98v-158q0 -46 17 -57t87 -11q85 0 108 22q12 12 26 41.5t18 53.5h20l-15 -141h-425v19q53 4 64.5 11.5t11.5 44.5v354
q0 38 -11 45.5t-65 10.5v20zM288 550l-113 65q-4 2 -14.5 8t-14.5 8.5t-10 7t-9 9t-4 9.5q-1 12 7.5 24t19.5 14q19 3 57 -38l88 -97z" />
    <glyph glyph-name="Eth.sc" unicode="&#xe011;" horiz-adv-x="613" 
d="M111 275v154q0 37 -11 45t-65 11v20h268q139 0 203 -63t64 -183q0 -143 -77.5 -201t-219.5 -58h-238v19q54 3 65 10.5t11 45.5v173h-85v27h85zM330 275v-27h-131v-168q0 -36 20.5 -49t62.5 -13q37 0 68.5 11t60.5 35.5t45.5 72t16.5 113.5q0 233 -184 236q-57 1 -73.5 -7
t-16.5 -32v-172h131z" />
    <glyph glyph-name="Euro.fitted" unicode="&#xe012;" horiz-adv-x="499" 
d="M172 375h238v-26h-240v-62h240v-27h-237q12 -231 148 -231q21 0 36.5 2.5t36.5 12t39 32.5t31 58l15 -6q-33 -139 -174 -139q-216 0 -223 271h-53v27h51q0 44 1 62h-52l-1 26h56q13 129 67.5 196.5t164.5 67.5q45 0 79 -12t50.5 -29.5t24 -33.5t7.5 -29q0 -16 -10 -27.5
t-25 -11.5q-9 0 -14.5 4t-8 9.5t-4.5 16.5q-21 94 -96 94q-130 0 -147 -245z" />
    <glyph glyph-name="Euro.oldstyle" unicode="&#xe013;" horiz-adv-x="472" 
d="M165 330h202v-23h-203v-20v-26v-18h203v-24h-201q10 -193 123 -193q19 0 30 1.5t30 8.5t34.5 26t27.5 50l16 -6q-28 -117 -154 -117q-101 0 -146.5 60.5t-49.5 169.5h-36v24h34q0 47 1 64h-35v23h37q13 110 62 165.5t145 55.5q72 0 105.5 -30t33.5 -60q0 -15 -8.5 -25
t-21.5 -10q-19 0 -24 26q-20 79 -83 79q-53 0 -83.5 -46.5t-38.5 -154.5z" />
    <glyph glyph-name="F.sc" unicode="&#xe014;" horiz-adv-x="473" 
d="M25 505h412v-128l-20 -1q-8 58 -39.5 81t-91.5 23h-73q-14 0 -19 -5.5t-5 -19.5v-191h101q50 0 68.5 12.5t24.5 52.5l19 1v-166l-19 -1q-6 42 -25.5 59t-67.5 17h-101v-164q0 -38 13.5 -45.5t79.5 -10.5v-19h-257v19q55 3 65.5 10.5t10.5 45.5v354q0 38 -11 45.5
t-65 10.5v20z" />
    <glyph glyph-name="G.sc" unicode="&#xe015;" horiz-adv-x="589" 
d="M499 488v-132h-20q-30 144 -157 144q-93 0 -137 -68.5t-44 -174.5q0 -43 9.5 -84.5t29.5 -81t58 -63.5t90 -24q44 0 71 10q19 8 19 33v109q0 38 -10.5 45.5t-68.5 10.5v19h223v-19q-39 -3 -47.5 -11t-8.5 -45v-141q-106 -30 -179 -30q-145 0 -207 58q-77 68 -77 204
q0 132 75 202t211 70q98 0 170 -31z" />
    <glyph glyph-name="H.sc" unicode="&#xe016;" horiz-adv-x="627" 
d="M189 278h250v151q0 38 -10 45.5t-64 10.5v20h233v-20q-50 -3 -61 -11.5t-11 -44.5v-354q0 -35 10.5 -44t61.5 -12v-19h-233v19q51 3 62.5 11.5t11.5 44.5v179h-250v-179q0 -36 12 -44.5t61 -11.5v-19h-233v19q52 3 62 11t10 45v354q0 38 -9.5 45.5t-62.5 10.5v20h233v-20
q-49 -3 -61 -11.5t-12 -44.5v-151z" />
    <glyph glyph-name="I.sc" unicode="&#xe017;" horiz-adv-x="292" 
d="M189 75q0 -35 11.5 -44t61.5 -12v-19h-233v19q52 3 62 11t10 45v354q0 38 -9.5 45.5t-62.5 10.5v20h233v-20q-51 -3 -62 -11.5t-11 -44.5v-354z" />
    <glyph glyph-name="Iacute.sc" unicode="&#xe018;" horiz-adv-x="292" 
d="M189 75q0 -35 11.5 -44t61.5 -12v-19h-233v19q52 3 62 11t10 45v354q0 38 -9.5 45.5t-62.5 10.5v20h233v-20q-51 -3 -62 -11.5t-11 -44.5v-354zM115 550l-7 10l88 97q16 17 23 23t16 11t18 4q11 -2 19.5 -14t6.5 -24q-1 -5 -3.5 -9.5t-9 -9l-10 -7t-14 -8.5t-14.5 -8z
" />
    <glyph glyph-name="Icircumflex.sc" unicode="&#xe019;" horiz-adv-x="292" 
d="M189 75q0 -35 11.5 -44t61.5 -12v-19h-233v19q52 3 62 11t10 45v354q0 38 -9.5 45.5t-62.5 10.5v20h233v-20q-51 -3 -62 -11.5t-11 -44.5v-354zM256 559l-10 -8l-91 60q-9 6 -12 6.5t-10 -4.5l-88 -62l-10 8l100 138h18z" />
    <glyph glyph-name="Idieresis.sc" unicode="&#xe01a;" horiz-adv-x="292" 
d="M189 75q0 -35 11.5 -44t61.5 -12v-19h-233v19q52 3 62 11t10 45v354q0 38 -9.5 45.5t-62.5 10.5v20h233v-20q-51 -3 -62 -11.5t-11 -44.5v-354zM54 656h1q21 0 34 -14t13 -35q-1 -21 -13.5 -34.5t-34.5 -13.5t-35.5 13.5t-13.5 34.5t13.5 35t35.5 14zM237 656h1
q22 0 35 -14t12 -35q0 -21 -13 -34.5t-35 -13.5q-21 0 -34.5 13.5t-13.5 34.5t13.5 35t34.5 14z" />
    <glyph glyph-name="Igrave.sc" unicode="&#xe01b;" horiz-adv-x="292" 
d="M189 75q0 -35 11.5 -44t61.5 -12v-19h-233v19q52 3 62 11t10 45v354q0 38 -9.5 45.5t-62.5 10.5v20h233v-20q-51 -3 -62 -11.5t-11 -44.5v-354zM183 550l-113 65q-4 2 -14.5 8t-14.5 8.5t-10 7t-9 9t-4 9.5q-1 12 7.5 24t19.5 14q19 3 57 -38l88 -97z" />
    <glyph glyph-name="J.sc" unicode="&#xe01c;" horiz-adv-x="286" 
d="M192 429v-338q0 -38 -0.5 -56.5t-5 -47.5t-13 -44.5t-25.5 -32.5t-42 -27q-33 -13 -84 -13l-3 16q40 11 56 29q29 30 29 165v349q0 38 -11 45.5t-65 10.5v20h241v-20q-55 -3 -66 -10.5t-11 -45.5z" />
    <glyph glyph-name="K.sc" unicode="&#xe01d;" horiz-adv-x="552" 
d="M189 75q0 -37 9.5 -44t63.5 -12v-19h-233v19q52 4 62 11t10 45v354q0 38 -10 45.5t-62 10.5v20h233v-20q-53 -4 -63 -11t-10 -45v-354zM335 505h201v-20q-61 -6 -83 -16q-16 -8 -34 -22q-74 -62 -149 -144q30 -47 87 -116.5t103 -116.5q48 -50 90 -60l-4 -16h-44
q-54 0 -88 13.5t-65 47.5q-59 64 -150 200v5q144 144 187 197q16 21 -7 23l-44 5v20z" />
    <glyph glyph-name="L.sc" unicode="&#xe01e;" horiz-adv-x="473" 
d="M438 0h-407v19q50 3 60 10t10 46v354q0 35 -10.5 44t-59.5 12v20h238v-20q-58 -3 -68.5 -10.5t-10.5 -45.5v-338q0 -44 17.5 -55.5t85.5 -11.5q74 0 100 23q27 26 42 105h20z" />
    <glyph glyph-name="Lslash.sc" unicode="&#xe01f;" horiz-adv-x="483" 
d="M335 332l-135 -64v-177q0 -45 18 -56t92 -11q66 0 93 23q12 12 24 44t17 61h21l-17 -152h-413v28q54 3 65 10.5t11 45.5v138l-68 -33l-9 22l77 37v181q0 37 -11 45t-65 11v20h247v-20q-59 -3 -70.5 -10.5t-11.5 -45.5v-135l126 61z" />
    <glyph glyph-name="M.sc" unicode="&#xe020;" horiz-adv-x="715" 
d="M214 0h-188v19l30 3q35 4 41 42q4 31 4 90v275q0 38 -9.5 45.5t-62.5 10.5v20h163l171 -367h3q73 151 159 367h159v-20q-50 -3 -61 -11.5t-11 -44.5v-354q0 -38 10 -45t62 -11v-19h-227v19q51 4 61 11t10 45v368h-3l-182 -443h-23l-191 443h-2v-289q0 -50 5 -88
q7 -40 47 -44l35 -3v-19z" />
    <glyph glyph-name="N.sc" unicode="&#xe021;" horiz-adv-x="591" 
d="M24 505h154l292 -385l2 2v237q0 36 -6 86q-5 33 -49 37l-32 3v20h185v-20l-27 -3q-37 -4 -41 -36q-5 -45 -5 -87v-359h-56l-313 427h-2v-281q0 -46 5 -83q5 -36 48 -41l33 -3v-19h-184v19l29 3q13 2 24.5 13t14.5 28q5 37 5 83v283q0 37 -11.5 45t-65.5 11v20z" />
    <glyph glyph-name="Ntilde.sc" unicode="&#xe022;" horiz-adv-x="591" 
d="M24 505h154l292 -385l2 2v237q0 36 -6 86q-5 33 -49 37l-32 3v20h185v-20l-27 -3q-37 -4 -41 -36q-5 -45 -5 -87v-359h-56l-313 427h-2v-281q0 -46 5 -83q5 -36 48 -41l33 -3v-19h-184v19l29 3q13 2 24.5 13t14.5 28q5 37 5 83v283q0 37 -11.5 45t-65.5 11v20zM426 655
l11 -5q-19 -85 -75 -85q-13 0 -66 16q-56 17 -63 17q-19 0 -30 -9t-22 -32l-11 7q20 82 79 82q21 0 66 -15q50 -16 60 -16q37 0 51 40z" />
    <glyph glyph-name="O.sc" unicode="&#xe023;" horiz-adv-x="601" 
d="M301 500h-1q-59 0 -96.5 -40t-50 -92t-12.5 -116q0 -46 8 -87t25 -78.5t49.5 -60t77.5 -22.5q59 0 96.5 40t50 92.5t12.5 115.5q0 45 -7.5 85.5t-24.5 79t-49.5 61t-77.5 22.5zM301 519h1q125 0 191 -70t66 -197t-66.5 -197t-191.5 -70q-126 0 -192 70t-66 197t66 197
t192 70z" />
    <glyph glyph-name="OE.sc" unicode="&#xe024;" horiz-adv-x="811" 
d="M418 60v387q0 45 -93 45q-51 0 -88.5 -21t-57.5 -56.5t-29.5 -75.5t-9.5 -86q0 -44 8 -83t27 -76t57 -59t92 -22q40 0 67 12t27 35zM464 0q-18 0 -69.5 -3t-62.5 -3q-68 0 -110 7.5t-81 29.5q-45 26 -71.5 83t-26.5 134q0 76 29.5 133.5t77.5 86.5q42 25 87 33.5t112 8.5
q19 0 62.5 -2.5t51.5 -2.5h281v-131h-19q-9 61 -37 83.5t-86 22.5h-73q-13 0 -18 -5.5t-5 -19.5v-181h100q48 0 62 12.5t19 54.5h20v-168h-20q-6 45 -20.5 61t-60.5 16h-100v-158q0 -43 20 -55.5t86 -12.5q75 0 99 23q12 11 25.5 40.5t18.5 53.5h19l-14 -141h-296z" />
    <glyph glyph-name="Oacute.sc" unicode="&#xe025;" horiz-adv-x="601" 
d="M301 500h-1q-59 0 -96.5 -40t-50 -92t-12.5 -116q0 -46 8 -87t25 -78.5t49.5 -60t77.5 -22.5q59 0 96.5 40t50 92.5t12.5 115.5q0 45 -7.5 85.5t-24.5 79t-49.5 61t-77.5 22.5zM301 519h1q125 0 191 -70t66 -197t-66.5 -197t-191.5 -70q-126 0 -192 70t-66 197t66 197
t192 70zM270 550l-7 10l88 97q16 17 23 23t16 11t18 4q11 -2 19.5 -14t6.5 -24q-1 -5 -3.5 -9.5t-9 -9l-10 -7t-14 -8.5t-14.5 -8z" />
    <glyph glyph-name="Ocircumflex.sc" unicode="&#xe026;" horiz-adv-x="601" 
d="M301 500h-1q-59 0 -96.5 -40t-50 -92t-12.5 -116q0 -46 8 -87t25 -78.5t49.5 -60t77.5 -22.5q59 0 96.5 40t50 92.5t12.5 115.5q0 45 -7.5 85.5t-24.5 79t-49.5 61t-77.5 22.5zM301 519h1q125 0 191 -70t66 -197t-66.5 -197t-191.5 -70q-126 0 -192 70t-66 197t66 197
t192 70zM411 559l-10 -8l-91 60q-9 6 -12 6.5t-10 -4.5l-88 -62l-10 8l100 138h18z" />
    <glyph glyph-name="Odieresis.sc" unicode="&#xe027;" horiz-adv-x="601" 
d="M301 500h-1q-59 0 -96.5 -40t-50 -92t-12.5 -116q0 -46 8 -87t25 -78.5t49.5 -60t77.5 -22.5q59 0 96.5 40t50 92.5t12.5 115.5q0 45 -7.5 85.5t-24.5 79t-49.5 61t-77.5 22.5zM301 519h1q125 0 191 -70t66 -197t-66.5 -197t-191.5 -70q-126 0 -192 70t-66 197t66 197
t192 70zM209 656h1q21 0 34 -14t13 -35q-1 -21 -13.5 -34.5t-34.5 -13.5q-21 0 -35 13.5t-14 34.5t13.5 35t35.5 14zM392 656h1q22 0 35 -14t12 -35q0 -21 -13 -34.5t-35 -13.5q-21 0 -34.5 13.5t-13.5 34.5t13.5 35t34.5 14z" />
    <glyph glyph-name="Ograve.sc" unicode="&#xe028;" horiz-adv-x="601" 
d="M301 500h-1q-59 0 -96.5 -40t-50 -92t-12.5 -116q0 -46 8 -87t25 -78.5t49.5 -60t77.5 -22.5q59 0 96.5 40t50 92.5t12.5 115.5q0 45 -7.5 85.5t-24.5 79t-49.5 61t-77.5 22.5zM301 519h1q125 0 191 -70t66 -197t-66.5 -197t-191.5 -70q-126 0 -192 70t-66 197t66 197
t192 70zM338 550l-113 65q-4 2 -14.5 8t-14.5 8.5t-10 7t-9 9t-4 9.5q-1 12 7.5 24t19.5 14q19 3 57 -38l88 -97z" />
    <glyph glyph-name="Oslash.sc" unicode="&#xe029;" horiz-adv-x="601" 
d="M180 77l229 370q-41 53 -109 53q-45 0 -78 -22t-50 -60t-24.5 -79t-7.5 -87q0 -105 40 -175zM422 427l-228 -371q40 -52 106 -52q36 0 64.5 15t46 39.5t29 57.5t16 66.5t4.5 69.5q0 108 -38 175zM484 527l-30 -48q104 -64 104 -227q0 -127 -66 -197t-193 -70
q-70 0 -131 27l-35 -55l-18 14l33 53q-105 66 -105 228q0 127 65.5 197t191.5 70q73 0 136 -29l31 50z" />
    <glyph glyph-name="Otilde.sc" unicode="&#xe02a;" horiz-adv-x="601" 
d="M301 500h-1q-59 0 -96.5 -40t-50 -92t-12.5 -116q0 -46 8 -87t25 -78.5t49.5 -60t77.5 -22.5q59 0 96.5 40t50 92.5t12.5 115.5q0 45 -7.5 85.5t-24.5 79t-49.5 61t-77.5 22.5zM301 519h1q125 0 191 -70t66 -197t-66.5 -197t-191.5 -70q-126 0 -192 70t-66 197t66 197
t192 70zM422 655l11 -5q-19 -85 -75 -85q-13 0 -66 16q-56 17 -63 17q-19 0 -30 -9t-22 -32l-11 7q20 82 79 82q21 0 66 -15q50 -16 60 -16q37 0 51 40z" />
    <glyph glyph-name="P.sc" unicode="&#xe02b;" horiz-adv-x="503" 
d="M189 205v-130q0 -34 13 -42.5t72 -13.5v-19h-245v19q51 5 61.5 12.5t10.5 43.5v354q0 38 -9.5 45.5t-62.5 10.5v20h250q89 0 137.5 -32.5t48.5 -116.5t-63 -122q-52 -33 -145 -33q-47 0 -68 4zM189 452v-197q0 -37 65 -37q119 0 119 133q0 65 -30.5 100t-88.5 35
q-40 0 -52.5 -6t-12.5 -28z" />
    <glyph glyph-name="Q.sc" unicode="&#xe02c;" horiz-adv-x="601" 
d="M301 500h-1q-44 0 -76 -21t-49.5 -57.5t-25.5 -78.5t-8 -91q0 -62 13 -114t50 -91.5t94 -39.5q45 0 78.5 22t50.5 59t25 77.5t8 86.5q0 64 -14 117t-51 92t-94 39zM301 519h1q125 0 191 -70t66 -197q0 -104 -46.5 -172.5t-143.5 -85.5q11 -26 41 -60q28 -32 62 -48
t55 -16q16 0 22 1l1 -14q-31 -15 -76 -15q-130 0 -212 149q-109 10 -164 79t-55 182q0 127 66 197t192 70z" />
    <glyph glyph-name="R.sc" unicode="&#xe02d;" horiz-adv-x="535" 
d="M189 241v-166q0 -38 11 -45.5t65 -10.5v-19h-240v19q54 3 65 11t11 45v354q0 38 -11 45.5t-65 10.5v20h261q96 0 133.5 -32.5t37.5 -95.5q0 -94 -130 -120v-2q62 -12 90 -45t37 -90q9 -58 25 -78q18 -23 55 -23v-19h-77q-36 0 -56 13t-31 45q-7 18 -14.5 62t-11.5 58
q-10 36 -32.5 49.5t-65.5 13.5h-57zM189 455v-195h57q118 0 118 110q0 61 -30 88.5t-80 27.5q-37 0 -51 -6t-14 -25z" />
    <glyph glyph-name="S.sc" unicode="&#xe02e;" horiz-adv-x="453" 
d="M377 370h-19q-30 130 -126 130q-44 0 -71 -27t-27 -66q0 -45 30.5 -69.5t84.5 -41.5q96 -31 129.5 -62t33.5 -93q0 -68 -48 -112t-146 -44q-84 0 -156 35l-8 144h19q20 -75 56 -117.5t97 -42.5q47 0 75.5 25.5t28.5 71.5q0 44 -29.5 68.5t-81.5 43.5q-37 13 -51.5 18.5
t-41.5 20t-38 28t-20.5 36.5t-9.5 52q0 68 48 109.5t138 41.5q71 0 133 -31v-118z" />
    <glyph glyph-name="Scaron.sc" unicode="&#xe02f;" horiz-adv-x="453" 
d="M377 370h-19q-30 130 -126 130q-44 0 -71 -27t-27 -66q0 -45 30.5 -69.5t84.5 -41.5q96 -31 129.5 -62t33.5 -93q0 -68 -48 -112t-146 -44q-84 0 -156 35l-8 144h19q20 -75 56 -117.5t97 -42.5q47 0 75.5 25.5t28.5 71.5q0 44 -29.5 68.5t-81.5 43.5q-37 13 -51.5 18.5
t-41.5 20t-38 28t-20.5 36.5t-9.5 52q0 68 48 109.5t138 41.5q71 0 133 -31v-118zM116 687l10 9l90 -60q9 -6 12 -6.5t10 4.5l89 62l10 -9l-101 -137h-18z" />
    <glyph glyph-name="T.sc" unicode="&#xe030;" horiz-adv-x="501" 
d="M294 480v-405q0 -38 13.5 -45.5t78.5 -10.5v-19h-271v19q65 3 78.5 10.5t13.5 45.5v405h-56q-55 0 -77.5 -27.5t-30.5 -91.5h-19v144h453v-144h-19q-9 65 -30.5 92t-77.5 27h-56z" />
    <glyph glyph-name="Thorn.sc" unicode="&#xe032;" horiz-adv-x="495" 
d="M267 0h-237v19q49 3 60 12t11 44v356q0 34 -10.5 42.5t-60.5 11.5v20h229v-20q-49 -3 -60.5 -11.5t-11.5 -42.5v-23h84q91 0 137 -31t46 -105q0 -37 -12 -64.5t-31 -44t-46.5 -26t-54.5 -13t-60 -3.5h-63v-46q0 -37 11 -45t69 -11v-19zM187 355v-180q0 -21 16.5 -28
t52.5 -7q51 0 79 31.5t28 94.5q0 54 -31 89t-84 35q-39 0 -50 -6.5t-11 -28.5z" />
    <glyph glyph-name="U.sc" unicode="&#xe033;" horiz-adv-x="627" 
d="M381 505h224v-20q-52 -3 -62 -11t-10 -45v-247q0 -107 -53.5 -152t-162.5 -45q-111 0 -164 44t-53 153v247q0 35 -11.5 44t-60.5 12v20h231v-20q-51 -3 -61.5 -12t-10.5 -44v-260q0 -165 131 -165q133 0 133 157v268q0 36 -10 44.5t-60 11.5v20z" />
    <glyph glyph-name="Uacute.sc" unicode="&#xe034;" horiz-adv-x="627" 
d="M381 505h224v-20q-52 -3 -62 -11t-10 -45v-247q0 -107 -53.5 -152t-162.5 -45q-111 0 -164 44t-53 153v247q0 35 -11.5 44t-60.5 12v20h231v-20q-51 -3 -61.5 -12t-10.5 -44v-260q0 -165 131 -165q133 0 133 157v268q0 36 -10 44.5t-60 11.5v20zM283 550l-7 10l88 97
q16 17 23 23t16 11t18 4q11 -2 19.5 -14t6.5 -24q-1 -5 -3.5 -9.5t-9 -9l-10 -7t-14 -8.5t-14.5 -8z" />
    <glyph glyph-name="Ucircumflex.sc" unicode="&#xe035;" horiz-adv-x="627" 
d="M381 505h224v-20q-52 -3 -62 -11t-10 -45v-247q0 -107 -53.5 -152t-162.5 -45q-111 0 -164 44t-53 153v247q0 35 -11.5 44t-60.5 12v20h231v-20q-51 -3 -61.5 -12t-10.5 -44v-260q0 -165 131 -165q133 0 133 157v268q0 36 -10 44.5t-60 11.5v20zM424 559l-10 -8l-91 60
q-9 6 -12 6.5t-10 -4.5l-88 -62l-10 8l100 138h18z" />
    <glyph glyph-name="Udieresis.sc" unicode="&#xe036;" horiz-adv-x="627" 
d="M381 505h224v-20q-52 -3 -62 -11t-10 -45v-247q0 -107 -53.5 -152t-162.5 -45q-111 0 -164 44t-53 153v247q0 35 -11.5 44t-60.5 12v20h231v-20q-51 -3 -61.5 -12t-10.5 -44v-260q0 -165 131 -165q133 0 133 157v268q0 36 -10 44.5t-60 11.5v20zM222 656h1q21 0 34 -14
t13 -35q-1 -21 -13.5 -34.5t-34.5 -13.5t-35.5 13.5t-13.5 34.5t13.5 35t35.5 14zM405 656h1q22 0 35 -14t12 -35q0 -21 -13 -34.5t-35 -13.5q-21 0 -34.5 13.5t-13.5 34.5t13.5 35t34.5 14z" />
    <glyph glyph-name="Ugrave.sc" unicode="&#xe037;" horiz-adv-x="627" 
d="M381 505h224v-20q-52 -3 -62 -11t-10 -45v-247q0 -107 -53.5 -152t-162.5 -45q-111 0 -164 44t-53 153v247q0 35 -11.5 44t-60.5 12v20h231v-20q-51 -3 -61.5 -12t-10.5 -44v-260q0 -165 131 -165q133 0 133 157v268q0 36 -10 44.5t-60 11.5v20zM341 550l-113 65
q-4 2 -14.5 8t-14.5 8.5t-10 7t-9 9t-4 9.5q-1 12 7.5 24t19.5 14q19 3 57 -38l88 -97z" />
    <glyph glyph-name="V.sc" unicode="&#xe038;" horiz-adv-x="544" 
d="M376 505h176v-20q-35 -2 -51.5 -13.5t-27.5 -39.5l-167 -432h-59q-25 74 -84 223t-88 215q-12 28 -25 36t-51 11v20h230v-20l-51 -5q-21 -1 -13 -28l67 -172.5l76 -196.5h2q103 264 130 361q8 34 -25 37l-39 4v20z" />
    <glyph glyph-name="W.sc" unicode="&#xe039;" horiz-adv-x="778" 
d="M0 505h215v-20l-36 -4q-17 -2 -22 -7.5t0 -21.5q25 -88 105 -348h3q86 283 112 389h62q23 -71 74.5 -217l61.5 -174h2q67 230 92 335q10 41 -27 44l-46 4v20h186v-20q-39 -3 -52 -13.5t-23 -43.5q-99 -298 -135 -428h-58q-21 68 -68.5 205.5l-63.5 186.5h-3l-36 -118
l-48.5 -161.5l-33.5 -112.5h-58q-50 179 -134 440q-9 27 -21.5 35t-47.5 10v20z" />
    <glyph glyph-name="X.sc" unicode="&#xe03a;" horiz-adv-x="547" 
d="M16 505h221v-20l-31 -3q-23 -1 -11 -23q18 -32 92 -144h2q80 112 96 138q14 27 -13 29l-37 3v20h186v-20q-40 -4 -59.5 -11.5t-40.5 -29.5q-30 -34 -117 -150q96 -153 146 -223q23 -32 39.5 -40.5t58.5 -11.5v-19h-251v19l43 4q25 3 13 25t-105 170h-2
q-73 -113 -104 -167q-13 -23 17 -27l37 -5v-19h-190v19q44 2 62.5 12t47.5 45q37 48 117 165l-135 201q-20 28 -34.5 35t-47.5 8v20z" />
    <glyph glyph-name="Y.sc" unicode="&#xe03b;" horiz-adv-x="500" 
d="M-2 505h224v-20l-39 -4q-26 -2 -13 -25q34 -64 119 -207h2q69 128 98 205q12 26 -18 28l-36 3v20h169v-20q-37 -4 -51.5 -12.5t-34.5 -37.5q-27 -42 -103 -189q-13 -24 -13 -50v-121q0 -38 11.5 -45.5t70.5 -10.5v-19h-254v19q59 3 71 10.5t12 45.5v113q0 28 -9 44
q-57 103 -132 219q-13 21 -25.5 26.5t-48.5 7.5v20z" />
    <glyph glyph-name="Yacute.sc" unicode="&#xe03c;" horiz-adv-x="500" 
d="M-2 505h224v-20l-39 -4q-26 -2 -13 -25q34 -64 119 -207h2q69 128 98 205q12 26 -18 28l-36 3v20h169v-20q-37 -4 -51.5 -12.5t-34.5 -37.5q-27 -42 -103 -189q-13 -24 -13 -50v-121q0 -38 11.5 -45.5t70.5 -10.5v-19h-254v19q59 3 71 10.5t12 45.5v113q0 28 -9 44
q-57 103 -132 219q-13 21 -25.5 26.5t-48.5 7.5v20zM238 551l-7 10l88 97q16 17 23 23t16 11t18 4q11 -2 19.5 -14t6.5 -24q-1 -5 -3.5 -9.5t-9 -9l-10 -7t-14 -8.5t-14.5 -8z" />
    <glyph glyph-name="Ydieresis.sc" unicode="&#xe03d;" horiz-adv-x="500" 
d="M-2 505h224v-20l-39 -4q-26 -2 -13 -25q34 -64 119 -207h2q69 128 98 205q12 26 -18 28l-36 3v20h169v-20q-37 -4 -51.5 -12.5t-34.5 -37.5q-27 -42 -103 -189q-13 -24 -13 -50v-121q0 -38 11.5 -45.5t70.5 -10.5v-19h-254v19q59 3 71 10.5t12 45.5v113q0 28 -9 44
q-57 103 -132 219q-13 21 -25.5 26.5t-48.5 7.5v20zM174 656h1q21 0 34 -14t13 -35q-1 -21 -13.5 -34.5t-34.5 -13.5t-35.5 13.5t-13.5 34.5t13.5 35t35.5 14zM357 656h1q22 0 35 -14t12 -35q0 -21 -13 -34.5t-35 -13.5q-21 0 -34.5 13.5t-13.5 34.5t13.5 35t34.5 14z" />
    <glyph glyph-name="Z.sc" unicode="&#xe03e;" horiz-adv-x="512" 
d="M50 505h410l5 -8l-317 -473h159q72 0 105 26.5t49 100.5h22l-15 -151h-437l-2 11l83 117l78 113.5l84.5 126.5l75.5 112h-147q-69 0 -92.5 -25t-39.5 -99h-21v149z" />
    <glyph glyph-name="Zcaron.sc" unicode="&#xe03f;" horiz-adv-x="512" 
d="M50 505h410l5 -8l-317 -473h159q72 0 105 26.5t49 100.5h22l-15 -151h-437l-2 11l83 117l78 113.5l84.5 126.5l75.5 112h-147q-69 0 -92.5 -25t-39.5 -99h-21v149zM145 687l10 9l90 -60q9 -6 12 -6.5t10 4.5l89 62l10 -9l-101 -137h-18z" />
    <glyph glyph-name="cent.fitted" unicode="&#xe040;" horiz-adv-x="499" 
d="M261 562v72h24v-72q86 -1 126.5 -32.5t40.5 -64.5q0 -20 -13.5 -32t-32.5 -12q-21 0 -26 24q-7 52 -33 75t-62 23v-424q118 0 164 111l12 -6q-22 -69 -69 -103.5t-107 -38.5v-90h-24v90q-225 0 -225 242q0 116 64.5 174t160.5 64zM261 122v421q-21 0 -41 -8t-41.5 -28
t-34.5 -64t-13 -108q0 -84 33.5 -144t96.5 -69z" />
    <glyph glyph-name="colonmonetary.fitted" unicode="&#xe041;" horiz-adv-x="499" 
d="M461 132q-11 -45 -41.5 -76.5t-61.5 -43t-59 -11.5l-11 -93h-25l12 95q-5 1 -23.5 1t-29.5 3l-13 -99h-25l13 104q-80 27 -116.5 100.5t-36.5 197.5q0 134 56 222.5t174 94.5l7 70h25l-8 -68q37 0 53 -3l8 71h26l-10 -77q33 -8 66.5 -30.5t33.5 -56.5q0 -39 -30 -39
q-17 0 -24 22q-13 41 -51 74l-66 -557q52 0 83.5 25.5t57.5 80.5zM208 69l62 538q-49 -9 -80 -56t-42.5 -105t-11.5 -127q0 -99 15.5 -151t56.5 -99zM280 36l66 567q-19 7 -51 7l-66 -560q13 -8 51 -14z" />
    <glyph glyph-name="colonmonetary.oldstyle" unicode="&#xe042;" horiz-adv-x="472" 
d="M421 114q-12 -49 -53 -83t-88 -30l-10 -81h-21l10 83q-5 0 -23.5 -1t-22.5 2l-11 -84h-21l11 89q-77 24 -110.5 85t-33.5 174q0 70 17.5 126.5t65 99.5t120.5 47l7 62h22l-7 -61q23 0 47 -3l7 64h21l-8 -69q29 -6 57 -27t28 -46q0 -17 -8 -26.5t-19 -9.5q-7 0 -9.5 0.5
t-5.5 4t-6 11.5q-19 46 -42 67l-53 -476q47 0 75 20t48 69zM197 63l51 461q-109 -25 -109 -248q0 -152 58 -213zM262 33l54 486q-17 6 -46 6l-53 -475q19 -13 45 -17z" />
    <glyph glyph-name="currency.taboldstyle" unicode="&#xe043;" horiz-adv-x="472" 
d="M239 437h1q66 0 104 -35l47 62l41 -38l-56 -58q34 -43 34 -116q0 -66 -37 -113l61 -52l-45 -48l-49 66q-38 -38 -104 -38q-74 0 -108 34l-47 -60l-41 42l54 51q-32 54 -32 118q0 68 34 114l-58 59l40 41l52 -65q36 36 109 36zM236 396h-1q-52 0 -84 -36.5t-32 -104.5
q0 -71 32 -109t88 -38q52 0 82.5 35.5t30.5 108.5q0 67 -32 105.5t-84 38.5z" />
    <glyph glyph-name="dollar.fitted" unicode="&#xe044;" horiz-adv-x="499" 
d="M231 374v234q-44 0 -75.5 -26.5t-31.5 -86.5q0 -47 31 -77t76 -44zM255 609v-244q116 -42 154.5 -75.5t38.5 -107.5q0 -54 -24 -93t-59 -56.5t-62.5 -25t-47.5 -7.5v-87h-24v87q-52 0 -91.5 12t-59.5 30t-30 35t-10 30q0 20 15 33t31 13q23 0 27 -21q22 -109 118 -112
v259q-101 34 -141.5 74t-40.5 108q0 78 54 121t128 45v71h24v-70q78 -2 122 -31.5t44 -62.5q0 -19 -14 -30.5t-28 -11.5q-23 0 -25 19q-8 50 -36.5 72.5t-62.5 25.5zM255 271v-251q42 -1 77 29.5t35 95.5q0 53 -26 77.5t-86 48.5z" />
    <glyph glyph-name="dotlessi.small" unicode="&#xe045;" horiz-adv-x="292" 
d="M189 75q0 -35 11.5 -44t61.5 -12v-19h-233v19q52 3 62 11t10 45v354q0 38 -9.5 45.5t-62.5 10.5v20h233v-20q-51 -3 -62 -11.5t-11 -44.5v-354z" />
    <glyph glyph-name="egrave.superior" unicode="&#xe046;" horiz-adv-x="296" 
d="M246 418h-155q-2 -46 16.5 -82t67.5 -36q56 0 85 54l9 -5q-11 -23 -21 -37.5t-33.5 -27.5t-55.5 -13q-131 0 -131 138q0 63 31 100t96 37q115 0 115 -107q0 -14 -6 -17.5t-18 -3.5zM91 436h98q19 0 19 20q0 75 -56 75q-25 0 -39.5 -19.5t-18 -38t-3.5 -37.5zM159 570
l-62 54q-22 19 -22 32q0 10 7 17.5t18 7.5q8 0 14 -7.5t17 -28.5l35 -69z" />
    <glyph glyph-name="f_i.small" unicode="&#xe047;" horiz-adv-x="766" 
d="M25 505h412v-128l-20 -1q-8 58 -39.5 81t-91.5 23h-73q-14 0 -19 -5.5t-5 -19.5v-191h101q50 0 68.5 12.5t24.5 52.5l19 1v-166l-19 -1q-6 42 -25.5 59t-67.5 17h-101v-164q0 -38 13.5 -45.5t79.5 -10.5v-19h-257v19q55 3 65.5 10.5t10.5 45.5v354q0 38 -11 45.5
t-65 10.5v20zM662 75q0 -35 11.5 -44t61.5 -12v-19h-233v19q52 3 62 11t10 45v354q0 38 -9.5 45.5t-62.5 10.5v20h233v-20q-51 -3 -62 -11.5t-11 -44.5v-354z" />
    <glyph glyph-name="f_l.small" unicode="&#xe048;" horiz-adv-x="946" 
d="M25 505h412v-128l-20 -1q-8 58 -39.5 81t-91.5 23h-73q-14 0 -19 -5.5t-5 -19.5v-191h101q50 0 68.5 12.5t24.5 52.5l19 1v-166l-19 -1q-6 42 -25.5 59t-67.5 17h-101v-164q0 -38 13.5 -45.5t79.5 -10.5v-19h-257v19q55 3 65.5 10.5t10.5 45.5v354q0 38 -11 45.5
t-65 10.5v20zM911 0h-407v19q50 3 60 10t10 46v354q0 35 -10.5 44t-59.5 12v20h238v-20q-58 -3 -68.5 -10.5t-10.5 -45.5v-338q0 -44 17.5 -55.5t85.5 -11.5q74 0 100 23q27 26 42 105h20z" />
    <glyph glyph-name="florin.fitted" unicode="&#xe049;" horiz-adv-x="499" 
d="M415 338h-129l-33 -229q-8 -54 -20 -94.5t-31.5 -77.5t-50.5 -57t-72 -20q-42 0 -69.5 16.5t-27.5 42.5q0 17 16 31.5t29 14.5q18 0 23 -16q26 -69 51 -69q15 0 24 15t18 62q21 112 53 381h-96v25h100l11 65q34 229 173 229q46 0 69.5 -19t23.5 -46q0 -15 -13.5 -26
t-30.5 -11q-19 0 -22 15q-8 37 -17.5 52t-23.5 15q-23 0 -37 -28.5t-25 -110.5l-18 -135h125v-25z" />
    <glyph glyph-name="florin.oldstyle" unicode="&#xe04a;" horiz-adv-x="473" 
d="M396 302h-123l-32 -216q-33 -239 -172 -239q-40 0 -66.5 16.5t-26.5 41.5q0 17 15.5 30.5t28.5 13.5q17 0 22 -16q24 -66 48 -66q15 0 23 14t17 59q26 140 51 362h-91v25h95l10 59q32 220 171 220q43 0 66 -18.5t23 -43.5q0 -15 -13 -26t-29 -11q-19 0 -22 15
q-14 66 -39 66q-21 0 -34.5 -28t-24.5 -108q-10 -82 -16 -125h119v-25z" />
    <glyph glyph-name="g.superior" unicode="&#xe04b;" horiz-adv-x="314" 
d="M227 527l76 20l4 -5l-15 -33h-47q22 -22 22 -62q0 -50 -33.5 -72t-83.5 -22q-11 0 -33 2q-25 -6 -25 -25q0 -26 47 -26h50q111 0 111 -89q0 -54 -47 -83q-44 -26 -101 -26q-55 0 -91.5 22.5t-36.5 65.5q0 10 4 19t7.5 14t13.5 10.5t13.5 7t16.5 5.5l13 5v1
q-21 1 -36.5 17t-15.5 34q0 37 53 53v1q-59 18 -59 86q0 41 28.5 70t90.5 29q49 0 74 -19zM151 531h-1q-24 0 -40.5 -21t-16.5 -63q0 -35 16.5 -57t40.5 -22q26 0 42 21.5t16 57.5q0 40 -16.5 62t-40.5 22zM165 122h1q35 0 59 17.5t24 55.5q0 32 -22 44.5t-67 12.5
q-46 0 -63 -13q-19 -16 -19 -43q0 -34 22.5 -54t64.5 -20z" />
    <glyph glyph-name="germandbls.small" unicode="&#xe04c;" horiz-adv-x="905" 
d="M377 370h-19q-30 130 -126 130q-44 0 -71 -27t-27 -66q0 -45 30.5 -69.5t84.5 -41.5q96 -31 129.5 -62t33.5 -93q0 -68 -48 -112t-146 -44q-84 0 -156 35l-8 144h19q20 -75 56 -117.5t97 -42.5q47 0 75.5 25.5t28.5 71.5q0 44 -29.5 68.5t-81.5 43.5q-37 13 -51.5 18.5
t-41.5 20t-38 28t-20.5 36.5t-9.5 52q0 68 48 109.5t138 41.5q71 0 133 -31v-118zM830 370h-19q-30 130 -126 130q-44 0 -71 -27t-27 -66q0 -45 30.5 -69.5t84.5 -41.5q96 -31 129.5 -62t33.5 -93q0 -68 -48 -112t-146 -44q-84 0 -156 35l-8 144h19q20 -75 56 -117.5
t97 -42.5q47 0 75.5 25.5t28.5 71.5q0 44 -29.5 68.5t-81.5 43.5q-37 13 -51.5 18.5t-41.5 20t-38 28t-20.5 36.5t-9.5 52q0 68 48 109.5t138 41.5q71 0 133 -31v-118z" />
    <glyph glyph-name="numbersign.fitted" unicode="&#xe04d;" horiz-adv-x="499" 
d="M317 376h-113l-26 -106h112zM433 376h-92l-26 -106h91l-10 -47h-91l-45 -178h-26l45 178h-113l-43 -178h-28l45 178h-93l11 47h93l27 106h-93l11 47h93l39 162h27l-40 -162h112l41 162h24l-39 -162h91z" />
    <glyph glyph-name="numbersign.oldstyle" unicode="&#xe04e;" horiz-adv-x="471" 
d="M303 313h-114l-27 -108h114zM422 313h-93l-27 -108h92l-10 -48h-92l-45 -180h-28l46 180h-114l-44 -180h-29l46 180h-95l12 48h94l27 108h-94l11 48h95l40 164h26l-40 -164h114l41 164h26l-40 -164h91z" />
    <glyph glyph-name="orn.001" unicode="&#xe04f;" horiz-adv-x="657" 
d="M322 91q9 31 -4 52q-27 50 -38.5 86t-11.5 83q0 76 42.5 125t123.5 64q121 23 149 39l3 -5q-49 -66 -122 -190.5t-118 -228.5q84 2 150 51.5t75 140.5q1 10 3.5 74t11 106t27.5 73h9q-19 -80 -12 -145q8 -61 8 -108q0 -84 -56 -132.5t-152 -66.5q-68 -12 -80 -23zM312 83
l-10 -5q-77 116 -184 116q-30 0 -49.5 -3t-26.5 -6t-24 -12l-2 4q18 31 53 48.5t76 17.5q75 0 132 -95q10 -17 35 -65zM624 12l-3 -4q-83 57 -198 57q-63 0 -103 -16q-57 -54 -41 -184l-4 -3q-8 26 -40 46q-12 9 -8 21q7 25 33 67t48 66q70 30 161 30q123 0 155 -80z" />
    <glyph glyph-name="orn.002" unicode="&#xe050;" horiz-adv-x="700" 
d="M228 225q-36 -2 -107 -13.5t-96 -17.5l-3 7l40 30l-7 25q90 -12 165 -16q-19 23 -19 53q0 34 29 55.5t90 21.5q72 0 199 -62q109 -52 164 -61v-3q-49 -37 -159 -85.5t-208 -48.5q-102 0 -102 77q0 2 14 38zM321 290h-1q-36 0 -57.5 -14.5t-21.5 -38.5q0 -23 19.5 -38.5
t58.5 -15.5q93 0 185 54v3q-115 50 -183 50z" />
    <glyph glyph-name="orn.003" unicode="&#xe051;" horiz-adv-x="736" 
d="M11 266q12 27 50 56.5t75 29.5q41 0 76 -18t87 -57q-5 25 -5 33q0 30 23 53t59 23q12 0 22.5 -1.5t18 -3t17 -7.5l14.5 -9t15 -13.5l14 -14.5t17.5 -19t18.5 -21q66 -75 147 -75q7 0 14 1.5t11.5 3t10 5t7 5t6.5 5.5l5 5l6 -5q-8 -36 -58 -61q-6 -2 -12 -8
q-65 -102 -237 -102q-74 0 -127.5 35t-53.5 90q0 27 11 39.5t41 18.5q-97 46 -145 46q-78 0 -121 -43z" />
    <glyph glyph-name="orn.024" unicode="&#xe052;" horiz-adv-x="313" 
d="M217 240q25 -40 45 -101.5t26 -98.5h-1q-115 112 -254 199v1q141 89 254 200l1 -1q-31 -140 -71 -199z" />
    <glyph glyph-name="orn.025" unicode="&#xe053;" horiz-adv-x="313" 
d="M104 240q-25 39 -45 100.5t-26 98.5l1 1q113 -111 254 -200v-1q-139 -87 -254 -199h-1q31 139 71 200z" />
    <glyph glyph-name="orn.028" unicode="&#xe054;" horiz-adv-x="435" 
d="M309 239l53 -164l-281 164h228zM337 239l68 218l-1 1l-374 -218v-1l374 -219h1z" />
    <glyph glyph-name="orn.029" unicode="&#xe055;" horiz-adv-x="435" 
d="M127 239l-54 164l281 -164h-227zM98 239l-68 -218l1 -1l374 218v1l-374 219h-1z" />
    <glyph glyph-name="orn.030" unicode="&#xe056;" horiz-adv-x="669" 
d="M291 239l111 159l-324 -159h213zM648 215l-315 13l136 -207l-1 -1l-444 218v1l444 219l1 -1l-137 -207l316 12v-47z" />
    <glyph glyph-name="orn.031" unicode="&#xe057;" horiz-adv-x="669" 
d="M381 239l-111 -159l324 159h-213zM24 263l316 -13l-137 207l1 1l444 -218v-1l-444 -219l-1 1l137 207l-316 -12v47z" />
    <glyph glyph-name="orn.032" unicode="&#xe058;" horiz-adv-x="560" 
d="M407 173v-1q0 -37 -39.5 -69t-81.5 -32q-30 0 -53 11t-60 46q-30 30 -78 69.5t-69 53.5v1q11 11 31 17q120 135 210 135q94 0 94 -110h-11q-26 57 -91 57q-49 0 -86.5 -15.5t-84.5 -64.5q48 2 280 2q39 -48 39 -100zM397 274q91 7 135 23l1 -2l-18 -48l-106 8z" />
    <glyph glyph-name="orn.033" unicode="&#xe059;" horiz-adv-x="560" 
d="M152 301v1q0 38 39 70t81 32q31 0 54 -10.5t60 -46.5q29 -29 77 -68.5t70 -54.5v-1q-11 -11 -31 -17q-121 -135 -211 -135q-94 0 -94 110h11q28 -57 91 -57q51 0 88 15.5t83 64.5q-46 -2 -280 -2q-38 49 -38 99zM162 201q-91 -7 -135 -23l-1 2l18 48l105 -8z" />
    <glyph glyph-name="orn.034" unicode="&#xe05a;" horiz-adv-x="356" 
d="M50 315l58 57h198v-207l-55 -57h-201v207zM81 307v-168h161v168h-161z" />
    <glyph glyph-name="orn.035" unicode="&#xe05b;" horiz-adv-x="512" 
d="M229 458h54l-16 -194l126 149l38 -39l-149 -126l195 17v-55l-195 17l149 -126l-38 -39l-126 149l16 -194h-54l16 194l-126 -149l-39 39l149 126l-194 -17v55l194 -17l-149 126l39 39l126 -149z" />
    <glyph glyph-name="orn.036" unicode="&#xe05c;" horiz-adv-x="495" 
d="M227 338v112h39v-112h-39zM227 25v112h39v-112h-39zM348 257h112v-39h-112v39zM35 257h112v-39h-112v39zM162 294l-79 79l28 28l79 -79zM384 73l-80 79l28 28l79 -80zM305 322l79 80l28 -28l-80 -79zM83 101l80 79l27 -27l-79 -80zM248 309h1q29 0 49.5 -21t20.5 -51
t-20.5 -51t-50.5 -21t-50.5 21t-20.5 51t20.5 51t50.5 21z" />
    <glyph glyph-name="orn.037" unicode="&#xe05d;" horiz-adv-x="478" 
d="M245 447l21 -145l117 88l9 -9l-89 -117l145 -20v-13l-145 -20l89 -117l-9 -9l-117 88l-21 -145h-12l-22 144l-115 -87l-9 9l86 115l-143 22v13l145 20l-88 117l9 9l117 -88l20 145h12z" />
    <glyph glyph-name="orn.038" unicode="&#xe05e;" horiz-adv-x="564" 
d="M414 479q10 13 48.5 30t62.5 22l4 -5q-183 -199 -384 -526h-10q-24 20 -62 95t-38 100q4 7 24.5 25.5t31.5 22.5h2q15 -83 54 -176q36 66 125 207t142 205z" />
    <glyph glyph-name="sterling.fitted" unicode="&#xe05f;" horiz-adv-x="499" 
d="M439 0h-396l-4 7l16 28q51 16 72 55t21 102q0 42 -22 106h-88v26h78q-23 76 -23 139q0 80 50.5 128t130.5 48q75 0 114.5 -30.5t39.5 -70.5q0 -19 -14 -30t-29 -11q-24 0 -27 18q-14 60 -37 82.5t-62 22.5q-86 0 -86 -115q0 -79 37 -181h153v-26h-148q14 -75 -3 -128
t-77 -97v-3h259q20 0 32 12.5t39 64.5l15 -7z" />
    <glyph glyph-name="sterling.oldstyle" unicode="&#xe060;" horiz-adv-x="472" 
d="M394 0h-355l-3 6l13 25q45 14 60 42.5t15 83.5q0 25 -14 101h-72v23h65q-1 8 -6 45t-5 66q0 71 46 115t115 44q65 0 97.5 -26t32.5 -61q0 -17 -12.5 -28.5t-24.5 -11.5q-23 0 -26 20q-11 51 -29.5 70t-51.5 19q-64 0 -64 -93q0 -23 3.5 -49.5t9.5 -59t8 -50.5h129v-23
h-125q8 -130 -80 -192v-4h234q18 0 28 10.5t35 56.5l13 -6z" />
    <glyph glyph-name="uni2014.alt" unicode="&#xe061;" horiz-adv-x="673" 
d="M38 256h597v-47h-597v47z" />
    <glyph glyph-name="uni2190.alt1" unicode="&#xe062;" horiz-adv-x="668" 
d="M643 214l-439 10q33 -30 55 -82t23 -99l-1 -1q-103 137 -256 193v2q159 59 256 193l1 -1q0 -85 -78 -182l439 10v-43z" />
    <glyph glyph-name="uni2190.alt2" unicode="&#xe063;" horiz-adv-x="425" 
d="M400 211h-174v-160l-1 -1l-200 179v1l200 181l1 -1v-160h174v-39z" />
    <glyph glyph-name="uni2192.alt1" unicode="&#xe064;" horiz-adv-x="668" 
d="M25 258l439 -10q-33 30 -55 82t-23 99l1 1q103 -137 256 -193v-2q-159 -59 -256 -193l-1 1q0 85 78 182l-439 -10v43z" />
    <glyph glyph-name="uni2192.alt2" unicode="&#xe065;" horiz-adv-x="425" 
d="M25 250h175v160v1l200 -179v-1l-200 -181v1v160h-175v39z" />
    <glyph glyph-name="yen.fitted" unicode="&#xe066;" horiz-adv-x="499" 
d="M381 0h-261v19q64 3 76.5 11t12.5 42v135h-124v26h124v69h-124v26h119l-127 243q-17 32 -40 35l-25 3v19h204v-19l-44 -4q-23 -2 -11 -23l118 -238h2q41 83 97 229q11 28 -9 30l-52 6v19h168v-19l-26 -4q-19 -3 -28.5 -11t-24.5 -32q-6 -10 -22 -44.5l-41 -90t-47 -99.5
h123v-26h-127v-69h127v-26h-127v-135q0 -34 13 -41.5t76 -11.5v-19z" />
    <glyph glyph-name="yen.oldstyle" unicode="&#xe067;" horiz-adv-x="472" 
d="M354 0h-236v19q55 3 65.5 10t10.5 36v99h-107v25h107v70h-108v24h104l-108 205q-15 27 -36 30l-21 3v19h188v-19l-38 -4q-19 -1 -10 -20l97 -198h1q53 105 87 191q9 25 -10 26l-42 5v19h147v-19l-24 -4q-16 -3 -24.5 -10t-20.5 -27q-3 -5 -96 -197h107v-24h-109v-70h109
v-25h-109v-99q0 -29 11 -36t65 -10v-19z" />
    <glyph glyph-name="uniEFED" unicode="&#xefed;" horiz-adv-x="382" 
d="M190 817h1q21 0 34.5 -14t13.5 -35q-1 -22 -14 -35.5t-35 -13.5t-35.5 13.5t-13.5 35.5q0 21 13.5 35t35.5 14z" />
    <glyph glyph-name="uniEFEE" unicode="&#xefee;" horiz-adv-x="382" 
d="M190 716h-1q-66 0 -87 29t-21 83h15q5 -59 95 -59q52 0 71 14.5t22 44.5h17q0 -53 -22.5 -82.5t-88.5 -29.5z" />
    <glyph glyph-name="uniEFF1" unicode="&#xeff1;" horiz-adv-x="378" 
d="M229 11h12q-76 -61 -76 -128q0 -26 17.5 -42t42.5 -16q32 0 60 23l7 -11q-49 -65 -106 -65q-84 0 -84 83q0 45 38 88t89 68z" />
    <glyph glyph-name="uniEFF2" unicode="&#xeff2;" horiz-adv-x="378" 
d="M191 0h20l-33 -52q85 -10 85 -75q0 -26 -10.5 -44t-27 -26t-30.5 -11t-28 -3q-26 0 -51 14l3 15q12 -5 31 -5q48 0 48 53q0 49 -59 52l-1 5z" />
    <glyph glyph-name="uniEFF3" unicode="&#xeff3;" horiz-adv-x="382" 
d="M191 830h-1q-42 0 -42 -69q0 -68 43 -68t43 68q0 69 -43 69zM191 846h1q38 0 64 -20.5t26 -64.5q0 -43 -26 -63.5t-65 -20.5t-65 20.5t-26 63.5q0 44 26 64.5t65 20.5z" />
    <glyph glyph-name="uniEFF5" unicode="&#xeff5;" horiz-adv-x="382" 
d="M311 812l12 -5q-19 -85 -76 -85q-13 0 -66 16q-47 17 -62 17q-19 0 -30 -8.5t-23 -31.5l-11 6q20 82 80 82q22 0 65 -15q50 -16 60 -16q37 0 51 40z" />
    <glyph glyph-name="uniEFF7" unicode="&#xeff7;" horiz-adv-x="382" 
d="M313 717l-8 -12l-103 54q-11 10 -25 1l-100 -55l-7 12l112 117h18z" />
    <glyph glyph-name="uniF628" unicode="&#xf628;" horiz-adv-x="934" 
d="M478 269h-1q-62 0 -62 -131q0 -130 64 -130q63 0 63 130q0 131 -64 131zM478 -10h-1q-61 0 -95 39.5t-34 108.5q0 71 34 110t96 39t96.5 -39t34.5 -110q0 -69 -34.5 -108.5t-96.5 -39.5zM515 579l24 -18l-415 -598l-16 17l351 508h-173q12 -32 12 -85q0 -70 -34 -109
t-96 -39t-96 39t-34 109t34 109t96 39q55 0 94 -27q13 -11 32 -11h139q37 0 55 25zM168 533h-1q-62 0 -62 -130t63 -130q64 0 64 130t-64 130zM770 269h-1q-62 0 -62 -131q0 -130 64 -130q63 0 63 130q0 131 -64 131zM770 -10h-1q-60 0 -94 39.5t-34 108.5q0 71 34 110
t95 39q63 0 97 -39t34 -110q0 -70 -34 -109t-97 -39z" />
    <glyph glyph-name="uniF629" unicode="&#xf629;" horiz-adv-x="331" 
d="M195 44v-54h-22v54q-70 0 -102.5 36t-32.5 97q0 131 136 139v44h21v-44q47 -1 74 -18t27 -43q0 -12 -10.5 -20.5t-23.5 -8.5q-15 0 -19 17q-13 58 -48 58v-231q61 0 96 61l10 -7q-15 -37 -44 -58t-62 -22zM173 70v231q-24 0 -47 -27t-23 -90q0 -102 70 -114z" />
    <glyph glyph-name="uniF62A" unicode="&#xf62a;" horiz-adv-x="331" 
d="M175 340v-129q68 -20 88 -36q32 -24 32 -69q0 -53 -36.5 -79t-83.5 -27v-55h-22v55q-47 2 -76 15.5t-37 26.5t-8 24q0 16 11.5 27t24.5 11q8 0 12 -4.5t7 -15.5q14 -59 66 -68v140q-64 16 -89 41.5t-25 63.5q0 47 35.5 70t78.5 24v42h22v-42q30 0 52.5 -6.5t33 -16.5
t15.5 -18.5t5 -16.5q0 -14 -9 -23t-21 -9q-17 0 -21 15q-8 29 -23.5 43.5t-31.5 16.5zM153 219v121q-62 -4 -62 -61q0 -42 62 -60zM175 149v-133q29 0 46 16.5t17 49.5q0 28 -16 42t-47 25z" />
    <glyph glyph-name="uniF62B" unicode="&#xf62b;" horiz-adv-x="213" 
d="M34 192h144v-37h-144v37z" />
    <glyph glyph-name="uniF62C" unicode="&#xf62c;" horiz-adv-x="226" 
d="M53 153v1q0 78 28 134q39 76 116 84v-12q-35 -9 -65 -59t-30 -147q0 -96 30 -145.5t65 -59.5v-12q-79 7 -116 79q-28 57 -28 137z" />
    <glyph glyph-name="uniF62D" unicode="&#xf62d;" horiz-adv-x="226" 
d="M173 156v-1q0 -78 -28 -134q-39 -76 -115 -84l-2 12q36 9 66.5 58.5t30.5 146.5q0 96 -30.5 146t-66.5 59l2 13q78 -7 115 -79q28 -57 28 -137z" />
    <glyph glyph-name="uniF62E" unicode="&#xf62e;" horiz-adv-x="331" 
d="M195 322v-54h-22v54q-70 0 -102.5 36t-32.5 97q0 131 136 139v44h21v-44q47 -1 74 -18t27 -43q0 -12 -10.5 -20.5t-23.5 -8.5q-15 0 -19 17q-13 58 -48 58v-231q61 0 96 61l10 -7q-15 -37 -44 -58t-62 -22zM173 348v231q-24 0 -47 -27t-23 -90q0 -102 70 -114z" />
    <glyph glyph-name="uniF62F" unicode="&#xf62f;" horiz-adv-x="331" 
d="M175 618v-129q68 -20 88 -36q32 -24 32 -69q0 -53 -36.5 -79t-83.5 -27v-55h-22v55q-47 2 -76 15.5t-37 26.5t-8 24q0 16 11.5 27t24.5 11q8 0 12 -4.5t7 -15.5q14 -59 66 -68v140q-64 16 -89 41.5t-25 63.5q0 47 35.5 70t78.5 24v42h22v-42q30 0 52.5 -6.5t33 -16.5
t15.5 -18.5t5 -16.5q0 -14 -9 -23t-21 -9q-17 0 -21 15q-8 29 -23.5 43.5t-31.5 16.5zM153 497v121q-62 -4 -62 -61q0 -42 62 -60zM175 427v-133q29 0 46 16.5t17 49.5q0 28 -16 42t-47 25z" />
    <glyph glyph-name="uniF630" unicode="&#xf630;" horiz-adv-x="213" 
d="M34 470h144v-37h-144v37z" />
    <glyph glyph-name="uniF631" unicode="&#xf631;" horiz-adv-x="226" 
d="M53 431v1q0 78 28 134q39 76 116 84v-12q-35 -9 -65 -59t-30 -147q0 -96 30 -145.5t65 -59.5v-12q-79 7 -116 79q-28 57 -28 137z" />
    <glyph glyph-name="uniF632" unicode="&#xf632;" horiz-adv-x="226" 
d="M173 434v-1q0 -78 -28 -134q-39 -76 -115 -84l-2 12q36 9 66.5 58.5t30.5 146.5q0 96 -30.5 146t-66.5 59l2 13q78 -7 115 -79q28 -57 28 -137z" />
    <glyph glyph-name="uniF633" unicode="&#xf633;" horiz-adv-x="800" 
d="M335 155h1q47 0 97 76t76 171q14 54 20 87q-20 16 -50 16q-52 0 -95.5 -52.5t-65 -119t-21.5 -120.5q0 -58 38 -58zM540 519h68q-51 -200 -70 -294q-19 -86 24 -86q61 0 113 70t52 188q0 135 -81 211t-199 76q-159 0 -248.5 -116t-89.5 -297q0 -47 8 -90t28.5 -86.5
t52.5 -75t85 -51.5t120 -20q85 0 141 27t116 94l8 -12q-111 -145 -294 -145q-68 0 -127 20t-106.5 61.5t-75 111.5t-27.5 163q0 205 118.5 322t292.5 117q149 0 231 -80.5t82 -221.5q0 -121 -66 -206.5t-170 -85.5q-96 0 -48 155l-2 1q-18 -30 -32.5 -50t-40 -48t-56.5 -43
t-64 -15q-66 0 -66 100q0 33 8 71.5t27.5 81.5t47.5 77.5t73 57.5t99 23q40 0 66 -15z" />
    <glyph glyph-name="uniF637" unicode="&#xf637;" horiz-adv-x="353" 
d="M114 502q21 16 32.5 23.5t30 14.5t37.5 7q80 0 80 -85v-139q0 -18 7 -23.5t36 -6.5v-16h-142v14q28 3 34.5 8t6.5 23v137q0 60 -57 60q-26 0 -45 -18t-19 -52v-127q0 -17 6.5 -22.5t33.5 -8.5v-14h-142v14q29 3 36 8.5t7 23.5v299q0 13 -3.5 18t-14.5 7l-22 4v11l96 13
l2 -1v-172z" />
    <glyph glyph-name="uniF638" unicode="&#xf638;" horiz-adv-x="499" 
d="M152 107l176 449q-29 64 -81 64q-117 0 -117 -306q0 -129 22 -207zM339 526l-175 -451q29 -67 83 -67q118 0 118 306q0 134 -26 212zM386 644l-17 -45q87 -77 87 -285q0 -325 -209 -325q-63 0 -106 29l-23 -58l-19 9l24 63q-84 76 -84 282q0 325 208 325q61 0 103 -27
l18 43z" />
    <glyph glyph-name="uniF639" unicode="&#xf639;" horiz-adv-x="499" 
d="M247 620h-1q-114 0 -114 -306t115 -306t115 306t-115 306zM247 639h1q208 0 208 -325t-209 -325t-209 325t209 325z" />
    <glyph glyph-name="uniF63A" unicode="&#xf63a;" horiz-adv-x="499" 
d="M463 136l-37 -136h-386l-4 5q35 114 181 242q62 55 88 107.5t26 123.5q0 142 -96 142q-106 0 -116 -162q-2 -14 -16 -14q-17 0 -38 13t-21 35q0 54 52 100.5t148 46.5q83 0 133 -43.5t50 -131.5q0 -26 -4 -47t-17.5 -41.5l-22 -32.5t-34 -33t-36 -28t-44.5 -32
q-77 -54 -117.5 -93.5t-62.5 -86.5h273q34 0 48.5 12t34.5 60z" />
    <glyph glyph-name="uniF63B" unicode="&#xf63b;" horiz-adv-x="499" 
d="M133 337v1q0 18 25 18q8 0 30 -3.5t47 -3.5q28 0 46.5 11.5t26 33.5t10 41t2.5 46q0 139 -93 139q-46 0 -71 -27t-39 -93q-4 -17 -23 -17q-15 0 -28 11t-13 31q0 36 49.5 75t133.5 39q80 0 129 -37.5t49 -113.5q0 -62 -45 -99.5t-95 -46.5v-4q25 -2 49 -9t53.5 -22.5
t47.5 -47.5t18 -77q0 -90 -59 -141.5t-162 -51.5q-99 0 -143.5 33.5t-44.5 73.5q0 22 15.5 36.5t33.5 14.5q10 0 14.5 -5t7.5 -19q28 -115 118 -115q54 0 88.5 41.5t34.5 126.5q0 68 -27 108.5t-83 40.5q-25 0 -46.5 -3.5t-30.5 -3.5q-25 0 -25 19z" />
    <glyph glyph-name="uniF63C" unicode="&#xf63c;" horiz-adv-x="499" 
d="M281 183h-257l-6 16q37 63 140 221.5t139 207.5h67v-415h96v-30h-96v-119q0 -23 6 -30.5t22 -9.5l46 -5v-19h-244v19l55 5q18 2 25 9.5t7 30.5v119zM58 213h223v358h-2q-173 -272 -221 -358z" />
    <glyph glyph-name="uniF63D" unicode="&#xf63d;" horiz-adv-x="499" 
d="M407 557h-269q-19 0 -21 -15l-21 -221l2 -1q77 64 159 64q91 0 143 -44.5t52 -137.5q0 -92 -57.5 -152.5t-168.5 -60.5q-93 0 -140 37t-47 77q0 21 16 36t32 15q21 0 28 -23q8 -29 14.5 -46.5t20 -37.5t34 -29.5t49.5 -9.5q117 0 117 183q0 85 -36 121.5t-89 36.5
q-45 0 -77 -15.5t-63 -50.5l-11 8l23 333l4 4h200q108 0 122 5l6 2l3 -6z" />
    <glyph glyph-name="uniF63E" unicode="&#xf63e;" horiz-adv-x="499" 
d="M284 639h1q77 0 117 -29t40 -63q0 -17 -12.5 -28t-29.5 -11q-19 0 -24 19q-10 41 -37.5 67t-59.5 26q-67 0 -105 -78.5t-38 -241.5h2q71 85 154 85q78 0 128 -46t50 -137q0 -98 -55 -155.5t-159 -57.5q-216 0 -216 301q0 186 74 274q62 75 170 75zM258 348h-1
q-54 0 -86.5 -36.5t-32.5 -83.5q0 -91 31.5 -155.5t88.5 -64.5q56 0 85.5 50t29.5 128q0 77 -34 119.5t-81 42.5z" />
    <glyph glyph-name="uniF63F" unicode="&#xf63f;" horiz-adv-x="499" 
d="M68 628h398l3 -3q-19 -82 -136 -288q-34 -59 -57 -130.5t-22 -129.5q0 -29 6 -52q4 -19 -7 -27.5t-33 -8.5q-47 0 -47 50q0 51 33 129.5t92 163.5q102 145 126 224h-293q-20 0 -32.5 -7t-18 -14.5t-13.5 -25.5l-12 -26h-20z" />
    <glyph glyph-name="uniF640" unicode="&#xf640;" horiz-adv-x="499" 
d="M249 326h-1q-113 0 -113 -153q0 -71 27.5 -118t87.5 -47t87 45t27 115q0 158 -115 158zM249 -11h-1q-106 0 -158 51.5t-52 131.5q0 72 38.5 111.5t95.5 53.5v2q-113 29 -113 140q0 75 53.5 117.5t136.5 42.5q85 0 138 -42.5t53 -117.5q0 -58 -31.5 -93t-81.5 -47v-2
q134 -32 134 -165q0 -80 -52.5 -131.5t-159.5 -51.5zM250 344h1q95 0 95 137q0 139 -97 139q-50 0 -73 -38.5t-23 -100.5q0 -137 97 -137z" />
    <glyph glyph-name="uniF641" unicode="&#xf641;" horiz-adv-x="499" 
d="M211 261h-1q-76 0 -126 45.5t-50 130.5q0 95 55.5 148.5t148.5 53.5q98 0 150 -65q57 -68 57 -236q0 -186 -63 -272q-57 -77 -169 -77q-79 0 -119.5 29.5t-40.5 65.5q0 18 12.5 29.5t28.5 11.5q18 0 24 -21q29 -96 107 -96q129 0 129 336h-2q-23 -37 -62 -60t-79 -23z
M244 302h1q77 0 98 64q7 22 7 53q0 50 -10.5 93.5t-37 75.5t-65.5 32q-53 0 -82.5 -45.5t-29.5 -117.5q0 -70 30.5 -112.5t88.5 -42.5z" />
    <glyph glyph-name="uniF642" unicode="&#xf642;" horiz-adv-x="642" 
d="M478 269h-1q-62 0 -62 -131q0 -130 64 -130q63 0 63 130q0 131 -64 131zM478 -10h-1q-61 0 -95 39.5t-34 108.5q0 71 34 110t96 39t96.5 -39t34.5 -110q0 -69 -34.5 -108.5t-96.5 -39.5zM515 579l23 -18l-414 -598l-17 17l351 508h-172q12 -32 12 -85q0 -70 -34 -109
t-96 -39t-96 39t-34 109t34 109t96 39q55 0 94 -27q13 -11 32 -11h139q37 0 55 25zM168 533h-1q-62 0 -62 -130t63 -130q64 0 64 130t-64 130z" />
    <glyph glyph-name="uniF643" unicode="&#xf643;" horiz-adv-x="472" 
d="M236 -11h-1q-101 0 -153 64t-52 181t52 181t154 64q104 0 155.5 -64t51.5 -181t-52 -181t-155 -64zM236 461h-1q-111 0 -111 -227q0 -226 113 -226q111 0 111 226q0 227 -112 227z" />
    <glyph glyph-name="uniF644" unicode="&#xf644;" horiz-adv-x="472" 
d="M389 0h-297v19l71 8q20 2 27.5 10.5t7.5 29.5v325q0 31 -24 34l-73 7v15l178 31l5 -4v-408q0 -23 8.5 -30.5t25.5 -9.5l71 -8v-19z" />
    <glyph glyph-name="uniF645" unicode="&#xf645;" horiz-adv-x="472" 
d="M413 0h-369l-4 5q24 98 159 169q68 35 90 71.5t22 87.5q0 53 -19 90.5t-65 37.5q-49 0 -72 -31t-34 -100q-5 -23 -30 -23q-18 0 -30.5 11.5t-12.5 32.5q0 46 47 87t140 41q175 0 175 -146q0 -61 -38.5 -97.5t-114.5 -63.5q-127 -45 -151 -100h332l4 -5z" />
    <glyph glyph-name="uniF646" unicode="&#xf646;" horiz-adv-x="472" 
d="M210 -114h-1q-87 0 -129.5 33t-42.5 74q0 18 12.5 30.5t30.5 12.5q12 0 18 -7t10 -22q20 -102 109 -102q50 0 77.5 39.5t27.5 112.5q0 70 -26.5 99.5t-82.5 29.5q-17 0 -40 -4t-31 -4q-19 0 -19 21q0 22 19 22q7 0 30 -4t41 -4q50 0 69 30.5t19 88.5q0 32 -7 59
t-27.5 48.5t-52.5 21.5q-43 0 -64.5 -24t-30.5 -77q-3 -29 -27 -29q-17 0 -28.5 9.5t-11.5 26.5q0 42 47.5 77t121.5 35q32 0 60 -6.5t54.5 -21t42 -43.5t15.5 -70q0 -104 -132 -132v-5q25 -3 39 -5.5t39.5 -12t40 -23t26.5 -39t12 -59.5q0 -84 -55.5 -130t-152.5 -46z" />
    <glyph glyph-name="uniF647" unicode="&#xf647;" horiz-adv-x="472" 
d="M273 69h-246l-1 22q83 137 260 376h70v-363h85v-35h-85v-172h-83v172zM67 104h206v307h-2q-80 -111 -204 -307z" />
    <glyph glyph-name="uniF648" unicode="&#xf648;" horiz-adv-x="472" 
d="M386 392h-239q-14 0 -17.5 -3.5t-5.5 -13.5l-31 -194l2 -1q24 28 67.5 46.5t86.5 18.5q172 0 172 -168q0 -83 -53.5 -137t-156.5 -54q-85 0 -127.5 33t-42.5 74q0 20 12.5 31.5t29.5 11.5q21 0 28 -27q12 -62 39 -83t66 -21q53 0 82.5 44.5t29.5 112.5q0 77 -33 111
t-82 34q-43 0 -72 -14t-56 -49l-17 12l37 309l5 3h181q109 0 119 5l5 -3z" />
    <glyph glyph-name="uniF649" unicode="&#xf649;" horiz-adv-x="472" 
d="M413 574l-5 -14q-53 8 -72 8q-91 0 -152 -70t-61 -214h2q22 32 67 58t92 26q75 0 118 -44.5t43 -128.5q0 -91 -52 -148.5t-151 -57.5q-105 0 -156.5 62.5t-51.5 197.5q0 149 76.5 246t221.5 97q63 0 81 -18zM243 329h-1q-37 0 -65.5 -19.5t-40.5 -47.5q-9 -19 -9 -47
q0 -83 31.5 -145t88.5 -62q54 0 81 47.5t27 121.5q0 75 -32 113.5t-80 38.5z" />
    <glyph glyph-name="uniF64A" unicode="&#xf64a;" horiz-adv-x="472" 
d="M59 468h374l3 -3q-14 -85 -125 -263q-69 -113 -69 -244q0 -16 5 -43q5 -29 -41 -29t-46 48t21.5 103.5t44.5 92t62 91.5q91 131 101 171h-270q-25 0 -36.5 -13t-34.5 -65l-17 1z" />
    <glyph glyph-name="uniF64B" unicode="&#xf64b;" horiz-adv-x="472" 
d="M237 301h-1q-105 0 -105 -135q0 -72 27 -115t80 -43q54 0 80 42.5t26 115.5q0 135 -107 135zM237 -11h-1q-91 0 -145.5 43.5t-54.5 129.5q0 122 131 151v3q-110 25 -110 130q0 71 50.5 108.5t129.5 37.5q80 0 130 -37t50 -109q0 -102 -115 -129v-3q136 -31 136 -152
q0 -86 -54.5 -129.5t-146.5 -43.5zM237 321h1q46 0 68.5 36t22.5 92q0 58 -23 91.5t-69 33.5q-91 0 -91 -125q0 -56 22.5 -92t68.5 -36z" />
    <glyph glyph-name="uniF64C" unicode="&#xf64c;" horiz-adv-x="472" 
d="M231 479h1q203 0 203 -260q0 -151 -65.5 -242t-207.5 -91q-66 0 -97 24l4 16q33 -12 79 -12q96 0 145.5 69t49.5 204l-2 2q-61 -77 -143 -77q-74 0 -118.5 42t-44.5 133q0 86 53.5 139t142.5 53zM123 303v-1q0 -67 28 -109t86 -42q64 0 88 45q16 32 16 78
q0 80 -30.5 133.5t-82.5 53.5q-53 0 -79 -43t-26 -115z" />
    <glyph glyph-name="uniF64D" unicode="&#xf64d;" horiz-adv-x="472" 
d="M421 114q-12 -49 -53 -83t-88 -30l-10 -81h-21l10 83q-5 0 -23.5 -1t-22.5 2l-11 -84h-21l11 89q-77 24 -110.5 85t-33.5 174q0 70 17.5 126.5t65 99.5t120.5 47l7 62h22l-7 -61q23 0 47 -3l7 64h21l-8 -69q29 -6 57 -27t28 -46q0 -17 -8 -26.5t-19 -9.5q-7 0 -9.5 0.5
t-5.5 4t-6 11.5q-19 46 -42 67l-53 -476q47 0 75 20t48 69zM197 63l51 461q-109 -25 -109 -248q0 -152 58 -213zM262 33l54 486q-17 6 -46 6l-53 -475q19 -13 45 -17z" />
    <glyph glyph-name="uniF64E" unicode="&#xf64e;" horiz-adv-x="472" 
d="M165 330h202v-23h-203v-20v-26v-18h203v-24h-201q10 -193 123 -193q19 0 30 1.5t30 8.5t34.5 26t27.5 50l16 -6q-28 -117 -154 -117q-101 0 -146.5 60.5t-49.5 169.5h-36v24h34q0 47 1 64h-35v23h37q13 110 62 165.5t145 55.5q72 0 105.5 -30t33.5 -60q0 -15 -8.5 -25
t-21.5 -10q-19 0 -24 26q-20 79 -83 79q-53 0 -83.5 -46.5t-38.5 -154.5z" />
    <glyph glyph-name="uniF64F" unicode="&#xf64f;" horiz-adv-x="472" 
d="M395 302h-123l-32 -216q-33 -239 -172 -239q-40 0 -66.5 16.5t-26.5 41.5q0 17 15.5 30.5t28.5 13.5q17 0 22 -16q24 -66 48 -66q15 0 23 14t17 59q26 140 51 362h-91v25h95l10 59q32 220 171 220q43 0 66 -18.5t23 -43.5q0 -15 -13 -26t-29 -11q-19 0 -22 15
q-14 66 -39 66q-21 0 -34.5 -28t-24.5 -108q-10 -82 -16 -125h119v-25z" />
    <glyph glyph-name="uniF650" unicode="&#xf650;" horiz-adv-x="472" 
d="M303 313h-114l-27 -108h114zM422 313h-93l-27 -108h92l-10 -48h-92l-45 -180h-28l46 180h-114l-44 -180h-29l46 180h-95l12 48h94l27 108h-94l11 48h95l40 164h26l-40 -164h114l41 164h26l-40 -164h91z" />
    <glyph glyph-name="uniF651" unicode="&#xf651;" horiz-adv-x="472" 
d="M394 0h-355l-3 6l13 25q45 14 60 42.5t15 83.5q0 25 -14 101h-72v23h65q-1 8 -6 45t-5 66q0 71 46 115t115 44q65 0 97.5 -26t32.5 -61q0 -17 -12.5 -28.5t-24.5 -11.5q-23 0 -26 20q-11 51 -29.5 70t-51.5 19q-64 0 -64 -93q0 -23 3.5 -49.5t9.5 -59t8 -50.5h129v-23
h-125q8 -130 -80 -192v-4h234q18 0 28 10.5t35 56.5l13 -6z" />
    <glyph glyph-name="uniF652" unicode="&#xf652;" horiz-adv-x="472" 
d="M354 0h-236v19q55 3 65.5 10t10.5 36v99h-107v25h107v70h-108v24h104l-108 205q-15 27 -36 30l-21 3v19h188v-19l-38 -4q-19 -1 -10 -20l97 -198h1q53 105 87 191q9 25 -10 26l-42 5v19h147v-19l-24 -4q-16 -3 -24.5 -10t-20.5 -27q-3 -5 -96 -197h107v-24h-109v-70h109
v-25h-109v-99q0 -29 11 -36t65 -10v-19z" />
    <glyph glyph-name="uniF653" unicode="&#xf653;" horiz-adv-x="472" 
d="M246 492v-188q91 -25 120 -42q61 -36 61 -109q0 -51 -31 -87.5t-70.5 -51t-79.5 -14.5v-75h-23v75q-51 1 -90 13t-58.5 28t-29 30t-9.5 25q0 22 14.5 35t31.5 13t26 -24q13 -38 38 -62.5t44 -31.5t33 -7v203q-97 25 -135.5 58t-38.5 90q0 40 19 69.5t48.5 44t56 21
t50.5 6.5v63h23v-63q80 -1 121.5 -31t41.5 -58q0 -21 -12.5 -32t-28.5 -11q-20 0 -26 24q-11 43 -40.5 65t-55.5 24zM223 312v180q-41 -1 -71.5 -22.5t-30.5 -66.5q0 -65 102 -91zM246 214v-195q45 1 74.5 25.5t29.5 73.5q0 23 -9.5 40t-28 28t-32 16.5t-34.5 11.5z" />
    <glyph glyph-name="uniF654" unicode="&#xf654;" horiz-adv-x="472" 
d="M253 458v66h24v-66q79 -1 116.5 -30.5t37.5 -60.5q0 -18 -12 -29t-29 -11q-21 0 -26 21q-10 46 -33 69.5t-54 23.5v-389q51 0 88 21.5t61 79.5l13 -8q-20 -61 -63.5 -92t-98.5 -35v-83h-24v83q-103 2 -154 54t-51 167q0 104 58.5 160t146.5 59zM253 54v387
q-20 0 -38 -7.5t-37 -26.5t-30.5 -60.5t-11.5 -100.5q0 -77 29.5 -130.5t87.5 -61.5z" />
    <glyph glyph-name="uniF655" unicode="&#xf655;" 
d="M160 361h1q135 0 135 -184q0 -182 -136 -182q-137 0 -137 182q0 184 137 184zM160 346h-1q-68 0 -68 -169q0 -167 69 -167q68 0 68 167q0 169 -68 169z" />
    <glyph glyph-name="uniF656" unicode="&#xf656;" 
d="M261 0h-193v16l44 5q13 2 17.5 6.5t4.5 18.5v254q0 22 -13 23l-52 6v13l122 19l4 -3v-312q0 -13 4.5 -18t16.5 -7l45 -5v-16z" />
    <glyph glyph-name="uniF657" unicode="&#xf657;" 
d="M268 0h-239l-4 6q4 29 34 67.5t84 74.5q66 45 66 120q0 32 -13 55t-42 23q-30 0 -45 -20.5t-23 -63.5q-4 -20 -23 -20q-14 0 -22.5 9t-8.5 24q0 32 34.5 59t92.5 27q57 0 87.5 -26.5t30.5 -75.5q0 -42 -23 -64.5t-88 -58.5q-81 -44 -94 -82h157q19 0 27.5 9t23.5 41
l15 -5z" />
    <glyph glyph-name="uniF658" unicode="&#xf658;" 
d="M87 188v1q0 16 18 16q9 0 27 -2.5t28 -2.5q41 0 41 70q0 76 -50 76q-47 0 -63 -76q-3 -16 -17 -16t-24 8.5t-10 23.5q0 27 33 51t86 24q48 0 80 -20.5t32 -66.5q0 -19 -7 -33t-14 -21.5t-23.5 -14.5t-20.5 -8l-21 -5v-1q15 -1 29.5 -4.5t33.5 -12.5t30.5 -27t11.5 -44
q0 -108 -138 -108q-55 0 -89 20t-34 49q0 16 11.5 26.5t26.5 10.5q12 0 19 -18q11 -36 28 -54.5t45 -18.5q60 0 60 90q0 43 -18.5 61t-36.5 18q-16 0 -35 -3.5t-21 -3.5q-18 0 -18 16z" />
    <glyph glyph-name="uniF659" unicode="&#xf659;" 
d="M179 103h-150l-5 15q104 158 168 237h47v-229h56v-23h-56v-59q0 -20 19 -23l30 -5v-16h-168v16l40 5q19 2 19 23v59zM56 126h123v183h-2q-91 -134 -121 -183z" />
    <glyph glyph-name="uniF65A" unicode="&#xf65a;" 
d="M72 355h209l2 -3l-23 -51h-158q-14 0 -16 -12l-14 -106q47 36 101 36q119 0 119 -102q0 -122 -136 -122q-57 0 -91.5 20.5t-34.5 49.5q0 16 11 26t26 10q13 0 21 -18q22 -73 71 -73q32 0 48 26.5t16 69.5q0 88 -74 88q-50 0 -84 -39l-12 13l16 184z" />
    <glyph glyph-name="uniF65B" unicode="&#xf65b;" 
d="M179 361h1q47 0 77 -19.5t30 -48.5q0 -12 -11 -21t-22 -9q-16 0 -22 18q-18 65 -57 65q-81 0 -81 -172q48 50 100 50q48 0 79 -26.5t31 -78.5q0 -57 -33.5 -90.5t-101.5 -33.5q-139 0 -139 172q0 83 35.5 138.5t113.5 55.5zM170 10h1q67 0 67 95q0 44 -21 68t-46 24
q-31 0 -52.5 -20t-21.5 -46q0 -51 17 -86t56 -35z" />
    <glyph glyph-name="uniF65C" unicode="&#xf65c;" 
d="M45 355h250l3 -4q-19 -73 -79 -164q-35 -53 -35 -153q0 -22 -7 -30.5t-27 -8.5q-16 0 -24.5 7.5t-8.5 29.5q0 26 14 57.5t25.5 47.5l39.5 53q53 67 61 111h-171q-10 0 -15 -0.5t-9.5 -5.5t-6.5 -8t-8 -15.5t-11 -21.5l-14 4z" />
    <glyph glyph-name="uniF65D" unicode="&#xf65d;" 
d="M161 180h-1q-67 0 -67 -83q0 -41 18.5 -64t49.5 -23t49.5 22.5t18.5 64.5q0 38 -18 60.5t-50 22.5zM161 -5h-1q-136 0 -136 105q0 42 26 63.5t56 26.5v3q-29 6 -48.5 25.5t-19.5 51.5q0 40 29 65.5t94 25.5q123 0 123 -91q0 -32 -21 -51.5t-50 -25.5v-3q31 -5 58 -26.5
t27 -63.5q0 -105 -137 -105zM161 346h-1q-27 0 -42.5 -20t-15.5 -58q0 -33 16 -52.5t43 -19.5q58 0 58 72q0 33 -15.5 55.5t-42.5 22.5z" />
    <glyph glyph-name="uniF65E" unicode="&#xf65e;" 
d="M160 361h1q127 0 127 -168q0 -198 -139 -198q-50 0 -80.5 18.5t-30.5 46.5q0 13 10 22.5t23 9.5q17 0 24 -21q17 -61 62 -61q37 0 51 46t16 129l-1 1q-37 -40 -88 -40q-47 0 -77 26t-30 75q0 56 34.5 85t97.5 29zM156 347h-1q-61 0 -61 -92q0 -36 17 -59t50 -23
q60 0 60 63q0 57 -19 84t-46 27z" />
    <glyph glyph-name="uniF65F" unicode="&#xf65f;" horiz-adv-x="137" 
d="M13 -78q35 43 35 108q0 17 -12 41q7 6 25 13.5t29 6.5q18 -18 18 -40q0 -56 -82 -138z" />
    <glyph glyph-name="uniF660" unicode="&#xf660;" horiz-adv-x="137" 
d="M68 -10q-40 0 -40 43t40 43t40 -43t-40 -43z" />
    <glyph glyph-name="uniF661" unicode="&#xf661;" 
d="M160 639h1q135 0 135 -184q0 -182 -136 -182q-137 0 -137 182q0 184 137 184zM160 624h-1q-68 0 -68 -169q0 -167 69 -167q68 0 68 167q0 169 -68 169z" />
    <glyph glyph-name="uniF662" unicode="&#xf662;" 
d="M261 278h-193v16l44 5q13 2 17.5 6.5t4.5 18.5v254q0 22 -13 23l-52 6v13l122 19l4 -3v-312q0 -13 4.5 -18t16.5 -7l45 -5v-16z" />
    <glyph glyph-name="uniF663" unicode="&#xf663;" 
d="M268 278h-239l-4 6q4 29 34 67.5t84 74.5q66 45 66 120q0 32 -13 55t-42 23q-30 0 -45 -20.5t-23 -63.5q-4 -20 -23 -20q-14 0 -22.5 9t-8.5 24q0 32 34.5 59t92.5 27q57 0 87.5 -26.5t30.5 -75.5q0 -42 -23 -64.5t-88 -58.5q-81 -44 -94 -82h157q19 0 27.5 9t23.5 41
l15 -5z" />
    <glyph glyph-name="uniF664" unicode="&#xf664;" 
d="M87 466v1q0 16 18 16q9 0 27 -2.5t28 -2.5q41 0 41 70q0 76 -50 76q-47 0 -63 -76q-3 -16 -17 -16t-24 8.5t-10 23.5q0 27 33 51t86 24q48 0 80 -20.5t32 -66.5q0 -19 -7 -33t-14 -21.5t-23.5 -14.5t-20.5 -8l-21 -5v-1q15 -1 29.5 -4.5t33.5 -12.5t30.5 -27t11.5 -44
q0 -108 -138 -108q-55 0 -89 20t-34 49q0 16 11.5 26.5t26.5 10.5q12 0 19 -18q11 -36 28 -54.5t45 -18.5q60 0 60 90q0 43 -18.5 61t-36.5 18q-16 0 -35 -3.5t-21 -3.5q-18 0 -18 16z" />
    <glyph glyph-name="uniF665" unicode="&#xf665;" 
d="M179 381h-150l-5 15q104 158 168 237h47v-229h56v-23h-56v-59q0 -20 19 -23l30 -5v-16h-168v16l40 5q19 2 19 23v59zM56 404h123v183h-2q-91 -134 -121 -183z" />
    <glyph glyph-name="uniF666" unicode="&#xf666;" 
d="M72 633h209l2 -3l-23 -51h-158q-14 0 -16 -12l-14 -106q47 36 101 36q119 0 119 -102q0 -122 -136 -122q-57 0 -91.5 20.5t-34.5 49.5q0 16 11 26t26 10q13 0 21 -18q22 -73 71 -73q32 0 48 26.5t16 69.5q0 88 -74 88q-50 0 -84 -39l-12 13l16 184z" />
    <glyph glyph-name="uniF667" unicode="&#xf667;" 
d="M179 639h1q47 0 77 -19.5t30 -48.5q0 -12 -11 -21t-22 -9q-16 0 -22 18q-18 65 -57 65q-81 0 -81 -172q48 50 100 50q48 0 79 -26.5t31 -78.5q0 -57 -33.5 -90.5t-101.5 -33.5q-139 0 -139 172q0 83 35.5 138.5t113.5 55.5zM170 288h1q67 0 67 95q0 44 -21 68t-46 24
q-31 0 -52.5 -20t-21.5 -46q0 -51 17 -86t56 -35z" />
    <glyph glyph-name="uniF668" unicode="&#xf668;" 
d="M45 633h250l3 -4q-19 -73 -79 -164q-35 -53 -35 -153q0 -22 -7 -30.5t-27 -8.5q-16 0 -24.5 7.5t-8.5 29.5q0 26 14 57.5t25.5 47.5l39.5 53q53 67 61 111h-171q-10 0 -15 -0.5t-9.5 -5.5t-6.5 -8t-8 -15.5t-11 -21.5l-14 4z" />
    <glyph glyph-name="uniF669" unicode="&#xf669;" 
d="M161 458h-1q-67 0 -67 -83q0 -41 18.5 -64t49.5 -23t49.5 22.5t18.5 64.5q0 38 -18 60.5t-50 22.5zM161 273h-1q-136 0 -136 105q0 42 26 63.5t56 26.5v3q-29 6 -48.5 25.5t-19.5 51.5q0 40 29 65.5t94 25.5q123 0 123 -91q0 -32 -21 -51.5t-50 -25.5v-3q31 -5 58 -26.5
t27 -63.5q0 -105 -137 -105zM161 624h-1q-27 0 -42.5 -20t-15.5 -58q0 -33 16 -52.5t43 -19.5q58 0 58 72q0 33 -15.5 55.5t-42.5 22.5z" />
    <glyph glyph-name="uniF66A" unicode="&#xf66a;" 
d="M160 639h1q127 0 127 -168q0 -198 -139 -198q-50 0 -80.5 18.5t-30.5 46.5q0 13 10 22.5t23 9.5q17 0 24 -21q17 -61 62 -61q37 0 51 46t16 129l-1 1q-37 -40 -88 -40q-47 0 -77 26t-30 75q0 56 34.5 85t97.5 29zM156 625h-1q-61 0 -61 -92q0 -36 17 -59t50 -23
q60 0 60 63q0 57 -19 84t-46 27z" />
    <glyph glyph-name="uniF66B" unicode="&#xf66b;" horiz-adv-x="137" 
d="M13 200q35 43 35 108q0 17 -12 41q7 6 25 13.5t29 6.5q18 -18 18 -40q0 -56 -82 -138z" />
    <glyph glyph-name="uniF66C" unicode="&#xf66c;" horiz-adv-x="137" 
d="M68 268q-40 0 -40 43t40 43t40 -43t-40 -43z" />
    <glyph glyph-name="uniF6AE" unicode="&#xf6ae;" horiz-adv-x="363" 
d="M141 329v-1q0 -405 182 -447v-19q-72 3 -124 46t-79 113.5t-39 146t-12 161.5q0 89 12.5 166t40 146.5t79 111t122.5 44.5v-18q-29 -6 -52.5 -18.5t-48.5 -44t-42 -78t-28 -126t-11 -183.5z" />
    <glyph glyph-name="uniF6AF" unicode="&#xf6af;" horiz-adv-x="363" 
d="M220 330v1q0 406 -182 448v18q72 -3 124 -45.5t79 -113t39 -146.5t12 -162q0 -69 -7.5 -132t-25.5 -124.5t-46 -106.5t-73 -74t-102 -31v19q29 6 52 18.5t48.5 43.5t42.5 78t28 126t11 183z" />
    <glyph glyph-name="uniF6B0" unicode="&#xf6b0;" horiz-adv-x="293" 
d="M166 704v-769q0 -33 13.5 -41t77.5 -11v-25h-148v923h148v-26q-64 -2 -77.5 -10t-13.5 -41z" />
    <glyph glyph-name="uniF6B1" unicode="&#xf6b1;" horiz-adv-x="293" 
d="M128 -65v769q0 33 -14 41t-77 10v26h147v-923h-147v25q63 3 77 11.5t14 40.5z" />
    <glyph glyph-name="uniF6B2" unicode="&#xf6b2;" horiz-adv-x="320" 
d="M282 797v-18q-45 -2 -67.5 -23.5t-24.5 -53t1 -71.5l9 -88q10 -89 1 -122q-18 -65 -110 -79v-7q61 -9 88.5 -39.5t26.5 -69t-5 -83.5q-1 -8 -1 -12l-9 -88q-3 -40 -1.5 -75t24.5 -60t68 -27v-19h-21q-41 0 -70 14.5t-43 35.5t-20.5 52.5t-6 58t4.5 59.5l12 107
q8 72 -16.5 104.5t-90.5 32.5v21q66 -1 90.5 35t16.5 102l-12 107q-7 36 -4 72.5t13.5 66t42.5 48.5t83 19h21z" />
    <glyph glyph-name="uniF6B3" unicode="&#xf6b3;" horiz-adv-x="320" 
d="M289 347v-21q-67 1 -90.5 -34.5t-17.5 -102.5l12 -107q7 -36 3.5 -74.5t-13.5 -71t-42 -53.5t-83 -21h-21v19q45 2 68 26.5t25 59.5t-1 75l-10 89q0 3 -1 10q-3 45 -3.5 83.5t27 68t87.5 38.5v8q-99 15 -113 90q-5 29 3 114l10 87q3 40 1 72t-25 53.5t-68 23.5v18h21
q51 0 83 -19t42 -48.5t13 -66t-3 -72.5l-12 -107q-8 -73 17 -105t91 -32z" />
    <glyph glyph-name="uniF6B4" unicode="&#xf6b4;" horiz-adv-x="230" 
d="M105 462h19l46 -397q4 -34 -7.5 -53t-48.5 -19q-39 0 -49.5 18t-7.5 54zM111 667h2q22 0 36 -15.5t14 -37.5q0 -23 -14.5 -38.5t-37.5 -15.5t-36.5 15.5t-13.5 38.5q1 23 14.5 38t35.5 15z" />
    <glyph glyph-name="uniF6B5" unicode="&#xf6b5;" horiz-adv-x="407" 
d="M200 667h1q22 0 36 -15.5t14 -38.5q0 -22 -14 -37.5t-37 -15.5t-37 15.5t-13 38.5q0 23 13.5 38t36.5 15zM189 456h1q42 0 64.5 -23.5t22.5 -60.5q0 -27 -19 -56t-59 -72q-75 -75 -75 -135q0 -45 20.5 -73.5t58.5 -28.5q79 0 80 120q0 14 5.5 22t11.5 9.5t15 1.5
q55 0 55 -52q0 -38 -44.5 -78t-131.5 -40q-76 0 -115 38.5t-39 102.5q0 46 17.5 73.5t76.5 81.5q59 52 59 86q0 22 -16 36.5t-35 14.5h-16l-1 12q34 21 64 21z" />
    <glyph glyph-name="uniF6B6" unicode="&#xf6b6;" horiz-adv-x="410" 
d="M199 479l12 -10l-92 -164q-6 -10 0 -20l92 -164l-12 -11l-159 177q-8 9 0 17zM360 479l11 -10l-93 -164q-5 -9 0 -20l93 -164l-11 -11l-161 177q-6 9 0 17z" />
    <glyph glyph-name="uniF6B7" unicode="&#xf6b7;" horiz-adv-x="410" 
d="M50 110l-11 10l93 163q5 10 0 20l-93 165l11 11l161 -178q8 -8 0 -17zM211 110l-12 10l93 163q6 10 0 20l-93 165l12 11l160 -178q9 -9 0 -17z" />
    <glyph glyph-name="uniF6B8" unicode="&#xf6b8;" horiz-adv-x="250" 
d="M200 479l12 -10l-93 -165q-6 -10 0 -19l93 -165l-12 -11l-160 177q-7 10 0 17z" />
    <glyph glyph-name="uniF6B9" unicode="&#xf6b9;" horiz-adv-x="250" 
d="M39 468l11 11l161 -178q7 -9 0 -17l-161 -175l-11 10l93 164q5 9 0 20z" />
    <glyph glyph-name="uniF6BA" unicode="&#xf6ba;" horiz-adv-x="295" 
d="M38 361h220v-47h-220v47z" />
    <glyph glyph-name="uniF6BB" unicode="&#xf6bb;" horiz-adv-x="512" 
d="M38 361h436v-47h-436v47z" />
    <glyph glyph-name="uniF6BC" unicode="&#xf6bc;" horiz-adv-x="829" 
d="M38 361h754v-47h-754v47z" />
    <glyph glyph-name="uniF6BD" unicode="&#xf6bd;" horiz-adv-x="180" 
d="M90 288h-1q-24 0 -37.5 15t-13.5 39q0 25 14 41t38 16t38.5 -16t13.5 -41q0 -24 -14 -39t-38 -15z" />
    <glyph glyph-name="acute.cap" unicode="&#xf6c9;" horiz-adv-x="376" 
d="M162 696l-7 11l104 86q38 32 51 32q10 0 19 -12.5t9 -24.5q0 -3 -0.5 -5.5t-2.5 -5t-4 -4.5t-5.5 -4.5t-6 -4t-7.5 -4l-7 -3.5t-8.5 -4t-8.5 -4z" />
    <glyph glyph-name="caron.cap" unicode="&#xf6ca;" horiz-adv-x="382" 
d="M70 822l7 12l102 -53q14 -11 26 -1l100 54l8 -12l-113 -117h-18z" />
    <glyph glyph-name="dieresis.cap" unicode="&#xf6cb;" horiz-adv-x="382" 
d="M99 816h1q21 0 34 -14t13 -35q-1 -22 -13.5 -35t-34.5 -13t-35.5 13.5t-13.5 34.5t13.5 35t35.5 14zM282 816h1q22 0 35 -14t12 -35q0 -21 -13 -34.5t-35 -13.5t-35 13.5t-13 34.5t13.5 35t34.5 14z" />
    <glyph glyph-name="grave.cap" unicode="&#xf6ce;" horiz-adv-x="382" 
d="M221 705l-127 54q-2 1 -7.5 3.5t-8 3.5t-7.5 3.5l-7 3.5t-6 3.5t-5.5 4l-4 4t-3.5 4.5t-2 4.5t-1 5.5q0 12 9.5 24.5t20.5 12.5q13 0 52 -33l103 -86z" />
    <glyph glyph-name="hungarumlaut.cap" unicode="&#xf6cf;" horiz-adv-x="382" 
d="M111 706l-11 7l34 82q19 50 36 50q10 0 21.5 -9t11.5 -19q0 -19 -30 -48zM244 706l-10 7l32 82q7 16 10 21.5l8 14.5t9.5 11.5t9.5 2.5q11 0 22.5 -9t11.5 -19q0 -19 -31 -48z" />
    <glyph glyph-name="macron.cap" unicode="&#xf6d0;" horiz-adv-x="382" 
d="M73 775h238v-49h-238v49z" />
    <glyph glyph-name="uniF6DC" unicode="&#xf6dc;" horiz-adv-x="499" 
d="M412 0h-310v19l78 6q19 2 25 13.5t6 32.5v480q0 20 -5 27.5t-18 9.5l-86 7v15l199 29l2 -2v-567q0 -25 7.5 -34t23.5 -11l78 -6v-19z" />
    <glyph glyph-name="R_p" unicode="&#xf6dd;" horiz-adv-x="961" 
d="M544 0h-77q-81 0 -98 74q-5 21 -13 70.5t-11 61.5q-19 78 -98 78h-56v-211q0 -36 9.5 -43.5t61.5 -10.5v-19h-230v19q52 3 62.5 10.5t10.5 43.5v451q0 36 -10.5 43.5t-62.5 11.5v19h241q187 0 187 -150q0 -61 -40.5 -100t-102.5 -51v-2q115 -28 132 -156q5 -51 22 -78
q7 -12 13 -19.5t22 -14.5t38 -8v335q0 23 -4.5 30.5t-20.5 9.5l-32 5v14l131 21l10 -66q3 2 19 14.5t25.5 18.5l25.5 15.5t32.5 13.5t34.5 4q42 0 73 -16t47.5 -39t26 -54.5t12 -55t2.5 -48.5q0 -231 -209 -231q-59 0 -89 17v-136q0 -32 11 -39.5t63 -10.5v-19h-219v19
q43 3 52 10.5t9 39.5v129zM191 305h58q67 0 92 33t25 104q0 70 -33 102.5t-84 32.5q-39 0 -48.5 -7t-9.5 -35v-230zM628 263v-137q0 -58 23 -88t66 -30q118 0 118 207q0 53 -11 91t-28.5 56.5t-34 26.5t-33.5 8q-100 0 -100 -134z" />
    <glyph glyph-name="cent.inferior" unicode="&#xf6df;" horiz-adv-x="331" 
d="M195 -74v-54h-22v54q-70 0 -102.5 36t-32.5 97q0 131 136 139v44h21v-44q47 -1 74 -18t27 -43q0 -12 -10.5 -20.5t-23.5 -8.5q-15 0 -19 17q-13 58 -48 58v-231q61 0 96 61l10 -7q-15 -37 -44 -58t-62 -22zM173 -48v231q-24 0 -47 -27t-23 -90q0 -102 70 -114z" />
    <glyph glyph-name="cent.superior" unicode="&#xf6e0;" horiz-adv-x="331" 
d="M195 462v-54h-22v54q-70 0 -102.5 36t-32.5 97q0 131 136 139v44h21v-44q47 -1 74 -18t27 -43q0 -12 -10.5 -20.5t-23.5 -8.5q-15 0 -19 17q-13 58 -48 58v-231q61 0 96 61l10 -7q-15 -37 -44 -58t-62 -22zM173 488v231q-24 0 -47 -27t-23 -90q0 -102 70 -114z" />
    <glyph glyph-name="comma.inferior" unicode="&#xf6e1;" horiz-adv-x="137" 
d="M13 -196q35 43 35 108q0 17 -12 41q7 6 25 13.5t29 6.5q18 -18 18 -40q0 -56 -82 -138z" />
    <glyph glyph-name="comma.superior" unicode="&#xf6e2;" horiz-adv-x="137" 
d="M13 340q35 43 35 108q0 17 -12 41q7 6 25 13.5t29 6.5q18 -18 18 -40q0 -56 -82 -138z" />
    <glyph glyph-name="dollar.inferior" unicode="&#xf6e3;" horiz-adv-x="331" 
d="M175 222v-129q68 -20 88 -36q32 -24 32 -69q0 -53 -36.5 -79t-83.5 -27v-55h-22v55q-47 2 -76 15.5t-37 26.5t-8 24q0 16 11.5 27t24.5 11q8 0 12 -4.5t7 -15.5q14 -59 66 -68v140q-64 16 -89 41.5t-25 63.5q0 47 35.5 70t78.5 24v42h22v-42q30 0 52.5 -6.5t33 -16.5
t15.5 -18.5t5 -16.5q0 -14 -9 -23t-21 -9q-17 0 -21 15q-8 29 -23.5 43.5t-31.5 16.5zM153 101v121q-62 -4 -62 -61q0 -42 62 -60zM175 31v-133q29 0 46 16.5t17 49.5q0 28 -16 42t-47 25z" />
    <glyph glyph-name="dollar.superior" unicode="&#xf6e4;" horiz-adv-x="331" 
d="M175 758v-129q68 -20 88 -36q32 -24 32 -69q0 -53 -36.5 -79t-83.5 -27v-55h-22v55q-47 2 -76 15.5t-37 26.5t-8 24q0 16 11.5 27t24.5 11q8 0 12 -4.5t7 -15.5q14 -59 66 -68v140q-64 16 -89 41.5t-25 63.5q0 47 35.5 70t78.5 24v42h22v-42q30 0 52.5 -6.5t33 -16.5
t15.5 -18.5t5 -16.5q0 -14 -9 -23t-21 -9q-17 0 -21 15q-8 29 -23.5 43.5t-31.5 16.5zM153 637v121q-62 -4 -62 -61q0 -42 62 -60zM175 567v-133q29 0 46 16.5t17 49.5q0 28 -16 42t-47 25z" />
    <glyph glyph-name="hyphen.inferior" unicode="&#xf6e5;" horiz-adv-x="213" 
d="M34 74h144v-37h-144v37z" />
    <glyph glyph-name="hyphen.superior" unicode="&#xf6e6;" horiz-adv-x="213" 
d="M34 610h144v-37h-144v37z" />
    <glyph glyph-name="period.inferior" unicode="&#xf6e7;" horiz-adv-x="137" 
d="M68 -128q-40 0 -40 43t40 43t40 -43t-40 -43z" />
    <glyph glyph-name="period.superior" unicode="&#xf6e8;" horiz-adv-x="137" 
d="M68 408q-40 0 -40 43t40 43t40 -43t-40 -43z" />
    <glyph glyph-name="a.superior" unicode="&#xf6e9;" horiz-adv-x="305" 
d="M245 472v-126q0 -29 9.5 -38.5t38.5 -8.5l1 -10q-38 -17 -68 -17q-17 0 -25 7.5t-14 24.5q-56 -33 -85 -33q-36 0 -54.5 21.5t-18.5 54.5q0 24 10.5 38.5t47.5 26.5q63 19 100 33v25q0 59 -45 59q-20 0 -30 -13t-20 -46q-5 -17 -21 -17q-13 0 -22.5 7.5t-9.5 19.5
q0 24 30.5 45t79.5 21q96 0 96 -74zM187 351v78q-15 -3 -52 -18q-44 -18 -44 -58q0 -23 14 -38.5t39 -15.5q43 0 43 52z" />
    <glyph glyph-name="b.superior" unicode="&#xf6ea;" horiz-adv-x="341" 
d="M64 272l-8 2v348q0 14 -3.5 19.5t-14.5 6.5l-22 3v11l95 13l4 -3v-167q52 42 90 42q108 0 108 -129q0 -146 -139 -146q-49 0 -89 22zM115 446v-85q0 -36 17.5 -55t43.5 -19q72 0 72 123q0 58 -22.5 84t-44.5 26q-66 0 -66 -74z" />
    <glyph glyph-name="d.superior" unicode="&#xf6eb;" horiz-adv-x="341" 
d="M328 277h-102v31q-43 -37 -82 -37q-116 0 -116 134q0 64 37.5 103t100.5 39q36 0 61 -10v83q0 14 -4 20t-15 7l-28 3v12l101 13l4 -3v-349q0 -19 6.5 -24t36.5 -7v-15zM227 362v101q0 67 -61 67q-35 0 -54 -34t-19 -85q0 -47 20 -80.5t53 -33.5q61 0 61 65z" />
    <glyph glyph-name="e.superior" unicode="&#xf6ec;" horiz-adv-x="296" 
d="M246 418h-155q-2 -46 16.5 -82t67.5 -36q56 0 85 54l9 -5q-11 -23 -21 -37.5t-33.5 -27.5t-55.5 -13q-131 0 -131 138q0 63 31 100t96 37q115 0 115 -107q0 -14 -6 -17.5t-18 -3.5zM91 436h98q19 0 19 20q0 75 -56 75q-25 0 -39.5 -19.5t-18 -38t-3.5 -37.5z" />
    <glyph glyph-name="i.superior" unicode="&#xf6ed;" horiz-adv-x="172" 
d="M81 657h1q32 0 32 -34q0 -35 -33 -35q-34 0 -34 35q0 34 34 34zM56 323v169q0 14 -3 19t-14 7l-22 5v10l96 14l3 -3v-221q0 -18 7 -23.5t36 -8.5v-14h-146v14q30 3 36.5 8t6.5 24z" />
    <glyph glyph-name="l.superior" unicode="&#xf6ee;" horiz-adv-x="171" 
d="M115 674v-350q0 -19 7 -24.5t36 -7.5v-15h-145v15q29 2 36 7.5t7 24.5v298q0 13 -3.5 18t-14.5 7l-21 4v11l96 13z" />
    <glyph glyph-name="m.superior" unicode="&#xf6ef;" horiz-adv-x="531" 
d="M517 277h-143v14q28 3 34.5 8t6.5 23v138q0 60 -59 60q-61 0 -61 -69v-128q0 -18 6.5 -23.5t35.5 -8.5v-14h-143v14q29 3 35.5 8t6.5 23v138q0 60 -57 60q-63 0 -63 -69v-129q0 -18 6.5 -23t32.5 -8v-14h-142v14q29 3 36 8.5t7 23.5v170q0 13 -3 18t-14 7l-23 5v10l89 14
l9 -42q20 15 31.5 22.5t29.5 13.5t37 6q25 0 41.5 -8t22.5 -15.5t12 -20.5q58 44 105 44q81 0 81 -85v-139q0 -18 7 -23.5t36 -8.5v-14z" />
    <glyph glyph-name="o.superior" unicode="&#xf6f0;" horiz-adv-x="321" 
d="M160 546h1q131 0 131 -137t-132 -137t-132 137q0 65 33.5 101t98.5 36zM160 529h-1q-66 0 -66 -120q0 -121 67 -121t67 121q0 120 -67 120z" />
    <glyph glyph-name="r.superior" unicode="&#xf6f1;" horiz-adv-x="236" 
d="M107 546l9 -46q50 46 76 47q30 0 30 -33q0 -16 -9 -25t-20 -9q-7 0 -18 10q-16 13 -31 13q-12 0 -20 -13.5t-8 -36.5v-130q0 -19 8 -24t45 -8v-14h-156v14q30 3 36.5 8t6.5 24v169q0 13 -3 18t-14 7l-22 5v10z" />
    <glyph glyph-name="s.superior" unicode="&#xf6f2;" horiz-adv-x="259" 
d="M209 456h-11q-17 74 -70 74q-48 0 -48 -41q0 -18 14.5 -28.5t48.5 -22.5q47 -18 66 -34t19 -48q0 -38 -28 -61t-79 -23t-89 21l-6 84h13q11 -41 34.5 -65.5t53.5 -24.5q49 0 49 45q0 20 -16 31.5t-51 24.5q-26 10 -39.5 16.5t-26.5 22t-13 36.5q0 83 104 83q39 0 75 -17
v-73z" />
    <glyph glyph-name="t.superior" unicode="&#xf6f3;" horiz-adv-x="200" 
d="M56 335v183h-39v21h43l33 68h22v-68h70v-21h-70v-160q0 -28 11.5 -42t28.5 -14q15 0 34 8l3 -12q-42 -27 -74 -27q-62 0 -62 64z" />
    <glyph glyph-name="breve.sc" unicode="&#xf6f4;" horiz-adv-x="382" 
d="M190 560h-1q-60 0 -79.5 29.5t-19.5 83.5h16q0 -59 85 -59q49 0 67 15t18 44h17q0 -53 -21 -83t-82 -30z" />
    <glyph glyph-name="caron.sc" unicode="&#xf6f5;" horiz-adv-x="382" 
d="M80 687l10 9l90 -60q9 -6 12 -6.5t10 4.5l89 62l10 -9l-101 -137h-18z" />
    <glyph glyph-name="circumflex.sc" unicode="&#xf6f6;" horiz-adv-x="382" 
d="M301 559l-10 -8l-91 60q-9 6 -12 6.5t-10 -4.5l-88 -62l-10 8l100 138h18z" />
    <glyph glyph-name="dotaccent.sc" unicode="&#xf6f7;" horiz-adv-x="382" 
d="M190 656h1q21 0 34.5 -14t13.5 -35q-1 -21 -14.5 -35t-34.5 -14q-22 0 -35.5 14t-13.5 35t13.5 35t35.5 14z" />
    <glyph glyph-name="hungarumlaut.sc" unicode="&#xf6f8;" horiz-adv-x="382" 
d="M109 550l-11 7l37 93q12 28 20 39.5t19 11.5q10 0 22.5 -9.5t12.5 -19.5q0 -4 -1 -8t-2.5 -7t-5.5 -8l-6 -7.5t-7.5 -8.5t-8.5 -9zM243 550l-10 7l37 93q22 51 38 51q12 0 24 -9.5t12 -19.5q0 -4 -1 -8t-2.5 -7t-5.5 -8l-6 -7.5t-7.5 -8.5t-8.5 -9z" />
    <glyph glyph-name="lslash.sc" unicode="&#xf6f9;" horiz-adv-x="483" 
d="M335 332l-135 -64v-177q0 -45 18 -56t92 -11q66 0 93 23q12 12 24 44t17 61h21l-17 -152h-413v28q54 3 65 10.5t11 45.5v138l-68 -33l-9 22l77 37v181q0 37 -11 45t-65 11v20h247v-20q-59 -3 -70.5 -10.5t-11.5 -45.5v-135l126 61z" />
    <glyph glyph-name="oe.sc" unicode="&#xf6fa;" horiz-adv-x="811" 
d="M418 60v387q0 45 -93 45q-51 0 -88.5 -21t-57.5 -56.5t-29.5 -75.5t-9.5 -86q0 -44 8 -83t27 -76t57 -59t92 -22q40 0 67 12t27 35zM464 0q-18 0 -69.5 -3t-62.5 -3q-68 0 -110 7.5t-81 29.5q-45 26 -71.5 83t-26.5 134q0 76 29.5 133.5t77.5 86.5q42 25 87 33.5t112 8.5
q19 0 62.5 -2.5t51.5 -2.5h281v-131h-19q-9 61 -37 83.5t-86 22.5h-73q-13 0 -18 -5.5t-5 -19.5v-181h100q48 0 62 12.5t19 54.5h20v-168h-20q-6 45 -20.5 61t-60.5 16h-100v-158q0 -43 20 -55.5t86 -12.5q75 0 99 23q12 11 25.5 40.5t18.5 53.5h19l-14 -141h-296z" />
    <glyph glyph-name="ogonek.sc" unicode="&#xf6fb;" horiz-adv-x="378" 
d="M229 11h12q-76 -61 -76 -128q0 -26 17.5 -42t42.5 -16q32 0 60 23l7 -11q-49 -65 -106 -65q-84 0 -84 83q0 45 38 88t89 68z" />
    <glyph glyph-name="ring.sc" unicode="&#xf6fc;" horiz-adv-x="382" 
d="M191 682h-1q-41 0 -41 -69t42 -69t42 69t-42 69zM191 697h1q37 0 63 -20.5t26 -63.5t-26 -63.5t-64 -20.5t-64 20.5t-26 63.5t26 63.5t64 20.5z" />
    <glyph glyph-name="scaron.sc" unicode="&#xf6fd;" horiz-adv-x="453" 
d="M377 370h-19q-30 130 -126 130q-44 0 -71 -27t-27 -66q0 -45 30.5 -69.5t84.5 -41.5q96 -31 129.5 -62t33.5 -93q0 -68 -48 -112t-146 -44q-84 0 -156 35l-8 144h19q20 -75 56 -117.5t97 -42.5q47 0 75.5 25.5t28.5 71.5q0 44 -29.5 68.5t-81.5 43.5q-37 13 -51.5 18.5
t-41.5 20t-38 28t-20.5 36.5t-9.5 52q0 68 48 109.5t138 41.5q71 0 133 -31v-118zM116 687l10 9l90 -60q9 -6 12 -6.5t10 4.5l89 62l10 -9l-101 -137h-18z" />
    <glyph glyph-name="tilde.sc" unicode="&#xf6fe;" horiz-adv-x="382" 
d="M312 655l11 -5q-19 -85 -75 -85q-13 0 -66 16q-56 17 -63 17q-19 0 -30 -9t-22 -32l-11 7q20 82 79 82q21 0 66 -15q50 -16 60 -16q37 0 51 40z" />
    <glyph glyph-name="zcaron.sc" unicode="&#xf6ff;" horiz-adv-x="512" 
d="M50 505h410l5 -8l-317 -473h159q72 0 105 26.5t49 100.5h22l-15 -151h-437l-2 11l83 117l78 113.5l84.5 126.5l75.5 112h-147q-69 0 -92.5 -25t-39.5 -99h-21v149zM145 687l10 9l90 -60q9 -6 12 -6.5t10 4.5l89 62l10 -9l-101 -137h-18z" />
    <glyph glyph-name="exclam.sc" unicode="&#xf721;" horiz-adv-x="233" 
d="M126 179h-20l-44 299q-5 35 5 52t49 17t49 -17t5 -52zM118 -13h-1q-23 0 -37 16t-14 40q0 23 14.5 39t37.5 16q25 0 39 -15.5t13 -38.5q0 -25 -13.5 -41t-38.5 -16z" />
    <glyph glyph-name="dollar.oldstyle" unicode="&#xf724;" horiz-adv-x="471" 
d="M245 492v-188q91 -25 120 -42q61 -36 61 -109q0 -51 -31 -87.5t-70.5 -51t-79.5 -14.5v-75h-23v75q-51 1 -90 13t-58.5 28t-29 30t-9.5 25q0 22 14.5 35t31.5 13t26 -24q13 -38 38 -62.5t44 -31.5t33 -7v203q-97 25 -135.5 58t-38.5 90q0 40 19 69.5t48.5 44t56 21
t50.5 6.5v63h23v-63q80 -1 121.5 -31t41.5 -58q0 -21 -12.5 -32t-28.5 -11q-20 0 -26 24q-11 43 -40.5 65t-55.5 24zM222 312v180q-41 -1 -71.5 -22.5t-30.5 -66.5q0 -65 102 -91zM245 214v-195q45 1 74.5 25.5t29.5 73.5q0 23 -9.5 40t-28 28t-32 16.5t-34.5 11.5z" />
    <glyph glyph-name="ampersand.sc" unicode="&#xf726;" horiz-adv-x="578" 
d="M243 517h1q57 0 88.5 -29.5t31.5 -80.5q0 -45 -50 -79q-14 -9 -77 -43q100 -112 170 -172q48 57 48 133q0 7 -9 61q26 26 59 26q17 -21 17 -57q0 -41 -32 -92.5t-68 -82.5q30 -29 70 -55.5t65 -31.5l-2 -20l-38 1q-57 2 -92 11t-71 38q-76 -56 -156 -56q-73 0 -116 38
t-43 107q0 12 1.5 22.5t5.5 20l7 16.5t11.5 15t12 12t15.5 12.5t16.5 11l20 11.5t19.5 12q-42 55 -42 116q0 58 38 96.5t99 38.5zM238 499h-1q-30 0 -45.5 -23.5t-15.5 -59.5q0 -27 14 -60.5t36 -57.5q39 24 57.5 51t18.5 69q0 32 -17 56.5t-47 24.5zM250 30h1q56 0 87 29
q-75 62 -179 191q-36 -21 -36 -92q0 -55 37 -91.5t90 -36.5z" />
    <glyph glyph-name="zero.oldstyle" unicode="&#xf730;" horiz-adv-x="523" 
d="M261 -11h-1q-109 0 -164.5 64t-55.5 181t55.5 181t165.5 64t166 -64t56 -181t-56 -181t-166 -64zM261 461h-1q-60 0 -92 -59t-32 -168q0 -108 32 -167t93 -59t93 59t32 167q0 111 -32 169t-93 58z" />
    <glyph glyph-name="one.oldstyle" unicode="&#xf731;" horiz-adv-x="331" 
d="M311 0h-275v19l60 6q20 1 27.5 10t7.5 30v327q0 31 -24 34l-68 7v15l173 31l5 -4v-410q0 -23 8.5 -30.5t25.5 -9.5l60 -6v-19z" />
    <glyph glyph-name="two.oldstyle" unicode="&#xf732;" horiz-adv-x="446" 
d="M397 0h-369l-4 5q24 98 159 169q68 35 90 71.5t22 87.5q0 53 -19 90.5t-65 37.5q-49 0 -72 -31t-34 -100q-5 -23 -30 -23q-18 0 -30.5 11.5t-12.5 32.5q0 46 47 87t140 41q175 0 175 -146q0 -61 -38.5 -97.5t-114.5 -63.5q-127 -45 -151 -100h332l4 -5z" />
    <glyph glyph-name="three.oldstyle" unicode="&#xf733;" horiz-adv-x="453" 
d="M203 -114h-1q-87 0 -129.5 33t-42.5 74q0 18 12.5 30.5t30.5 12.5q12 0 18 -7t10 -22q20 -102 109 -102q50 0 77.5 39.5t27.5 112.5q0 70 -26.5 99.5t-82.5 29.5q-16 0 -40 -4t-31 -4q-19 0 -19 21q0 22 19 22q7 0 30 -4t41 -4q50 0 69 30.5t19 88.5q0 32 -7 59
t-27.5 48.5t-52.5 21.5q-43 0 -64.5 -24t-30.5 -77q-3 -29 -27 -29q-17 0 -28.5 9.5t-11.5 26.5q0 42 47.5 77t121.5 35q32 0 60 -6.5t54.5 -21t42 -43.5t15.5 -70q0 -104 -132 -132v-5q25 -3 39 -5.5t39.5 -12t40 -23t26.5 -39t12 -59.5q0 -84 -55.5 -130t-152.5 -46z" />
    <glyph glyph-name="four.oldstyle" unicode="&#xf734;" horiz-adv-x="450" 
d="M265 69h-246l-1 22q83 137 260 376h70v-363h85v-35h-85v-172h-83v172zM60 104h205v307h-2q-89 -123 -203 -307z" />
    <glyph glyph-name="five.oldstyle" unicode="&#xf735;" horiz-adv-x="460" 
d="M381 392h-239q-14 0 -17.5 -3.5t-5.5 -13.5l-31 -194l2 -1q24 28 67.5 46.5t86.5 18.5q172 0 172 -168q0 -83 -53.5 -137t-156.5 -54q-85 0 -127.5 33t-42.5 74q0 20 12.5 31.5t29.5 11.5q21 0 28 -27q12 -62 39 -83t66 -21q53 0 82.5 44.5t29.5 112.5q0 77 -33 111
t-82 34q-43 0 -72 -14t-56 -49l-17 12l37 309l5 3h181q109 0 119 5l5 -3z" />
    <glyph glyph-name="six.oldstyle" unicode="&#xf736;" horiz-adv-x="495" 
d="M423 574l-5 -14q-53 8 -72 8q-91 0 -152 -70t-61 -214h2q22 32 67 58t92 26q75 0 118 -44.5t43 -128.5q0 -91 -52 -148.5t-151 -57.5q-104 0 -156 62.5t-52 197.5q0 149 76.5 246t221.5 97q63 0 81 -18zM253 329h-1q-37 0 -65.5 -19.5t-40.5 -47.5q-9 -19 -9 -47
q0 -83 31.5 -145t88.5 -62q54 0 81 47.5t27 121.5q0 75 -32 113.5t-80 38.5z" />
    <glyph glyph-name="seven.oldstyle" unicode="&#xf737;" horiz-adv-x="443" 
d="M47 468h374l3 -3q-14 -85 -125 -263q-69 -113 -69 -244q0 -16 5 -43q5 -29 -41 -29t-46 48t21.5 103.5t44.5 92t62 91.5q91 131 101 171h-270q-25 0 -36.5 -13t-34.5 -65l-17 1z" />
    <glyph glyph-name="eight.oldstyle" unicode="&#xf738;" horiz-adv-x="482" 
d="M242 301h-1q-106 0 -106 -135q0 -72 27 -115t81 -43t80 43t26 115q0 135 -107 135zM242 -11h-1q-91 0 -146 43.5t-55 129.5q0 68 38.5 103.5t92.5 47.5v3q-109 26 -109 130q0 71 50.5 108.5t129.5 37.5t129 -37t50 -109q0 -102 -114 -129v-3q136 -31 136 -152
q0 -86 -54.5 -129.5t-146.5 -43.5zM242 321h1q46 0 68 36t22 92q0 58 -23 91.5t-68 33.5q-91 0 -91 -125q0 -56 22.5 -92t68.5 -36z" />
    <glyph glyph-name="nine.oldstyle" unicode="&#xf739;" horiz-adv-x="485" 
d="M236 479h1q203 0 203 -260q0 -72 -14.5 -130.5t-45.5 -105t-84.5 -72t-126.5 -25.5q-68 0 -99 24l4 16q33 -12 81 -12q191 0 193 273l-2 2q-61 -77 -143 -77q-74 0 -118.5 42t-44.5 133q0 86 53.5 139t142.5 53zM128 303v-1q0 -67 28 -109t86 -42q64 0 88 45q16 32 16 78
q0 80 -30.5 133.5t-82.5 53.5q-53 0 -79 -43t-26 -115z" />
    <glyph glyph-name="question.sc" unicode="&#xf73f;" horiz-adv-x="367" 
d="M189 545h1q65 0 102 -29.5t37 -81.5q0 -35 -15 -57.5t-52 -49.5q-49 -34 -59 -49q-7 -11 -7 -23q0 -16 14.5 -28t30.5 -12q3 0 7 0.5t6 0.5l1 -11q-23 -20 -65 -20q-36 0 -54 20.5t-18 50.5q0 21 17.5 44t53.5 57q51 48 51 94q0 35 -15 56.5t-44 21.5q-57 0 -68 -103
q-2 -26 -28 -26q-17 0 -34 12t-17 34q0 32 40 65.5t115 33.5zM183 -13h-1q-23 0 -37 16t-14 40q0 23 14.5 39t37.5 16q24 0 38 -15.5t14 -38.5q-1 -25 -14.5 -41t-37.5 -16z" />
    <glyph glyph-name="grave.sc" unicode="&#xf760;" horiz-adv-x="382" 
d="M228 550l-113 65q-4 2 -14.5 8t-14.5 8.5t-10 7t-9 9t-4 9.5q-1 12 7.5 24t19.5 14q19 3 57 -38l88 -97z" />
    <glyph glyph-name="a.sc" unicode="&#xf761;" horiz-adv-x="555" 
d="M326 193h-170q-11 -33 -41 -131q-6 -20 2 -28t27 -11l35 -4v-19h-179v19q40 2 55 10.5t25 35.5l160 443h61q112 -317 168 -451q10 -24 24 -30t52 -8v-19h-226v19l36 5q29 4 20 27zM318 217q-48 132 -78 222h-2l-75 -222h155z" />
    <glyph glyph-name="b.sc" unicode="&#xf762;" horiz-adv-x="531" 
d="M25 505h261q99 0 138 -27.5t39 -92.5q0 -48 -35.5 -76t-95.5 -35v-4q32 -3 55.5 -9t48.5 -18.5t38.5 -36t13.5 -57.5q0 -77 -58.5 -113t-151.5 -36h-253v19q55 3 65.5 10.5t10.5 45.5v354q0 38 -10.5 45.5t-65.5 10.5v20zM189 457v-181h66q116 0 116 102q0 107 -110 107
q-38 0 -55 -5t-17 -23zM189 258v-192q0 -25 14.5 -36t65.5 -11q58 0 90.5 30.5t32.5 91.5q0 117 -137 117h-66z" />
    <glyph glyph-name="c.sc" unicode="&#xf763;" horiz-adv-x="544" 
d="M488 489v-130h-19q-7 28 -16 49t-25.5 44t-43.5 35.5t-63 12.5q-88 0 -134 -63.5t-46 -178.5q0 -44 9 -85.5t29 -81.5t58 -64t90 -24q37 0 65.5 13t46 37.5t27.5 47.5t18 54h20l-16 -135q-77 -35 -171 -35q-137 0 -205.5 63t-68.5 199q0 128 77 203q69 69 210 69
q84 0 158 -30z" />
    <glyph glyph-name="d.sc" unicode="&#xf764;" horiz-adv-x="603" 
d="M189 447v-367q0 -36 21 -49t64 -13q36 0 67.5 11t60 35.5t45 72t16.5 113.5q0 233 -184 236q-57 1 -73.5 -7t-16.5 -32zM25 505h267q139 0 205 -63q63 -63 63 -183q0 -74 -21.5 -125.5t-63.5 -80t-94 -41t-121 -12.5h-235v19q55 3 65.5 10.5t10.5 45.5v354q0 38 -11 45.5
t-65 10.5v20z" />
    <glyph glyph-name="e.sc" unicode="&#xf765;" horiz-adv-x="502" 
d="M25 505h410v-131h-20q-8 60 -40 83t-92 23h-71q-13 0 -18 -5.5t-5 -19.5v-181h98q50 0 68 13.5t24 53.5h19v-168h-19q-6 42 -25 59.5t-67 17.5h-98v-158q0 -46 17 -57t87 -11q85 0 108 22q12 12 26 41.5t18 53.5h20l-15 -141h-425v19q53 4 64.5 11.5t11.5 44.5v354
q0 38 -11 45.5t-65 10.5v20z" />
    <glyph glyph-name="f.sc" unicode="&#xf766;" horiz-adv-x="473" 
d="M25 505h412v-128l-20 -1q-8 58 -39.5 81t-91.5 23h-73q-14 0 -19 -5.5t-5 -19.5v-191h101q50 0 68.5 12.5t24.5 52.5l19 1v-166l-19 -1q-6 42 -25.5 59t-67.5 17h-101v-164q0 -38 13.5 -45.5t79.5 -10.5v-19h-257v19q55 3 65.5 10.5t10.5 45.5v354q0 38 -11 45.5
t-65 10.5v20z" />
    <glyph glyph-name="g.sc" unicode="&#xf767;" horiz-adv-x="589" 
d="M499 488v-132h-20q-30 144 -157 144q-93 0 -137 -68.5t-44 -174.5q0 -43 9.5 -84.5t29.5 -81t58 -63.5t90 -24q44 0 71 10q19 8 19 33v109q0 38 -10.5 45.5t-68.5 10.5v19h223v-19q-39 -3 -47.5 -11t-8.5 -45v-141q-106 -30 -179 -30q-145 0 -207 58q-77 68 -77 204
q0 132 75 202t211 70q98 0 170 -31z" />
    <glyph glyph-name="h.sc" unicode="&#xf768;" horiz-adv-x="627" 
d="M189 278h250v151q0 38 -10 45.5t-64 10.5v20h233v-20q-50 -3 -61 -11.5t-11 -44.5v-354q0 -35 10.5 -44t61.5 -12v-19h-233v19q51 3 62.5 11.5t11.5 44.5v179h-250v-179q0 -36 12 -44.5t61 -11.5v-19h-233v19q52 3 62 11t10 45v354q0 38 -9.5 45.5t-62.5 10.5v20h233v-20
q-49 -3 -61 -11.5t-12 -44.5v-151z" />
    <glyph glyph-name="i.sc" unicode="&#xf769;" horiz-adv-x="292" 
d="M189 75q0 -35 11.5 -44t61.5 -12v-19h-233v19q52 3 62 11t10 45v354q0 38 -9.5 45.5t-62.5 10.5v20h233v-20q-51 -3 -62 -11.5t-11 -44.5v-354z" />
    <glyph glyph-name="j.sc" unicode="&#xf76a;" horiz-adv-x="286" 
d="M192 429v-338q0 -38 -0.5 -56.5t-5 -47.5t-13 -44.5t-25.5 -32.5t-42 -27q-33 -13 -84 -13l-3 16q40 11 56 29q29 30 29 165v349q0 38 -11 45.5t-65 10.5v20h241v-20q-55 -3 -66 -10.5t-11 -45.5z" />
    <glyph glyph-name="k.sc" unicode="&#xf76b;" horiz-adv-x="552" 
d="M189 75q0 -37 9.5 -44t63.5 -12v-19h-233v19q52 4 62 11t10 45v354q0 38 -10 45.5t-62 10.5v20h233v-20q-53 -4 -63 -11t-10 -45v-354zM335 505h201v-20q-61 -6 -83 -16q-16 -8 -34 -22q-74 -62 -149 -144q30 -47 87 -116.5t103 -116.5q48 -50 90 -60l-4 -16h-44
q-54 0 -88 13.5t-65 47.5q-59 64 -150 200v5q144 144 187 197q16 21 -7 23l-44 5v20z" />
    <glyph glyph-name="l.sc" unicode="&#xf76c;" horiz-adv-x="473" 
d="M438 0h-407v19q50 3 60 10t10 46v354q0 35 -10.5 44t-59.5 12v20h238v-20q-58 -3 -68.5 -10.5t-10.5 -45.5v-338q0 -44 17.5 -55.5t85.5 -11.5q74 0 100 23q27 26 42 105h20z" />
    <glyph glyph-name="m.sc" unicode="&#xf76d;" horiz-adv-x="715" 
d="M214 0h-188v19l30 3q35 4 41 42q4 31 4 90v275q0 38 -9.5 45.5t-62.5 10.5v20h163l171 -367h3q73 151 159 367h159v-20q-50 -3 -61 -11.5t-11 -44.5v-354q0 -38 10 -45t62 -11v-19h-227v19q51 4 61 11t10 45v368h-3l-182 -443h-23l-191 443h-2v-289q0 -50 5 -88
q7 -40 47 -44l35 -3v-19z" />
    <glyph glyph-name="n.sc" unicode="&#xf76e;" horiz-adv-x="591" 
d="M24 505h154l292 -385l2 2v237q0 36 -6 86q-5 33 -49 37l-32 3v20h185v-20l-27 -3q-37 -4 -41 -36q-5 -45 -5 -87v-359h-56l-313 427h-2v-281q0 -46 5 -83q5 -36 48 -41l33 -3v-19h-184v19l29 3q13 2 24.5 13t14.5 28q5 37 5 83v283q0 37 -11.5 45t-65.5 11v20z" />
    <glyph glyph-name="o.sc" unicode="&#xf76f;" horiz-adv-x="601" 
d="M301 500h-1q-59 0 -96.5 -40t-50 -92t-12.5 -116q0 -46 8 -87t25 -78.5t49.5 -60t77.5 -22.5q59 0 96.5 40t50 92.5t12.5 115.5q0 45 -7.5 85.5t-24.5 79t-49.5 61t-77.5 22.5zM301 519h1q125 0 191 -70t66 -197t-66.5 -197t-191.5 -70q-126 0 -192 70t-66 197t66 197
t192 70z" />
    <glyph glyph-name="p.sc" unicode="&#xf770;" horiz-adv-x="503" 
d="M189 205v-130q0 -34 13 -42.5t72 -13.5v-19h-245v19q51 5 61.5 12.5t10.5 43.5v354q0 38 -9.5 45.5t-62.5 10.5v20h250q89 0 137.5 -32.5t48.5 -116.5t-63 -122q-52 -33 -145 -33q-47 0 -68 4zM189 452v-197q0 -37 65 -37q119 0 119 133q0 65 -30.5 100t-88.5 35
q-40 0 -52.5 -6t-12.5 -28z" />
    <glyph glyph-name="q.sc" unicode="&#xf771;" horiz-adv-x="601" 
d="M301 500h-1q-44 0 -76 -21t-49.5 -57.5t-25.5 -78.5t-8 -91q0 -62 13 -114t50 -91.5t94 -39.5q45 0 78.5 22t50.5 59t25 77.5t8 86.5q0 64 -14 117t-51 92t-94 39zM301 519h1q125 0 191 -70t66 -197q0 -104 -46.5 -172.5t-143.5 -85.5q11 -26 41 -60q28 -32 62 -48
t55 -16q16 0 22 1l1 -14q-31 -15 -76 -15q-130 0 -212 149q-109 10 -164 79t-55 182q0 127 66 197t192 70z" />
    <glyph glyph-name="r.sc" unicode="&#xf772;" horiz-adv-x="535" 
d="M189 241v-166q0 -38 11 -45.5t65 -10.5v-19h-240v19q54 3 65 11t11 45v354q0 38 -11 45.5t-65 10.5v20h261q96 0 133.5 -32.5t37.5 -95.5q0 -94 -130 -120v-2q62 -12 90 -45t37 -90q9 -58 25 -78q18 -23 55 -23v-19h-77q-36 0 -56 13t-31 45q-7 18 -14.5 62t-11.5 58
q-10 36 -32.5 49.5t-65.5 13.5h-57zM189 455v-195h57q118 0 118 110q0 61 -30 88.5t-80 27.5q-37 0 -51 -6t-14 -25z" />
    <glyph glyph-name="s.sc" unicode="&#xf773;" horiz-adv-x="453" 
d="M377 370h-19q-30 130 -126 130q-44 0 -71 -27t-27 -66q0 -45 30.5 -69.5t84.5 -41.5q96 -31 129.5 -62t33.5 -93q0 -68 -48 -112t-146 -44q-84 0 -156 35l-8 144h19q20 -75 56 -117.5t97 -42.5q47 0 75.5 25.5t28.5 71.5q0 44 -29.5 68.5t-81.5 43.5q-37 13 -51.5 18.5
t-41.5 20t-38 28t-20.5 36.5t-9.5 52q0 68 48 109.5t138 41.5q71 0 133 -31v-118z" />
    <glyph glyph-name="t.sc" unicode="&#xf774;" horiz-adv-x="501" 
d="M294 480v-405q0 -38 13.5 -45.5t78.5 -10.5v-19h-271v19q65 3 78.5 10.5t13.5 45.5v405h-56q-55 0 -77.5 -27.5t-30.5 -91.5h-19v144h453v-144h-19q-9 65 -30.5 92t-77.5 27h-56z" />
    <glyph glyph-name="u.sc" unicode="&#xf775;" horiz-adv-x="627" 
d="M381 505h224v-20q-52 -3 -62 -11t-10 -45v-247q0 -107 -53.5 -152t-162.5 -45q-111 0 -164 44t-53 153v247q0 35 -11.5 44t-60.5 12v20h231v-20q-51 -3 -61.5 -12t-10.5 -44v-260q0 -165 131 -165q133 0 133 157v268q0 36 -10 44.5t-60 11.5v20z" />
    <glyph glyph-name="v.sc" unicode="&#xf776;" horiz-adv-x="544" 
d="M376 505h176v-20q-35 -2 -51.5 -13.5t-27.5 -39.5l-167 -432h-59q-25 74 -84 223t-88 215q-12 28 -25 36t-51 11v20h230v-20l-51 -5q-21 -1 -13 -28l67 -172.5l76 -196.5h2q103 264 130 361q8 34 -25 37l-39 4v20z" />
    <glyph glyph-name="w.sc" unicode="&#xf777;" horiz-adv-x="778" 
d="M0 505h215v-20l-36 -4q-17 -2 -22 -7.5t0 -21.5q25 -88 105 -348h3q86 283 112 389h62q23 -71 74.5 -217l61.5 -174h2q67 230 92 335q10 41 -27 44l-46 4v20h186v-20q-39 -3 -52 -13.5t-23 -43.5q-99 -298 -135 -428h-58q-21 68 -68.5 205.5l-63.5 186.5h-3l-36 -118
l-48.5 -161.5l-33.5 -112.5h-58q-50 179 -134 440q-9 27 -21.5 35t-47.5 10v20z" />
    <glyph glyph-name="x.sc" unicode="&#xf778;" horiz-adv-x="547" 
d="M16 505h221v-20l-31 -3q-23 -1 -11 -23q18 -32 92 -144h2q80 112 96 138q14 27 -13 29l-37 3v20h186v-20q-40 -4 -59.5 -11.5t-40.5 -29.5q-30 -34 -117 -150q96 -153 146 -223q23 -32 39.5 -40.5t58.5 -11.5v-19h-251v19l43 4q25 3 13 25t-105 170h-2
q-73 -113 -104 -167q-13 -23 17 -27l37 -5v-19h-190v19q44 2 62.5 12t47.5 45q37 48 117 165l-135 201q-20 28 -34.5 35t-47.5 8v20z" />
    <glyph glyph-name="y.sc" unicode="&#xf779;" horiz-adv-x="500" 
d="M-2 505h224v-20l-39 -4q-26 -2 -13 -25q34 -64 119 -207h2q69 128 98 205q12 26 -18 28l-36 3v20h169v-20q-37 -4 -51.5 -12.5t-34.5 -37.5q-27 -42 -103 -189q-13 -24 -13 -50v-121q0 -38 11.5 -45.5t70.5 -10.5v-19h-254v19q59 3 71 10.5t12 45.5v113q0 28 -9 44
q-57 103 -132 219q-13 21 -25.5 26.5t-48.5 7.5v20z" />
    <glyph glyph-name="z.sc" unicode="&#xf77a;" horiz-adv-x="512" 
d="M50 505h410l5 -8l-317 -473h159q72 0 105 26.5t49 100.5h22l-15 -151h-437l-2 11l83 117l78 113.5l84.5 126.5l75.5 112h-147q-69 0 -92.5 -25t-39.5 -99h-21v149z" />
    <glyph glyph-name="exclamdown.sc" unicode="&#xf7a1;" horiz-adv-x="233" 
d="M103 326h20l44 -300q5 -35 -5.5 -52t-49.5 -17t-49 17t-5 52zM111 517h1q23 0 37 -15.5t14 -39.5q0 -23 -14.5 -39t-37.5 -16q-25 0 -39 15.5t-14 38.5q1 25 14.5 40.5t38.5 15.5z" />
    <glyph glyph-name="cent.oldstyle" unicode="&#xf7a2;" horiz-adv-x="471" 
d="M252 458v66h24v-66q79 -1 116.5 -30.5t37.5 -60.5q0 -18 -12 -29t-29 -11q-21 0 -26 21q-10 46 -33 69.5t-54 23.5v-389q51 0 88 21.5t61 79.5l13 -8q-20 -61 -63.5 -92t-98.5 -35v-83h-24v83q-102 2 -153 54t-51 167q0 104 58.5 160t145.5 59zM252 54v387
q-20 0 -38 -7.5t-37 -26.5t-30 -60.5t-11 -100.5q0 -77 29 -130.5t87 -61.5z" />
    <glyph glyph-name="dieresis.sc" unicode="&#xf7a8;" horiz-adv-x="382" 
d="M99 656h1q21 0 34 -14t13 -35q-1 -21 -13.5 -34.5t-34.5 -13.5q-21 0 -35 13.5t-14 34.5t13.5 35t35.5 14zM282 656h1q22 0 35 -14t12 -35q0 -21 -13 -34.5t-35 -13.5q-21 0 -34.5 13.5t-13.5 34.5t13.5 35t34.5 14z" />
    <glyph glyph-name="macron.sc" unicode="&#xf7af;" horiz-adv-x="382" 
d="M74 626h237v-48h-237v48z" />
    <glyph glyph-name="acute.sc" unicode="&#xf7b4;" horiz-adv-x="382" 
d="M160 550l-7 10l88 97q16 17 23 23t16 11t18 4q11 -2 19.5 -14t6.5 -24q-1 -5 -3.5 -9.5t-9 -9l-10 -7t-14 -8.5t-14.5 -8z" />
    <glyph glyph-name="cedilla.sc" unicode="&#xf7b8;" horiz-adv-x="378" 
d="M191 0h20l-33 -52q85 -10 85 -75q0 -26 -10.5 -44t-27 -26t-30.5 -11t-28 -3q-26 0 -51 14l3 15q12 -5 31 -5q48 0 48 53q0 49 -59 52l-1 5z" />
    <glyph glyph-name="questiondown.sc" unicode="&#xf7bf;" horiz-adv-x="367" 
d="M181 517h1q23 0 37 -15.5t14 -39.5q0 -23 -14 -39t-38 -16t-38.5 16t-13.5 39q0 24 14 39.5t38 15.5zM175 -41h-1q-66 0 -102.5 30t-36.5 82q0 36 15 58.5t52 48.5l10 7l10 7t9 6.5t8.5 7t7.5 6.5t7 7t5 7t4.5 7.5t2.5 7.5t1 8q0 17 -14 29t-30 12h-14v11q27 20 64 20
q36 0 55 -21.5t19 -50.5q0 -34 -72 -101q-51 -49 -51 -95q0 -76 59 -76t68 102q3 25 27 25q19 0 35.5 -11.5t16.5 -33.5q0 -32 -40.5 -66t-114.5 -34z" />
    <glyph glyph-name="agrave.sc" unicode="&#xf7e0;" horiz-adv-x="555" 
d="M326 193h-170q-11 -33 -41 -131q-6 -20 2 -28t27 -11l35 -4v-19h-179v19q40 2 55 10.5t25 35.5l160 443h61q112 -317 168 -451q10 -24 24 -30t52 -8v-19h-226v19l36 5q29 4 20 27zM318 217q-48 132 -78 222h-2l-75 -222h155zM296 550l-113 65q-4 2 -14.5 8t-14.5 8.5
t-10 7t-9 9t-4 9.5q-1 12 7.5 24t19.5 14q19 3 57 -38l88 -97z" />
    <glyph glyph-name="aacute.sc" unicode="&#xf7e1;" horiz-adv-x="555" 
d="M326 193h-170q-11 -33 -41 -131q-6 -20 2 -28t27 -11l35 -4v-19h-179v19q40 2 55 10.5t25 35.5l160 443h61q112 -317 168 -451q10 -24 24 -30t52 -8v-19h-226v19l36 5q29 4 20 27zM318 217q-48 132 -78 222h-2l-75 -222h155zM247 550l-7 10l88 97q16 17 23 23t16 11t18 4
q11 -2 19.5 -14t6.5 -24q-1 -5 -3.5 -9.5t-9 -9l-10 -7t-14 -8.5t-14.5 -8z" />
    <glyph glyph-name="acircumflex.sc" unicode="&#xf7e2;" horiz-adv-x="555" 
d="M326 193h-170q-11 -33 -41 -131q-6 -20 2 -28t27 -11l35 -4v-19h-179v19q40 2 55 10.5t25 35.5l160 443h61q112 -317 168 -451q10 -24 24 -30t52 -8v-19h-226v19l36 5q29 4 20 27zM318 217q-48 132 -78 222h-2l-75 -222h155zM380 559l-10 -8l-91 60q-9 6 -12 6.5
t-10 -4.5l-88 -62l-10 8l100 138h18z" />
    <glyph glyph-name="atilde.sc" unicode="&#xf7e3;" horiz-adv-x="555" 
d="M326 193h-170q-11 -33 -41 -131q-6 -20 2 -28t27 -11l35 -4v-19h-179v19q40 2 55 10.5t25 35.5l160 443h61q112 -317 168 -451q10 -24 24 -30t52 -8v-19h-226v19l36 5q29 4 20 27zM318 217q-48 132 -78 222h-2l-75 -222h155zM391 655l11 -5q-19 -85 -75 -85q-13 0 -66 16
q-56 17 -63 17q-19 0 -30 -9t-22 -32l-11 7q20 82 79 82q21 0 66 -15q50 -16 60 -16q37 0 51 40z" />
    </font>
</defs>
</svg>
